<svg width="28" height="28" viewBox="0 0 28 28" fill="none" xmlns="http://www.w3.org/2000/svg">
<path d="M14.0001 12.5327C13.1867 12.5327 12.5334 13.186 12.5334 13.9993C12.5334 14.8127 13.1867 15.466 14.0001 15.466C14.8134 15.466 15.4667 14.8127 15.4667 13.9993C15.4667 13.186 14.8134 12.5327 14.0001 12.5327ZM14.0001 0.666016C6.64008 0.666016 0.666748 6.63935 0.666748 13.9993C0.666748 21.3593 6.64008 27.3327 14.0001 27.3327C21.3601 27.3327 27.3334 21.3593 27.3334 13.9993C27.3334 6.63935 21.3601 0.666016 14.0001 0.666016ZM16.9201 16.9193L6.00008 21.9993L11.0801 11.0793L22.0001 5.99935L16.9201 16.9193Z" fill="#2F363F"/>
</svg>
