<svg width="640" height="558" viewBox="0 0 640 558" fill="none" xmlns="http://www.w3.org/2000/svg">
<g clip-path="url(#clip0_6515_59230)">
<rect width="640" height="558" fill="#151E28"/>
<circle cx="327" cy="399" r="174" fill="#19222D"/>
<path d="M107.914 119H126.474V114.8H113.234V106.44H123.314V102.44H113.234V94.6H125.794V90.4H107.914V119ZM135.368 119H141.008L148.568 98.08H143.808L138.408 114.04L132.928 98.08H127.728L135.368 119ZM160.172 119.4C165.532 119.4 169.092 117 169.772 112.6H165.092C164.732 114.64 163.212 115.8 160.292 115.8C156.692 115.8 154.692 113.56 154.532 109.6H169.852V108.2C169.852 100.72 165.172 97.64 159.972 97.64C154.012 97.64 149.572 101.96 149.572 108.44V108.76C149.572 115.36 154.012 119.4 160.172 119.4ZM154.612 106.36C155.092 103.12 157.052 101.16 159.972 101.16C162.972 101.16 164.812 102.76 165.052 106.36H154.612ZM173.775 119H178.615V108.12C178.615 103.68 181.175 102.32 185.415 102.28V97.76C181.895 97.8 179.935 99.36 178.615 102V98.08H173.775V119ZM191.789 126.16H196.549L207.949 98.08H203.229L198.109 111.56L192.549 98.08H187.309L195.589 116.88L191.789 126.16ZM218.689 119.36C220.169 119.36 221.209 119.12 221.969 118.84V115C221.289 115.28 220.569 115.4 219.609 115.4C218.089 115.4 217.209 114.56 217.209 112.72V101.72H221.809V98.08H217.209V93.48H212.369V98.08H209.569V101.72H212.369V113.16C212.369 117.12 214.529 119.36 218.689 119.36ZM225.935 119H230.775V106.68C230.775 103.36 232.975 101.68 235.695 101.68C238.575 101.68 239.855 103.12 239.855 106.28V119H244.695V105.84C244.695 100.08 241.735 97.64 237.535 97.64C234.095 97.64 231.775 99.36 230.775 101.4V88.4H225.935V119ZM249.991 119H254.831V98.08H249.991V119ZM252.351 94.64C253.951 94.64 255.231 93.44 255.231 91.88C255.231 90.28 253.951 89.08 252.351 89.08C250.751 89.08 249.471 90.28 249.471 91.88C249.471 93.44 250.751 94.64 252.351 94.64ZM260.33 119H265.17V106.68C265.17 103.36 267.37 101.68 270.09 101.68C272.97 101.68 274.25 103.12 274.25 106.28V119H279.09V105.84C279.09 100.08 276.13 97.64 271.93 97.64C268.49 97.64 266.17 99.36 265.17 101.4V98.08H260.33V119ZM293.186 126.68C299.666 126.68 303.786 123.6 303.826 117.44V98.08H298.986V101.28C297.786 99.2 295.706 97.64 292.266 97.64C286.866 97.64 282.866 102.04 282.866 107.92V108.2C282.866 114.24 286.906 118.16 292.146 118.16C295.226 118.16 297.826 116.28 298.986 114.28V117.36C298.986 121.12 296.906 123 293.146 123C289.986 123 288.386 121.8 287.986 119.72H283.106C283.666 123.72 286.626 126.68 293.186 126.68ZM293.346 114.44C290.226 114.44 287.826 112.04 287.826 108.16V107.84C287.826 104.04 289.906 101.44 293.506 101.44C296.986 101.44 299.146 103.8 299.146 107.76V108.04C299.146 112.04 296.706 114.44 293.346 114.44ZM320.63 126.16H325.39L336.79 98.08H332.07L326.95 111.56L321.39 98.08H316.15L324.43 116.88L320.63 126.16ZM348.598 115.64C344.918 115.64 342.798 112.96 342.798 108.68V108.36C342.798 104.04 344.998 101.44 348.598 101.44C352.198 101.44 354.358 104.08 354.358 108.4V108.68C354.358 112.96 352.198 115.64 348.598 115.64ZM348.558 119.4C354.718 119.4 359.318 115.16 359.318 108.64V108.32C359.318 101.92 354.718 97.64 348.598 97.64C342.438 97.64 337.838 101.96 337.838 108.44V108.76C337.838 115.12 342.398 119.4 348.558 119.4ZM370.291 119.4C373.691 119.4 375.891 117.76 376.931 115.72V119H381.771V98.08H376.931V110.52C376.931 113.84 374.651 115.52 372.051 115.52C369.251 115.52 367.931 114.08 367.931 110.92V98.08H363.091V111.48C363.091 117.04 366.171 119.4 370.291 119.4ZM396.241 119H401.081V106.68C401.081 103.36 403.281 101.68 406.001 101.68C408.881 101.68 410.161 103.12 410.161 106.28V119H415.001V105.84C415.001 100.08 412.041 97.64 407.841 97.64C404.401 97.64 402.081 99.36 401.081 101.4V98.08H396.241V119ZM429.377 119.4C434.737 119.4 438.297 117 438.977 112.6H434.297C433.937 114.64 432.417 115.8 429.497 115.8C425.897 115.8 423.897 113.56 423.737 109.6H439.057V108.2C439.057 100.72 434.377 97.64 429.177 97.64C423.217 97.64 418.777 101.96 418.777 108.44V108.76C418.777 115.36 423.217 119.4 429.377 119.4ZM423.817 106.36C424.297 103.12 426.257 101.16 429.177 101.16C432.177 101.16 434.017 102.76 434.257 106.36H423.817ZM452.18 119.4C457.54 119.4 461.1 117 461.78 112.6H457.1C456.74 114.64 455.22 115.8 452.3 115.8C448.7 115.8 446.7 113.56 446.54 109.6H461.86V108.2C461.86 100.72 457.18 97.64 451.98 97.64C446.02 97.64 441.58 101.96 441.58 108.44V108.76C441.58 115.36 446.02 119.4 452.18 119.4ZM446.62 106.36C447.1 103.12 449.06 101.16 451.98 101.16C454.98 101.16 456.82 102.76 457.06 106.36H446.62ZM473.623 119.4C476.703 119.4 479.383 117.56 480.503 115.48V119H485.343V88.4H480.503V101.28C479.343 99.2 477.223 97.64 473.823 97.64C468.383 97.64 464.423 101.88 464.423 108.56V108.88C464.423 115.68 468.383 119.4 473.623 119.4ZM474.823 115.56C471.703 115.56 469.383 113.36 469.383 108.76V108.44C469.383 103.92 471.463 101.44 475.023 101.44C478.543 101.44 480.663 103.72 480.663 108.32V108.64C480.663 113.32 478.183 115.56 474.823 115.56ZM506.947 119.36C508.427 119.36 509.467 119.12 510.227 118.84V115C509.547 115.28 508.827 115.4 507.867 115.4C506.347 115.4 505.467 114.56 505.467 112.72V101.72H510.067V98.08H505.467V93.48H500.627V98.08H497.827V101.72H500.627V113.16C500.627 117.12 502.787 119.36 506.947 119.36ZM523.553 115.64C519.873 115.64 517.753 112.96 517.753 108.68V108.36C517.753 104.04 519.953 101.44 523.553 101.44C527.153 101.44 529.313 104.08 529.313 108.4V108.68C529.313 112.96 527.153 115.64 523.553 115.64ZM523.513 119.4C529.673 119.4 534.273 115.16 534.273 108.64V108.32C534.273 101.92 529.673 97.64 523.553 97.64C517.393 97.64 512.793 101.96 512.793 108.44V108.76C512.793 115.12 517.353 119.4 523.513 119.4ZM199.515 171.4C204.875 171.4 207.875 168.96 207.875 164.72C207.875 160.28 204.955 159.08 200.035 158.32C196.715 157.76 195.715 157.16 195.715 155.64C195.715 154.16 196.955 153.16 199.035 153.16C201.275 153.16 202.355 154.04 202.755 155.96H207.235C206.715 151.24 203.315 149.64 199.035 149.64C195.115 149.64 191.195 151.72 191.195 155.92C191.195 159.84 193.235 161.4 198.755 162.28C201.835 162.8 203.235 163.44 203.235 165.16C203.235 166.92 202.075 167.84 199.475 167.84C196.635 167.84 195.555 166.6 195.315 164.48H190.755C190.955 168.92 194.115 171.4 199.515 171.4ZM211.721 171H216.561V158.48C216.561 155.28 218.761 153.68 221.161 153.68C223.521 153.68 224.881 155 224.881 158.08V171H229.721V158.48C229.721 155.28 231.921 153.68 234.321 153.68C236.721 153.68 238.041 155 238.041 158.08V171H242.881V157.76C242.881 152 239.761 149.64 235.921 149.64C233.321 149.64 230.441 150.8 228.841 153.4C227.801 150.8 225.641 149.64 222.921 149.64C219.841 149.64 217.561 151.32 216.561 153.28V150.08H211.721V171ZM253.519 171.4C256.719 171.4 258.559 170.24 259.919 168.44V171H264.679V157.28C264.679 151.56 260.999 149.64 256.319 149.64C251.639 149.64 247.759 151.68 247.359 156.56H252.039C252.279 154.48 253.519 153.28 256.039 153.28C258.879 153.28 259.839 154.68 259.839 157.48V158.56H257.239C251.239 158.56 246.519 160.32 246.519 165.2C246.519 169.56 249.679 171.4 253.519 171.4ZM254.679 167.92C252.279 167.92 251.319 166.76 251.319 165C251.319 162.44 253.679 161.6 257.359 161.6H259.839V163.68C259.839 166.36 257.639 167.92 254.679 167.92ZM269.827 171H274.667V160.12C274.667 155.68 277.227 154.32 281.467 154.28V149.76C277.947 149.8 275.987 151.36 274.667 154V150.08H269.827V171ZM292.641 171.36C294.121 171.36 295.161 171.12 295.921 170.84V167C295.241 167.28 294.521 167.4 293.561 167.4C292.041 167.4 291.161 166.56 291.161 164.72V153.72H295.761V150.08H291.161V145.48H286.321V150.08H283.521V153.72H286.321V165.16C286.321 169.12 288.481 171.36 292.641 171.36ZM300.006 171H304.846V140.4H300.006V171ZM312.666 178.16H317.426L328.826 150.08H324.106L318.986 163.56L313.426 150.08H308.186L316.466 168.88L312.666 178.16ZM341.306 171H346.146V150.08H341.306V171ZM343.666 146.64C345.266 146.64 346.546 145.44 346.546 143.88C346.546 142.28 345.266 141.08 343.666 141.08C342.066 141.08 340.786 142.28 340.786 143.88C340.786 145.44 342.066 146.64 343.666 146.64ZM351.646 171H356.486V158.68C356.486 155.36 358.686 153.68 361.406 153.68C364.286 153.68 365.566 155.12 365.566 158.28V171H370.406V157.84C370.406 152.08 367.446 149.64 363.246 149.64C359.806 149.64 357.486 151.36 356.486 153.4V150.08H351.646V171ZM380.671 171H386.311L393.871 150.08H389.111L383.711 166.04L378.231 150.08H373.031L380.671 171ZM405.475 171.4C410.835 171.4 414.395 169 415.075 164.6H410.395C410.035 166.64 408.515 167.8 405.595 167.8C401.995 167.8 399.995 165.56 399.835 161.6H415.155V160.2C415.155 152.72 410.475 149.64 405.275 149.64C399.315 149.64 394.875 153.96 394.875 160.44V160.76C394.875 167.36 399.315 171.4 405.475 171.4ZM399.915 158.36C400.395 155.12 402.355 153.16 405.275 153.16C408.275 153.16 410.115 154.76 410.355 158.36H399.915ZM426.434 171.4C431.794 171.4 434.794 168.96 434.794 164.72C434.794 160.28 431.874 159.08 426.954 158.32C423.634 157.76 422.634 157.16 422.634 155.64C422.634 154.16 423.874 153.16 425.954 153.16C428.194 153.16 429.274 154.04 429.674 155.96H434.154C433.634 151.24 430.234 149.64 425.954 149.64C422.034 149.64 418.114 151.72 418.114 155.92C418.114 159.84 420.154 161.4 425.674 162.28C428.754 162.8 430.154 163.44 430.154 165.16C430.154 166.92 428.994 167.84 426.394 167.84C423.554 167.84 422.474 166.6 422.234 164.48H417.674C417.874 168.92 421.034 171.4 426.434 171.4ZM445.759 171.36C447.239 171.36 448.279 171.12 449.039 170.84V167C448.359 167.28 447.639 167.4 446.679 167.4C445.159 167.4 444.279 166.56 444.279 164.72V153.72H448.879V150.08H444.279V145.48H439.439V150.08H436.639V153.72H439.439V165.16C439.439 169.12 441.599 171.36 445.759 171.36Z" fill="white"/>
<circle cx="342" cy="531" r="139.5" stroke="#333048"/>
<circle cx="341.5" cy="551.5" r="110" stroke="#333048"/>
<path d="M506.5 522C506.5 611.184 432.637 683.5 341.5 683.5C250.363 683.5 176.5 611.184 176.5 522C176.5 432.816 250.363 360.5 341.5 360.5C432.637 360.5 506.5 432.816 506.5 522Z" stroke="#333048"/>
<path d="M521.5 508C521.5 604.915 441.146 683.5 342 683.5C242.854 683.5 162.5 604.915 162.5 508C162.5 411.085 242.854 332.5 342 332.5C441.146 332.5 521.5 411.085 521.5 508Z" stroke="#333048"/>
<path d="M545.5 492C545.5 602.17 454.177 691.5 341.5 691.5C228.823 691.5 137.5 602.17 137.5 492C137.5 381.83 228.823 292.5 341.5 292.5C454.177 292.5 545.5 381.83 545.5 492Z" stroke="#333048"/>
<path d="M565.5 478.5C565.5 599.44 465.222 697.5 341.5 697.5C217.778 697.5 117.5 599.44 117.5 478.5C117.5 357.56 217.778 259.5 341.5 259.5C465.222 259.5 565.5 357.56 565.5 478.5Z" stroke="#333048"/>
<g filter="url(#filter0_d_6515_59230)">
<rect x="146" y="291" width="128" height="48" rx="24" fill="white" fill-opacity="0.95" shape-rendering="crispEdges"/>
<g clip-path="url(#clip1_6515_59230)">
<path d="M178 327C184.627 327 190 321.627 190 315C190 308.373 184.627 303 178 303C171.373 303 166 308.373 166 315C166 321.627 171.373 327 178 327Z" fill="white"/>
<path fill-rule="evenodd" clip-rule="evenodd" d="M178 303C184.627 303 190 308.373 190 315C190 321.627 184.627 327 178 327C171.373 327 166 321.627 166 315C166 308.373 171.373 303 178 303ZM173.907 312.06L168.174 317.769C168.026 317.92 167.943 318.123 167.944 318.335C167.945 318.546 168.029 318.749 168.178 318.899C168.327 319.048 168.529 319.133 168.741 319.135C168.952 319.137 169.156 319.055 169.307 318.908L174.587 313.65L179.507 316.756L179.506 316.694C179.506 316.125 179.721 315.605 180.074 315.213L174.903 311.95C174.749 311.853 174.567 311.811 174.386 311.831C174.205 311.851 174.036 311.932 173.907 312.06V312.06ZM181.721 315.808C181.602 315.803 181.483 315.823 181.372 315.865C181.26 315.908 181.158 315.972 181.072 316.055C180.986 316.138 180.918 316.237 180.871 316.347C180.824 316.457 180.8 316.575 180.8 316.694C180.8 316.813 180.824 316.931 180.871 317.041C180.918 317.151 180.986 317.25 181.072 317.333C181.158 317.416 181.26 317.48 181.372 317.523C181.483 317.565 181.602 317.585 181.721 317.58C181.95 317.571 182.167 317.474 182.326 317.309C182.485 317.144 182.574 316.923 182.574 316.694C182.574 316.465 182.485 316.244 182.326 316.079C182.167 315.914 181.95 315.817 181.721 315.808ZM182.3 318.6V322.553C182.3 322.783 182.113 322.97 181.883 322.97H181.717C181.606 322.97 181.5 322.926 181.422 322.848C181.344 322.77 181.3 322.664 181.3 322.553V318.6C181.629 318.678 181.971 318.678 182.3 318.6V318.6ZM187.813 316.2C188.044 316.2 188.231 316.387 188.231 316.617V316.783C188.231 317.013 188.044 317.2 187.814 317.2H184C184.075 316.871 184.075 316.529 184 316.2H187.813ZM185.812 309.301C185.934 309.127 186.121 309.008 186.331 308.971C186.541 308.935 186.757 308.983 186.931 309.105C187.105 309.227 187.224 309.414 187.261 309.624C187.298 309.834 187.25 310.05 187.127 310.224L183.508 315.383C183.179 314.935 182.694 314.627 182.149 314.52L185.812 309.301Z" fill="url(#paint0_linear_6515_59230)"/>
</g>
<path d="M207.481 320.16C210.009 320.16 211.689 318.608 211.689 316.624C211.689 314.336 210.297 313.568 207.609 313.2C205.625 312.912 205.241 312.448 205.241 311.52C205.241 310.64 205.913 310.016 207.209 310.016C208.521 310.016 209.209 310.528 209.417 311.728H211.369C211.145 309.536 209.673 308.416 207.209 308.416C204.825 308.416 203.225 309.824 203.225 311.696C203.225 313.84 204.521 314.672 207.257 315.04C209.113 315.344 209.641 315.744 209.641 316.8C209.641 317.856 208.745 318.56 207.481 318.56C205.545 318.56 205.081 317.6 204.937 316.448H202.889C203.049 318.608 204.361 320.16 207.481 320.16ZM216.438 320.144C217.03 320.144 217.446 320.048 217.75 319.936V318.4C217.478 318.512 217.19 318.56 216.806 318.56C216.198 318.56 215.846 318.224 215.846 317.488V313.088H217.686V311.632H215.846V309.792H213.91V311.632H212.79V313.088H213.91V317.664C213.91 319.248 214.774 320.144 216.438 320.144ZM223.24 318.656C221.768 318.656 220.92 317.584 220.92 315.872V315.744C220.92 314.016 221.8 312.976 223.24 312.976C224.68 312.976 225.544 314.032 225.544 315.76V315.872C225.544 317.584 224.68 318.656 223.24 318.656ZM223.224 320.16C225.688 320.16 227.528 318.464 227.528 315.856V315.728C227.528 313.168 225.688 311.456 223.24 311.456C220.776 311.456 218.936 313.184 218.936 315.776V315.904C218.936 318.448 220.76 320.16 223.224 320.16ZM232.941 320.16C235.213 320.16 236.669 318.8 236.813 316.88H235.037C234.925 318.064 234.045 318.672 233.021 318.672C231.597 318.672 230.701 317.712 230.701 315.888V315.76C230.701 314.032 231.645 313.008 232.973 313.008C233.997 313.008 234.733 313.472 234.893 314.592H236.765C236.541 312.288 234.797 311.456 232.941 311.456C230.605 311.456 228.717 313.136 228.717 315.792V315.92C228.717 318.592 230.541 320.16 232.941 320.16ZM238.48 320H240.416V315.888L243.552 320H245.792L242.272 315.472L245.52 311.632H243.408L240.416 315.312V307.76H238.48V320ZM249.829 320.16C251.973 320.16 253.173 319.184 253.173 317.488C253.173 315.712 252.005 315.232 250.036 314.928C248.709 314.704 248.309 314.464 248.309 313.856C248.309 313.264 248.805 312.864 249.637 312.864C250.533 312.864 250.965 313.216 251.125 313.984H252.917C252.709 312.096 251.349 311.456 249.637 311.456C248.069 311.456 246.501 312.288 246.501 313.968C246.501 315.536 247.317 316.16 249.525 316.512C250.757 316.72 251.317 316.976 251.317 317.664C251.317 318.368 250.853 318.736 249.812 318.736C248.677 318.736 248.245 318.24 248.149 317.392H246.325C246.405 319.168 247.669 320.16 249.829 320.16Z" fill="#151E28"/>
</g>
<g filter="url(#filter1_d_6515_59230)">
<rect x="298" y="291" width="196" height="48" rx="24" fill="white" fill-opacity="0.95" shape-rendering="crispEdges"/>
<g clip-path="url(#clip2_6515_59230)">
<path d="M330 327C336.627 327 342 321.627 342 315C342 308.373 336.627 303 330 303C323.373 303 318 308.373 318 315C318 321.627 323.373 327 330 327Z" fill="#1F7AE0"/>
<path fill-rule="evenodd" clip-rule="evenodd" d="M327.128 319.815L324.327 318.533C324.294 318.518 324.264 318.496 324.241 318.469C324.217 318.442 324.199 318.411 324.19 318.377C324.18 318.343 324.178 318.307 324.184 318.273C324.189 318.238 324.203 318.205 324.224 318.176L325.626 316.21C325.652 316.173 325.689 316.143 325.732 316.124C325.776 316.105 325.823 316.097 325.871 316.102C325.918 316.106 325.963 316.123 326.002 316.15C326.04 316.177 326.07 316.213 326.088 316.254L327.49 319.5C327.512 319.547 327.518 319.6 327.507 319.65C327.495 319.7 327.468 319.746 327.428 319.781C327.388 319.815 327.337 319.837 327.284 319.843C327.23 319.85 327.175 319.84 327.128 319.815V319.815ZM336.75 319.232V312.587C336.749 312.545 336.737 312.503 336.715 312.466C336.693 312.429 336.661 312.398 336.622 312.376C336.584 312.354 336.54 312.342 336.495 312.341C336.45 312.339 336.405 312.349 336.365 312.369L330.143 315.397C330.101 315.418 330.065 315.449 330.04 315.488C330.015 315.526 330.002 315.57 330.002 315.616V322.261C330.002 322.303 330.014 322.345 330.036 322.382C330.058 322.419 330.09 322.45 330.129 322.472C330.167 322.494 330.211 322.506 330.256 322.507C330.301 322.509 330.346 322.499 330.386 322.479L336.61 319.45C336.652 319.43 336.687 319.398 336.712 319.36C336.737 319.321 336.75 319.277 336.75 319.232ZM334.929 316.667C334.906 317.169 334.752 317.658 334.48 318.089C334.208 318.52 333.827 318.881 333.371 319.138C332.513 319.556 331.817 319.128 331.817 318.18C331.84 317.678 331.994 317.19 332.266 316.758C332.538 316.327 332.919 315.966 333.375 315.708C334.233 315.291 334.929 315.721 334.929 316.667ZM329.747 314.514L335.914 311.527C335.957 311.506 335.993 311.474 336.018 311.435C336.042 311.396 336.055 311.351 336.055 311.306C336.054 311.26 336.04 311.216 336.015 311.177C335.989 311.139 335.952 311.108 335.909 311.088L329.795 308.276C329.758 308.259 329.718 308.25 329.677 308.25C329.635 308.25 329.595 308.259 329.558 308.276L323.391 311.263C323.348 311.284 323.312 311.316 323.287 311.355C323.262 311.394 323.249 311.439 323.25 311.484C323.251 311.53 323.265 311.575 323.29 311.613C323.316 311.652 323.353 311.683 323.396 311.703L329.513 314.513C329.587 314.548 329.673 314.548 329.747 314.513V314.514ZM329.728 309.964L332.334 311.162C332.377 311.182 332.414 311.213 332.44 311.252C332.466 311.29 332.48 311.335 332.48 311.381C332.481 311.426 332.468 311.471 332.443 311.51C332.418 311.55 332.382 311.581 332.339 311.602L329.811 312.827C329.774 312.844 329.734 312.853 329.692 312.853C329.651 312.853 329.611 312.844 329.574 312.827L326.968 311.629C326.925 311.609 326.888 311.578 326.862 311.539C326.836 311.501 326.823 311.456 326.822 311.411C326.822 311.365 326.835 311.32 326.86 311.281C326.885 311.242 326.921 311.21 326.964 311.189L329.491 309.965C329.528 309.947 329.569 309.938 329.61 309.938C329.651 309.938 329.692 309.947 329.728 309.964Z" fill="white"/>
</g>
<path d="M358.305 320.16C360.449 320.16 361.649 319.184 361.649 317.488C361.649 315.712 360.481 315.232 358.513 314.928C357.185 314.704 356.785 314.464 356.785 313.856C356.785 313.264 357.281 312.864 358.113 312.864C359.009 312.864 359.441 313.216 359.601 313.984H361.393C361.185 312.096 359.825 311.456 358.113 311.456C356.545 311.456 354.977 312.288 354.977 313.968C354.977 315.536 355.793 316.16 358.001 316.512C359.233 316.72 359.793 316.976 359.793 317.664C359.793 318.368 359.329 318.736 358.289 318.736C357.153 318.736 356.721 318.24 356.625 317.392H354.801C354.881 319.168 356.145 320.16 358.305 320.16ZM363.347 320H365.283V314.992C365.283 313.712 366.163 313.072 367.123 313.072C368.067 313.072 368.611 313.6 368.611 314.832V320H370.547V314.992C370.547 313.712 371.427 313.072 372.387 313.072C373.347 313.072 373.875 313.6 373.875 314.832V320H375.811V314.704C375.811 312.4 374.563 311.456 373.027 311.456C371.987 311.456 370.835 311.92 370.195 312.96C369.779 311.92 368.915 311.456 367.827 311.456C366.595 311.456 365.683 312.128 365.283 312.912V311.632H363.347V320ZM380.227 320.16C381.507 320.16 382.243 319.696 382.787 318.976V320H384.691V314.512C384.691 312.224 383.219 311.456 381.347 311.456C379.475 311.456 377.923 312.272 377.763 314.224H379.635C379.731 313.392 380.227 312.912 381.235 312.912C382.371 312.912 382.755 313.472 382.755 314.592V315.024H381.715C379.315 315.024 377.427 315.728 377.427 317.68C377.427 319.424 378.691 320.16 380.227 320.16ZM380.691 318.768C379.731 318.768 379.347 318.304 379.347 317.6C379.347 316.576 380.291 316.24 381.763 316.24H382.755V317.072C382.755 318.144 381.875 318.768 380.691 318.768ZM386.958 320H388.894V307.76H386.958V320ZM391.302 320H393.238V307.76H391.302V320ZM399.261 320.16C401.533 320.16 402.989 318.8 403.133 316.88H401.357C401.245 318.064 400.365 318.672 399.341 318.672C397.917 318.672 397.021 317.712 397.021 315.888V315.76C397.021 314.032 397.965 313.008 399.293 313.008C400.317 313.008 401.053 313.472 401.213 314.592H403.085C402.861 312.288 401.117 311.456 399.261 311.456C396.925 311.456 395.037 313.136 395.037 315.792V315.92C395.037 318.592 396.861 320.16 399.261 320.16ZM406.992 320.16C408.272 320.16 409.008 319.696 409.552 318.976V320H411.456V314.512C411.456 312.224 409.984 311.456 408.112 311.456C406.24 311.456 404.688 312.272 404.528 314.224H406.4C406.496 313.392 406.992 312.912 408 312.912C409.136 312.912 409.52 313.472 409.52 314.592V315.024H408.48C406.08 315.024 404.192 315.728 404.192 317.68C404.192 319.424 405.456 320.16 406.992 320.16ZM407.456 318.768C406.496 318.768 406.112 318.304 406.112 317.6C406.112 316.576 407.056 316.24 408.528 316.24H409.52V317.072C409.52 318.144 408.64 318.768 407.456 318.768ZM416.539 320.16C418.683 320.16 419.883 319.184 419.883 317.488C419.883 315.712 418.715 315.232 416.747 314.928C415.419 314.704 415.019 314.464 415.019 313.856C415.019 313.264 415.515 312.864 416.347 312.864C417.243 312.864 417.675 313.216 417.835 313.984H419.627C419.419 312.096 418.059 311.456 416.347 311.456C414.779 311.456 413.211 312.288 413.211 313.968C413.211 315.536 414.027 316.16 416.235 316.512C417.467 316.72 418.027 316.976 418.027 317.664C418.027 318.368 417.563 318.736 416.523 318.736C415.387 318.736 414.955 318.24 414.859 317.392H413.035C413.115 319.168 414.379 320.16 416.539 320.16ZM425.262 320.16C427.406 320.16 428.83 319.2 429.102 317.44H427.23C427.086 318.256 426.478 318.72 425.31 318.72C423.87 318.72 423.07 317.824 423.006 316.24H429.134V315.68C429.134 312.688 427.262 311.456 425.182 311.456C422.798 311.456 421.022 313.184 421.022 315.776V315.904C421.022 318.544 422.798 320.16 425.262 320.16ZM423.038 314.944C423.23 313.648 424.014 312.864 425.182 312.864C426.382 312.864 427.118 313.504 427.214 314.944H423.038Z" fill="#151E28"/>
<rect x="438" y="306" width="36" height="18" rx="4" fill="#FFCF87"/>
<path d="M445.199 318H446.409V312.52L449.629 318H451.009V310.85H449.799V316.02L446.789 310.85H445.199V318ZM452.85 318H457.49V316.95H454.18V314.86H456.7V313.86H454.18V311.9H457.32V310.85H452.85V318ZM460.11 318H461.38L462.83 312.79L464.24 318H465.57L467.36 310.85H466.12L464.84 316.13L463.42 310.85H462.32L460.93 316.1L459.69 310.85H458.33L460.11 318Z" fill="#946133"/>
</g>
<g filter="url(#filter2_d_6515_59230)">
<rect x="76.5" y="363" width="132" height="48" rx="24" fill="white" fill-opacity="0.95" shape-rendering="crispEdges"/>
<g clip-path="url(#clip3_6515_59230)">
<path d="M108.5 399C115.127 399 120.5 393.627 120.5 387C120.5 380.373 115.127 375 108.5 375C101.873 375 96.5 380.373 96.5 387C96.5 393.627 101.873 399 108.5 399Z" fill="#65CCF2"/>
<path d="M104.602 388.607C104.431 389.885 103.338 390.87 102.013 390.87C100.689 390.87 99.5957 389.885 99.4244 388.607H104.602Z" fill="white"/>
<path d="M104.286 388.106L102.032 382.011C101.974 381.855 102.054 381.681 102.211 381.623C102.367 381.565 102.541 381.645 102.598 381.801L104.853 387.896C104.91 388.053 104.83 388.226 104.674 388.284C104.518 388.342 104.344 388.262 104.286 388.106Z" fill="white"/>
<path d="M99.2643 388.284C99.108 388.226 99.0281 388.053 99.0859 387.896L101.34 381.801C101.398 381.645 101.571 381.565 101.728 381.623C101.884 381.681 101.964 381.855 101.906 382.011L99.6521 388.106C99.5943 388.262 99.4206 388.342 99.2643 388.284Z" fill="white"/>
<path d="M112.325 388.284C112.169 388.225 112.089 388.051 112.148 387.895L114.402 381.869C114.46 381.713 114.634 381.634 114.79 381.692C114.947 381.75 115.026 381.924 114.967 382.08L112.713 388.107C112.655 388.263 112.481 388.342 112.325 388.284Z" fill="white"/>
<path d="M117.348 388.107L115.094 382.08C115.036 381.924 115.115 381.75 115.271 381.692C115.427 381.634 115.601 381.713 115.66 381.869L117.914 387.895C117.972 388.051 117.893 388.225 117.737 388.284C117.581 388.342 117.407 388.263 117.348 388.107Z" fill="white"/>
<path d="M102.458 382.227C102.304 382.227 102.172 382.11 102.158 381.953C102.142 381.787 102.264 381.64 102.43 381.625C103.433 381.53 103.7 381.416 107.676 380.326C107.837 380.282 108.003 380.376 108.047 380.537C108.091 380.698 107.996 380.864 107.836 380.908C103.839 382.004 103.541 382.127 102.486 382.226C102.477 382.227 102.467 382.227 102.458 382.227Z" fill="white"/>
<path d="M114.616 382.248C114.607 382.248 114.597 382.248 114.588 382.247C113.493 382.144 113.199 382.021 109.026 380.877C108.865 380.833 108.771 380.667 108.815 380.506C108.859 380.345 109.025 380.25 109.186 380.295C113.365 381.441 113.616 381.549 114.644 381.646C114.81 381.661 114.932 381.809 114.916 381.975C114.902 382.131 114.77 382.248 114.616 382.248Z" fill="white"/>
<path d="M108.48 379.233C108.696 379.233 108.898 379.291 109.072 379.393V378.273C109.072 378.047 108.889 377.864 108.663 377.864H108.297C108.071 377.864 107.888 378.047 107.888 378.273V379.393C108.062 379.291 108.264 379.233 108.48 379.233Z" fill="white"/>
<path d="M109.072 393.779V381.43C108.898 381.532 108.696 381.59 108.48 381.59C108.264 381.59 108.062 381.532 107.888 381.43V393.779H109.072Z" fill="white"/>
<path d="M108.685 378.273C108.685 378.126 108.763 377.998 108.879 377.926C108.816 377.887 108.743 377.864 108.663 377.864H108.297C108.071 377.864 107.888 378.047 107.888 378.273V379.393C108.062 379.291 108.264 379.233 108.48 379.233C108.55 379.233 108.618 379.24 108.685 379.251V378.273Z" fill="white"/>
<path d="M108.48 381.59C108.264 381.59 108.062 381.532 107.888 381.43V393.779H108.685V381.571C108.618 381.583 108.55 381.59 108.48 381.59Z" fill="white"/>
<path d="M112.069 387.395H117.992C118.272 387.395 118.5 387.623 118.5 387.902V388.1C118.5 388.379 118.272 388.607 117.992 388.607H112.069C111.79 388.607 111.562 388.379 111.562 388.1V387.902C111.562 387.623 111.79 387.395 112.069 387.395Z" fill="white"/>
<path d="M117.992 387.803H112.069C111.904 387.803 111.757 387.722 111.664 387.599C111.6 387.683 111.562 387.788 111.562 387.902V388.1C111.562 388.379 111.79 388.607 112.069 388.607H117.992C118.272 388.607 118.5 388.379 118.5 388.1V387.902C118.5 387.788 118.462 387.683 118.398 387.599C118.305 387.722 118.158 387.803 117.992 387.803Z" fill="white"/>
<path d="M117.576 388.607C117.404 389.885 116.311 390.87 114.987 390.87C113.662 390.87 112.569 389.885 112.398 388.607H117.576Z" fill="white"/>
<path d="M101.969 382.906C102.522 382.906 102.969 382.458 102.969 381.906C102.969 381.354 102.522 380.906 101.969 380.906C101.417 380.906 100.969 381.354 100.969 381.906C100.969 382.458 101.417 382.906 101.969 382.906Z" fill="white"/>
<path d="M115.031 382.906C115.583 382.906 116.031 382.458 116.031 381.906C116.031 381.354 115.583 380.906 115.031 380.906C114.479 380.906 114.031 381.354 114.031 381.906C114.031 382.458 114.479 382.906 115.031 382.906Z" fill="white"/>
<path d="M110.765 393.658H106.196C105.916 393.658 105.688 393.887 105.688 394.166V394.992H111.272V394.166C111.272 393.887 111.044 393.658 110.765 393.658Z" fill="white"/>
<path d="M105.698 394.066C105.691 394.099 105.688 394.132 105.688 394.166V394.992H111.272V394.166C111.272 394.132 111.269 394.099 111.262 394.066H105.698Z" fill="white"/>
<path d="M111.452 394.871H105.529C105.25 394.871 105.022 395.1 105.022 395.379V395.576C105.022 395.856 105.25 396.084 105.529 396.084H111.452C111.732 396.084 111.96 395.856 111.96 395.576V395.379C111.96 395.1 111.732 394.871 111.452 394.871Z" fill="white"/>
<path d="M111.452 395.279H105.529C105.364 395.279 105.217 395.199 105.124 395.075C105.06 395.16 105.022 395.265 105.022 395.379V395.576C105.022 395.856 105.25 396.084 105.529 396.084H111.452C111.732 396.084 111.96 395.856 111.96 395.576V395.379C111.96 395.265 111.922 395.16 111.858 395.075C111.765 395.199 111.618 395.279 111.452 395.279Z" fill="white"/>
<path d="M108.48 381.59C109.131 381.59 109.659 381.062 109.659 380.411C109.659 379.76 109.131 379.233 108.48 379.233C107.829 379.233 107.302 379.76 107.302 380.411C107.302 381.062 107.829 381.59 108.48 381.59Z" fill="white"/>
<path d="M102.367 381.906C102.367 381.7 102.446 381.512 102.573 381.369C102.425 381.202 102.21 381.097 101.969 381.097C101.522 381.097 101.16 381.459 101.16 381.906C101.16 382.353 101.522 382.715 101.969 382.715C102.21 382.715 102.425 382.61 102.573 382.443C102.446 382.3 102.367 382.113 102.367 381.906Z" fill="white"/>
<path d="M115.429 381.906C115.429 381.7 115.507 381.512 115.634 381.369C115.486 381.202 115.271 381.097 115.031 381.097C114.584 381.097 114.222 381.459 114.222 381.906C114.222 382.353 114.584 382.715 115.031 382.715C115.271 382.715 115.486 382.61 115.634 382.443C115.507 382.3 115.429 382.113 115.429 381.906Z" fill="white"/>
<path d="M108.509 380.411C108.509 379.981 108.74 379.605 109.084 379.399C108.907 379.294 108.701 379.233 108.48 379.233C107.829 379.233 107.302 379.76 107.302 380.411C107.302 381.062 107.829 381.59 108.48 381.59C108.701 381.59 108.907 381.529 109.084 381.424C108.739 381.218 108.509 380.842 108.509 380.411Z" fill="white"/>
<path d="M99.0077 387.395H104.931C105.21 387.395 105.438 387.623 105.438 387.902V388.1C105.438 388.379 105.21 388.607 104.931 388.607H99.0077C98.7284 388.607 98.5 388.379 98.5 388.1V387.902C98.5 387.623 98.7284 387.395 99.0077 387.395Z" fill="white"/>
<path d="M104.931 387.803H99.0077C98.8423 387.803 98.6951 387.722 98.6023 387.599C98.5384 387.683 98.5 387.788 98.5 387.902V388.1C98.5 388.379 98.7284 388.607 99.0077 388.607H104.931C105.21 388.607 105.438 388.379 105.438 388.1V387.902C105.438 387.788 105.4 387.683 105.336 387.599C105.243 387.722 105.096 387.803 104.931 387.803Z" fill="white"/>
</g>
<path d="M134.087 392H136.231V380.56H134.087V392ZM138.769 392H140.705V387.072C140.705 385.744 141.585 385.072 142.673 385.072C143.825 385.072 144.337 385.648 144.337 386.912V392H146.273V386.736C146.273 384.432 145.089 383.456 143.409 383.456C142.033 383.456 141.105 384.144 140.705 384.96V383.632H138.769V392ZM151.64 392.16C152.872 392.16 153.944 391.424 154.392 390.592V392H156.328V379.76H154.392V384.912C153.928 384.08 153.08 383.456 151.72 383.456C149.544 383.456 147.96 385.152 147.96 387.824V387.952C147.96 390.672 149.544 392.16 151.64 392.16ZM152.12 390.624C150.872 390.624 149.944 389.744 149.944 387.904V387.776C149.944 385.968 150.776 384.976 152.2 384.976C153.608 384.976 154.456 385.888 154.456 387.728V387.856C154.456 389.728 153.464 390.624 152.12 390.624ZM158.677 392H160.613V383.632H158.677V392ZM159.621 382.256C160.261 382.256 160.773 381.776 160.773 381.152C160.773 380.512 160.261 380.032 159.621 380.032C158.981 380.032 158.469 380.512 158.469 381.152C158.469 381.776 158.981 382.256 159.621 382.256ZM166.636 392.16C168.908 392.16 170.364 390.8 170.508 388.88H168.732C168.62 390.064 167.74 390.672 166.716 390.672C165.292 390.672 164.396 389.712 164.396 387.888V387.76C164.396 386.032 165.34 385.008 166.668 385.008C167.692 385.008 168.428 385.472 168.588 386.592H170.46C170.236 384.288 168.492 383.456 166.636 383.456C164.3 383.456 162.412 385.136 162.412 387.792V387.92C162.412 390.592 164.236 392.16 166.636 392.16ZM175.855 392.16C177.999 392.16 179.423 391.2 179.695 389.44H177.823C177.679 390.256 177.071 390.72 175.903 390.72C174.463 390.72 173.663 389.824 173.599 388.24H179.727V387.68C179.727 384.688 177.855 383.456 175.775 383.456C173.391 383.456 171.615 385.184 171.615 387.776V387.904C171.615 390.544 173.391 392.16 175.855 392.16ZM173.631 386.944C173.823 385.648 174.607 384.864 175.775 384.864C176.975 384.864 177.711 385.504 177.807 386.944H173.631ZM184.399 392.16C186.543 392.16 187.743 391.184 187.743 389.488C187.743 387.712 186.575 387.232 184.607 386.928C183.279 386.704 182.879 386.464 182.879 385.856C182.879 385.264 183.375 384.864 184.207 384.864C185.103 384.864 185.535 385.216 185.695 385.984H187.487C187.279 384.096 185.919 383.456 184.207 383.456C182.639 383.456 181.071 384.288 181.071 385.968C181.071 387.536 181.887 388.16 184.095 388.512C185.327 388.72 185.887 388.976 185.887 389.664C185.887 390.368 185.423 390.736 184.383 390.736C183.247 390.736 182.815 390.24 182.719 389.392H180.895C180.975 391.168 182.239 392.16 184.399 392.16Z" fill="#151E28"/>
</g>
<g filter="url(#filter3_d_6515_59230)">
<rect x="232.5" y="363" width="192" height="48" rx="24" fill="white" fill-opacity="0.95" shape-rendering="crispEdges"/>
<g clip-path="url(#clip4_6515_59230)">
<path d="M272.5 399C279.127 399 284.5 393.627 284.5 387C284.5 380.373 279.127 375 272.5 375C265.873 375 260.5 380.373 260.5 387C260.5 393.627 265.873 399 272.5 399Z" fill="#D18BF2"/>
<path fill-rule="evenodd" clip-rule="evenodd" d="M272.5 382.157C273.179 382.157 273.729 381.606 273.729 380.928C273.729 380.249 273.179 379.698 272.5 379.698C271.821 379.698 271.27 380.249 271.27 380.928C271.27 381.606 271.821 382.157 272.5 382.157ZM277.312 384.556C277.429 384.624 277.562 384.661 277.698 384.662C277.842 384.658 277.983 384.613 278.104 384.533C278.192 384.48 278.268 384.411 278.329 384.328C278.39 384.245 278.434 384.152 278.459 384.052C278.484 383.952 278.488 383.849 278.473 383.747C278.458 383.646 278.422 383.548 278.369 383.46C277.788 382.503 276.985 381.7 276.028 381.119C275.94 381.059 275.841 381.017 275.737 380.997C275.633 380.976 275.526 380.977 275.423 380.999C275.319 381.022 275.221 381.065 275.135 381.126C275.048 381.187 274.975 381.266 274.92 381.356C274.865 381.447 274.828 381.547 274.813 381.652C274.799 381.757 274.805 381.864 274.833 381.966C274.86 382.069 274.909 382.164 274.975 382.247C275.04 382.33 275.123 382.399 275.216 382.45C275.957 382.904 276.579 383.529 277.03 384.272C277.098 384.389 277.195 384.487 277.312 384.556ZM266.904 384.545C267.021 384.617 267.156 384.656 267.294 384.658C267.431 384.66 267.567 384.626 267.687 384.559C267.807 384.492 267.907 384.394 267.977 384.276C268.428 383.535 269.05 382.914 269.791 382.465C269.883 382.414 269.963 382.345 270.027 382.262C270.091 382.179 270.138 382.084 270.165 381.983C270.192 381.882 270.198 381.776 270.183 381.673C270.168 381.569 270.132 381.469 270.078 381.38C270.024 381.29 269.952 381.212 269.867 381.151C269.782 381.09 269.686 381.046 269.584 381.023C269.482 381 269.376 380.997 269.273 381.016C269.17 381.034 269.071 381.073 268.984 381.13C268.026 381.71 267.222 382.514 266.642 383.472C266.589 383.559 266.553 383.657 266.537 383.758C266.522 383.86 266.526 383.963 266.55 384.063C266.575 384.162 266.618 384.256 266.679 384.339C266.74 384.422 266.816 384.492 266.904 384.545ZM269.37 392.974C269.232 392.973 269.097 392.934 268.98 392.861C268.022 392.281 267.218 391.478 266.638 390.52C266.581 390.432 266.542 390.334 266.523 390.231C266.505 390.128 266.508 390.022 266.531 389.92C266.554 389.818 266.598 389.721 266.659 389.636C266.72 389.551 266.798 389.48 266.888 389.425C266.977 389.371 267.077 389.335 267.181 389.321C267.284 389.306 267.39 389.312 267.491 389.338C267.592 389.365 267.687 389.412 267.77 389.476C267.853 389.54 267.922 389.621 267.973 389.712C268.424 390.451 269.046 391.071 269.788 391.519C269.932 391.606 270.044 391.739 270.107 391.896C270.17 392.053 270.181 392.226 270.137 392.389C270.093 392.553 269.997 392.697 269.863 392.801C269.73 392.906 269.566 392.964 269.397 392.967L269.37 392.974ZM275.163 392.809C275.297 392.913 275.46 392.971 275.629 392.974C275.777 392.981 275.924 392.945 276.051 392.869C277.009 392.289 277.812 391.485 278.392 390.528C278.5 390.35 278.532 390.137 278.482 389.936C278.432 389.735 278.305 389.562 278.127 389.454C277.95 389.347 277.737 389.315 277.535 389.365C277.334 389.415 277.161 389.542 277.054 389.72C276.605 390.461 275.982 391.081 275.239 391.527C275.095 391.614 274.982 391.747 274.919 391.904C274.856 392.061 274.846 392.234 274.89 392.397C274.934 392.561 275.03 392.705 275.163 392.809ZM273.729 393.072C273.729 393.751 273.179 394.301 272.5 394.301C271.821 394.301 271.27 393.751 271.27 393.072C271.27 392.393 271.821 391.843 272.5 391.843C273.179 391.843 273.729 392.393 273.729 393.072ZM278.572 388.229C279.251 388.229 279.801 387.679 279.801 387C279.801 386.321 279.251 385.771 278.572 385.771C277.893 385.771 277.343 386.321 277.343 387C277.343 387.679 277.893 388.229 278.572 388.229ZM267.657 387C267.657 387.679 267.106 388.229 266.428 388.229C265.749 388.229 265.198 387.679 265.198 387C265.198 386.321 265.749 385.771 266.428 385.771C267.106 385.771 267.657 386.321 267.657 387Z" fill="white"/>
</g>
<path d="M297.953 392H299.873V383.36L303.345 392H304.033L307.441 383.36V392H309.569V380.56H306.753L303.809 388.368L300.801 380.56H297.953V392ZM314.749 392.16C316.109 392.16 316.989 391.504 317.405 390.688V392H319.341V383.632H317.405V388.608C317.405 389.936 316.493 390.608 315.453 390.608C314.333 390.608 313.805 390.032 313.805 388.768V383.632H311.869V388.992C311.869 391.216 313.101 392.16 314.749 392.16ZM324.484 392.144C325.076 392.144 325.492 392.048 325.796 391.936V390.4C325.524 390.512 325.236 390.56 324.852 390.56C324.244 390.56 323.892 390.224 323.892 389.488V385.088H325.732V383.632H323.892V381.792H321.956V383.632H320.836V385.088H321.956V389.664C321.956 391.248 322.82 392.144 324.484 392.144ZM330.343 392.16C331.703 392.16 332.583 391.504 332.999 390.688V392H334.935V383.632H332.999V388.608C332.999 389.936 332.087 390.608 331.047 390.608C329.927 390.608 329.399 390.032 329.399 388.768V383.632H327.463V388.992C327.463 391.216 328.695 392.16 330.343 392.16ZM339.422 392.16C340.702 392.16 341.438 391.696 341.982 390.976V392H343.886V386.512C343.886 384.224 342.414 383.456 340.542 383.456C338.67 383.456 337.118 384.272 336.958 386.224H338.83C338.926 385.392 339.422 384.912 340.43 384.912C341.566 384.912 341.95 385.472 341.95 386.592V387.024H340.91C338.51 387.024 336.622 387.728 336.622 389.68C336.622 391.424 337.886 392.16 339.422 392.16ZM339.886 390.768C338.926 390.768 338.542 390.304 338.542 389.6C338.542 388.576 339.486 388.24 340.958 388.24H341.95V389.072C341.95 390.144 341.07 390.768 339.886 390.768ZM346.153 392H348.089V379.76H346.153V392ZM354.597 392H356.533V385.088H358.437V383.632H356.533V382.432C356.533 381.712 356.853 381.2 357.637 381.2C357.989 381.2 358.293 381.264 358.517 381.344V379.84C358.165 379.728 357.877 379.68 357.413 379.68C355.621 379.68 354.597 380.672 354.597 382.512V383.632H353.461V385.088H354.597V392ZM362.858 392.16C364.218 392.16 365.098 391.504 365.514 390.688V392H367.45V383.632H365.514V388.608C365.514 389.936 364.602 390.608 363.562 390.608C362.442 390.608 361.914 390.032 361.914 388.768V383.632H359.978V388.992C359.978 391.216 361.21 392.16 362.858 392.16ZM369.746 392H371.682V387.072C371.682 385.744 372.562 385.072 373.65 385.072C374.802 385.072 375.314 385.648 375.314 386.912V392H377.25V386.736C377.25 384.432 376.066 383.456 374.386 383.456C373.01 383.456 372.082 384.144 371.682 384.96V383.632H369.746V392ZM382.616 392.16C383.848 392.16 384.92 391.424 385.368 390.592V392H387.304V379.76H385.368V384.912C384.904 384.08 384.056 383.456 382.696 383.456C380.52 383.456 378.936 385.152 378.936 387.824V387.952C378.936 390.672 380.52 392.16 382.616 392.16ZM383.096 390.624C381.848 390.624 380.92 389.744 380.92 387.904V387.776C380.92 385.968 381.752 384.976 383.176 384.976C384.584 384.976 385.432 385.888 385.432 387.728V387.856C385.432 389.728 384.44 390.624 383.096 390.624ZM392.469 392.16C394.613 392.16 395.813 391.184 395.813 389.488C395.813 387.712 394.645 387.232 392.677 386.928C391.349 386.704 390.949 386.464 390.949 385.856C390.949 385.264 391.445 384.864 392.277 384.864C393.173 384.864 393.605 385.216 393.765 385.984H395.557C395.349 384.096 393.989 383.456 392.277 383.456C390.709 383.456 389.141 384.288 389.141 385.968C389.141 387.536 389.957 388.16 392.165 388.512C393.397 388.72 393.957 388.976 393.957 389.664C393.957 390.368 393.493 390.736 392.453 390.736C391.317 390.736 390.885 390.24 390.789 389.392H388.965C389.045 391.168 390.309 392.16 392.469 392.16Z" fill="#151E28"/>
</g>
<g filter="url(#filter4_d_6515_59230)">
<rect x="448.5" y="363" width="115" height="48" rx="24" fill="white" fill-opacity="0.95" shape-rendering="crispEdges"/>
<g clip-path="url(#clip5_6515_59230)">
<path d="M480.5 399C487.127 399 492.5 393.627 492.5 387C492.5 380.373 487.127 375 480.5 375C473.873 375 468.5 380.373 468.5 387C468.5 393.627 473.873 399 480.5 399Z" fill="#38B1A7"/>
<path fill-rule="evenodd" clip-rule="evenodd" d="M482.801 383.702C482.25 383.187 481.974 382.879 481.972 382.778C481.969 382.582 482.125 382.42 482.322 382.417L484.815 382.372C485.012 382.368 485.174 382.525 485.177 382.722L485.218 385.215C485.221 385.412 485.064 385.574 484.868 385.577C484.74 385.579 484.257 385.145 483.419 384.273C483.396 384.328 483.361 384.379 483.315 384.422L482.647 385.057C482.468 385.227 482.185 385.219 482.015 385.04C481.845 384.861 481.853 384.578 482.032 384.408L482.7 383.774C482.731 383.745 482.765 383.721 482.801 383.702ZM490.263 382.776C490.26 382.579 490.098 382.422 489.901 382.426L487.408 382.471C487.211 382.474 487.055 382.636 487.058 382.832C487.06 382.937 487.357 383.264 487.95 383.815L480.99 390.404L476.861 384.045C476.597 383.832 476.317 383.832 476.022 384.045C475.726 384.258 475.642 384.531 475.769 384.864L477.928 388.305L476.689 389.482C476.51 389.652 476.502 389.935 476.672 390.114C476.842 390.293 477.125 390.301 477.304 390.131L478.413 389.078L480.037 391.668H475.686L475.969 391.399C476.148 391.229 476.155 390.946 475.985 390.767C475.815 390.588 475.532 390.581 475.353 390.751L475.092 390.998L474.816 390.531C474.691 390.318 474.417 390.247 474.204 390.373C473.991 390.498 473.921 390.772 474.046 390.985L474.449 391.668H473.441C473.165 391.668 472.941 391.891 472.941 392.168C472.941 392.444 473.165 392.668 473.441 392.668H487.559C487.835 392.668 488.059 392.444 488.059 392.168C488.059 391.891 487.835 391.668 487.559 391.668H481.613L488.973 384.805C489.525 385.358 489.852 385.633 489.954 385.631C490.15 385.628 490.307 385.466 490.303 385.269L490.263 382.776ZM470.273 383.713C470.485 383.588 470.759 383.658 470.885 383.871L471.446 384.822C471.572 385.035 471.501 385.309 471.289 385.435C471.076 385.56 470.802 385.49 470.677 385.277L470.115 384.326C469.989 384.113 470.06 383.839 470.273 383.713ZM481.328 385.693C481.498 385.872 481.491 386.155 481.312 386.325L479.976 387.594C479.797 387.764 479.514 387.756 479.344 387.577C479.174 387.398 479.181 387.115 479.36 386.945L480.696 385.677C480.875 385.507 481.158 385.514 481.328 385.693ZM471.958 386.567C472.17 386.442 472.444 386.512 472.57 386.725L473.693 388.628C473.819 388.84 473.748 389.115 473.535 389.24C473.323 389.366 473.049 389.295 472.923 389.082L471.8 387.18C471.674 386.967 471.745 386.693 471.958 386.567Z" fill="white"/>
</g>
<path d="M506.054 392H513.478V390.32H508.182V386.976H512.214V385.376H508.182V382.24H513.206V380.56H506.054V392ZM517.686 392H519.83V382.24H523.014V380.56H514.502V382.24H517.686V392ZM524.726 392H526.854V387.312H530.758V385.664H526.854V382.256H531.814V380.56H524.726V392ZM534.208 384.576L536.192 381.056L534.448 380.368L533.072 384.064L534.208 384.576ZM539.368 392.16C541.512 392.16 542.712 391.184 542.712 389.488C542.712 387.712 541.544 387.232 539.576 386.928C538.248 386.704 537.848 386.464 537.848 385.856C537.848 385.264 538.344 384.864 539.176 384.864C540.072 384.864 540.504 385.216 540.664 385.984H542.456C542.248 384.096 540.888 383.456 539.176 383.456C537.608 383.456 536.04 384.288 536.04 385.968C536.04 387.536 536.856 388.16 539.064 388.512C540.296 388.72 540.856 388.976 540.856 389.664C540.856 390.368 540.392 390.736 539.352 390.736C538.216 390.736 537.784 390.24 537.688 389.392H535.864C535.944 391.168 537.208 392.16 539.368 392.16Z" fill="#151E28"/>
</g>
<path opacity="0.5" d="M212.934 217H214.198L216.87 207.96L219.462 217H220.742L223.718 205.56H222.422L220.07 214.824L217.382 205.56H216.39L213.702 214.792L211.382 205.56H209.958L212.934 217ZM225.478 217H226.806V208.632H225.478V217ZM226.118 206.888C226.598 206.888 226.998 206.488 226.998 206.008C226.998 205.528 226.598 205.128 226.118 205.128C225.638 205.128 225.238 205.528 225.238 206.008C225.238 206.488 225.638 206.888 226.118 206.888ZM232.068 217.112C232.612 217.112 232.932 217.032 233.204 216.936V215.816C232.916 215.928 232.596 215.992 232.18 215.992C231.508 215.992 231.14 215.592 231.14 214.776V209.752H233.092V208.632H231.14V206.728H229.812V208.632H228.612V209.752H229.812V214.904C229.812 216.216 230.548 217.112 232.068 217.112ZM235.211 217H236.539V211.928C236.539 210.424 237.643 209.64 238.875 209.64C240.219 209.64 240.843 210.296 240.843 211.768V217H242.171V211.864C242.171 209.432 240.955 208.488 239.227 208.488C237.851 208.488 236.923 209.176 236.539 209.96V204.632H235.211V217ZM251.104 217.144C252.336 217.144 253.088 216.728 253.712 215.944V217H255.04V211.48C255.04 209.144 253.584 208.488 251.984 208.488C250.368 208.488 248.848 209.192 248.672 211.096H250C250.128 210.072 250.768 209.592 251.92 209.592C253.2 209.592 253.712 210.152 253.712 211.48V212.088H252.512C250.368 212.088 248.32 212.744 248.32 214.68C248.32 216.392 249.552 217.144 251.104 217.144ZM251.232 216.088C250.064 216.088 249.648 215.544 249.648 214.68C249.648 213.448 250.88 213.032 252.56 213.032H253.712V214.072C253.712 215.368 252.64 216.088 251.232 216.088ZM257.681 217H259.025V204.632H257.681V217ZM261.774 217H263.118V204.632H261.774V217ZM272.615 217.112C273.159 217.112 273.479 217.032 273.751 216.936V215.816C273.463 215.928 273.143 215.992 272.727 215.992C272.055 215.992 271.687 215.592 271.687 214.776V209.752H273.639V208.632H271.687V206.728H270.359V208.632H269.159V209.752H270.359V214.904C270.359 216.216 271.095 217.112 272.615 217.112ZM275.758 217H277.086V211.928C277.086 210.424 278.19 209.64 279.422 209.64C280.766 209.64 281.39 210.296 281.39 211.768V217H282.718V211.864C282.718 209.432 281.502 208.488 279.774 208.488C278.398 208.488 277.47 209.176 277.086 209.96V204.632H275.758V217ZM288.745 217.144C290.633 217.144 292.025 216.264 292.313 214.584H290.985C290.809 215.56 290.057 216.04 288.761 216.04C287.049 216.04 286.137 214.984 286.073 213.08H292.377V212.648C292.377 209.656 290.553 208.488 288.617 208.488C286.313 208.488 284.697 210.248 284.697 212.776V212.904C284.697 215.48 286.377 217.144 288.745 217.144ZM286.121 212.008C286.345 210.52 287.257 209.592 288.617 209.592C289.993 209.592 290.889 210.28 291.017 212.008H286.121ZM302.809 217.144C305.113 217.144 306.617 215.384 306.617 212.824V212.696C306.617 210.088 305.001 208.488 302.809 208.488C301.593 208.488 300.457 209.224 299.977 210.04V204.632H298.649V217H299.977V215.624C300.457 216.456 301.449 217.144 302.809 217.144ZM302.681 216.04C301.049 216.04 299.929 215.032 299.929 212.888V212.76C299.929 210.616 301.113 209.592 302.665 209.592C304.073 209.592 305.241 210.648 305.241 212.76V212.888C305.241 214.92 304.345 216.04 302.681 216.04ZM312.104 217.144C313.992 217.144 315.384 216.264 315.672 214.584H314.344C314.168 215.56 313.416 216.04 312.12 216.04C310.408 216.04 309.496 214.984 309.432 213.08H315.736V212.648C315.736 209.656 313.912 208.488 311.976 208.488C309.672 208.488 308.056 210.248 308.056 212.776V212.904C308.056 215.48 309.736 217.144 312.104 217.144ZM309.48 212.008C309.704 210.52 310.616 209.592 311.976 209.592C313.352 209.592 314.248 210.28 314.376 212.008H309.48ZM317.806 217H319.15V204.632H317.806V217ZM321.899 217H323.243V204.632H321.899V217ZM328.553 217.144C330.585 217.144 331.625 216.12 331.625 214.6C331.625 212.824 330.409 212.44 328.681 212.12C327.145 211.848 326.729 211.544 326.729 210.792C326.729 210.072 327.353 209.592 328.313 209.592C329.369 209.592 329.881 209.992 330.073 210.904H331.353C331.129 209.096 329.833 208.488 328.329 208.488C327.017 208.488 325.497 209.288 325.497 210.84C325.497 212.296 326.233 212.904 328.409 213.304C329.705 213.544 330.361 213.832 330.361 214.712C330.361 215.608 329.801 216.04 328.537 216.04C327.193 216.04 326.665 215.416 326.569 214.424H325.273C325.353 216.136 326.553 217.144 328.553 217.144ZM333.265 213.224H336.689V211.976H333.265V213.224ZM341.088 217.144C342.32 217.144 343.072 216.728 343.696 215.944V217H345.024V211.48C345.024 209.144 343.568 208.488 341.968 208.488C340.352 208.488 338.832 209.192 338.656 211.096H339.984C340.112 210.072 340.752 209.592 341.904 209.592C343.184 209.592 343.696 210.152 343.696 211.48V212.088H342.496C340.352 212.088 338.304 212.744 338.304 214.68C338.304 216.392 339.536 217.144 341.088 217.144ZM341.216 216.088C340.048 216.088 339.632 215.544 339.632 214.68C339.632 213.448 340.864 213.032 342.544 213.032H343.696V214.072C343.696 215.368 342.624 216.088 341.216 216.088ZM347.633 217H348.961V211.928C348.961 210.424 350.065 209.64 351.297 209.64C352.641 209.64 353.265 210.296 353.265 211.768V217H354.593V211.864C354.593 209.432 353.377 208.488 351.649 208.488C350.273 208.488 349.345 209.176 348.961 209.96V208.632H347.633V217ZM360.348 217.144C361.564 217.144 362.732 216.376 363.212 215.56V217H364.54V204.632H363.212V209.976C362.732 209.16 361.868 208.488 360.476 208.488C358.172 208.488 356.572 210.296 356.572 212.856V212.984C356.572 215.592 358.156 217.144 360.348 217.144ZM360.492 216.04C359.084 216.04 357.948 215.032 357.948 212.92V212.792C357.948 210.76 358.94 209.592 360.604 209.592C362.236 209.592 363.26 210.6 363.26 212.744V212.872C363.26 215.016 362.044 216.04 360.492 216.04ZM366.843 213.224H370.267V211.976H366.843V213.224ZM373.938 217H375.394L377.346 210.728L379.09 217H380.562L383.17 208.632H381.81L379.842 215.368L377.938 208.632H376.786L374.754 215.368L372.802 208.632H371.362L373.938 217ZM384.961 217H386.289V211.928C386.289 210.424 387.393 209.64 388.625 209.64C389.969 209.64 390.593 210.296 390.593 211.768V217H391.921V211.864C391.921 209.432 390.705 208.488 388.977 208.488C387.601 208.488 386.673 209.176 386.289 209.96V204.632H384.961V217ZM394.556 217H395.884V208.632H394.556V217ZM395.196 206.888C395.676 206.888 396.076 206.488 396.076 206.008C396.076 205.528 395.676 205.128 395.196 205.128C394.716 205.128 394.316 205.528 394.316 206.008C394.316 206.488 394.716 206.888 395.196 206.888ZM401.194 217.144C403.226 217.144 404.266 216.12 404.266 214.6C404.266 212.824 403.05 212.44 401.322 212.12C399.786 211.848 399.37 211.544 399.37 210.792C399.37 210.072 399.994 209.592 400.954 209.592C402.01 209.592 402.522 209.992 402.714 210.904H403.994C403.77 209.096 402.474 208.488 400.97 208.488C399.658 208.488 398.138 209.288 398.138 210.84C398.138 212.296 398.874 212.904 401.05 213.304C402.346 213.544 403.002 213.832 403.002 214.712C403.002 215.608 402.442 216.04 401.178 216.04C399.834 216.04 399.306 215.416 399.21 214.424H397.914C397.994 216.136 399.194 217.144 401.194 217.144ZM408.833 217.112C409.377 217.112 409.697 217.032 409.969 216.936V215.816C409.681 215.928 409.361 215.992 408.945 215.992C408.273 215.992 407.905 215.592 407.905 214.776V209.752H409.857V208.632H407.905V206.728H406.577V208.632H405.377V209.752H406.577V214.904C406.577 216.216 407.313 217.112 408.833 217.112ZM412.009 217H413.353V204.632H412.009V217ZM419.495 217.144C421.383 217.144 422.775 216.264 423.063 214.584H421.735C421.559 215.56 420.807 216.04 419.511 216.04C417.799 216.04 416.887 214.984 416.823 213.08H423.127V212.648C423.127 209.656 421.303 208.488 419.367 208.488C417.063 208.488 415.447 210.248 415.447 212.776V212.904C415.447 215.48 417.127 217.144 419.495 217.144ZM416.871 212.008C417.095 210.52 418.007 209.592 419.367 209.592C420.743 209.592 421.639 210.28 421.767 212.008H416.871ZM427.834 217.144C429.866 217.144 430.906 216.12 430.906 214.6C430.906 212.824 429.69 212.44 427.962 212.12C426.426 211.848 426.01 211.544 426.01 210.792C426.01 210.072 426.634 209.592 427.594 209.592C428.65 209.592 429.162 209.992 429.354 210.904H430.634C430.41 209.096 429.114 208.488 427.61 208.488C426.298 208.488 424.778 209.288 424.778 210.84C424.778 212.296 425.514 212.904 427.69 213.304C428.986 213.544 429.642 213.832 429.642 214.712C429.642 215.608 429.082 216.04 427.818 216.04C426.474 216.04 425.946 215.416 425.85 214.424H424.554C424.634 216.136 425.834 217.144 427.834 217.144Z" fill="white"/>
</g>
<defs>
<filter id="filter0_d_6515_59230" x="115" y="278" width="190" height="110" filterUnits="userSpaceOnUse" color-interpolation-filters="sRGB">
<feFlood flood-opacity="0" result="BackgroundImageFix"/>
<feColorMatrix in="SourceAlpha" type="matrix" values="0 0 0 0 0 0 0 0 0 0 0 0 0 0 0 0 0 0 127 0" result="hardAlpha"/>
<feOffset dy="18"/>
<feGaussianBlur stdDeviation="15.5"/>
<feComposite in2="hardAlpha" operator="out"/>
<feColorMatrix type="matrix" values="0 0 0 0 0.110556 0 0 0 0 0.105625 0 0 0 0 0.15 0 0 0 0.2 0"/>
<feBlend mode="normal" in2="BackgroundImageFix" result="effect1_dropShadow_6515_59230"/>
<feBlend mode="normal" in="SourceGraphic" in2="effect1_dropShadow_6515_59230" result="shape"/>
</filter>
<filter id="filter1_d_6515_59230" x="267" y="278" width="258" height="110" filterUnits="userSpaceOnUse" color-interpolation-filters="sRGB">
<feFlood flood-opacity="0" result="BackgroundImageFix"/>
<feColorMatrix in="SourceAlpha" type="matrix" values="0 0 0 0 0 0 0 0 0 0 0 0 0 0 0 0 0 0 127 0" result="hardAlpha"/>
<feOffset dy="18"/>
<feGaussianBlur stdDeviation="15.5"/>
<feComposite in2="hardAlpha" operator="out"/>
<feColorMatrix type="matrix" values="0 0 0 0 0.110556 0 0 0 0 0.105625 0 0 0 0 0.15 0 0 0 0.2 0"/>
<feBlend mode="normal" in2="BackgroundImageFix" result="effect1_dropShadow_6515_59230"/>
<feBlend mode="normal" in="SourceGraphic" in2="effect1_dropShadow_6515_59230" result="shape"/>
</filter>
<filter id="filter2_d_6515_59230" x="45.5" y="350" width="194" height="110" filterUnits="userSpaceOnUse" color-interpolation-filters="sRGB">
<feFlood flood-opacity="0" result="BackgroundImageFix"/>
<feColorMatrix in="SourceAlpha" type="matrix" values="0 0 0 0 0 0 0 0 0 0 0 0 0 0 0 0 0 0 127 0" result="hardAlpha"/>
<feOffset dy="18"/>
<feGaussianBlur stdDeviation="15.5"/>
<feComposite in2="hardAlpha" operator="out"/>
<feColorMatrix type="matrix" values="0 0 0 0 0.110556 0 0 0 0 0.105625 0 0 0 0 0.15 0 0 0 0.2 0"/>
<feBlend mode="normal" in2="BackgroundImageFix" result="effect1_dropShadow_6515_59230"/>
<feBlend mode="normal" in="SourceGraphic" in2="effect1_dropShadow_6515_59230" result="shape"/>
</filter>
<filter id="filter3_d_6515_59230" x="201.5" y="350" width="254" height="110" filterUnits="userSpaceOnUse" color-interpolation-filters="sRGB">
<feFlood flood-opacity="0" result="BackgroundImageFix"/>
<feColorMatrix in="SourceAlpha" type="matrix" values="0 0 0 0 0 0 0 0 0 0 0 0 0 0 0 0 0 0 127 0" result="hardAlpha"/>
<feOffset dy="18"/>
<feGaussianBlur stdDeviation="15.5"/>
<feComposite in2="hardAlpha" operator="out"/>
<feColorMatrix type="matrix" values="0 0 0 0 0.110556 0 0 0 0 0.105625 0 0 0 0 0.15 0 0 0 0.2 0"/>
<feBlend mode="normal" in2="BackgroundImageFix" result="effect1_dropShadow_6515_59230"/>
<feBlend mode="normal" in="SourceGraphic" in2="effect1_dropShadow_6515_59230" result="shape"/>
</filter>
<filter id="filter4_d_6515_59230" x="417.5" y="350" width="177" height="110" filterUnits="userSpaceOnUse" color-interpolation-filters="sRGB">
<feFlood flood-opacity="0" result="BackgroundImageFix"/>
<feColorMatrix in="SourceAlpha" type="matrix" values="0 0 0 0 0 0 0 0 0 0 0 0 0 0 0 0 0 0 127 0" result="hardAlpha"/>
<feOffset dy="18"/>
<feGaussianBlur stdDeviation="15.5"/>
<feComposite in2="hardAlpha" operator="out"/>
<feColorMatrix type="matrix" values="0 0 0 0 0.110556 0 0 0 0 0.105625 0 0 0 0 0.15 0 0 0 0.2 0"/>
<feBlend mode="normal" in2="BackgroundImageFix" result="effect1_dropShadow_6515_59230"/>
<feBlend mode="normal" in="SourceGraphic" in2="effect1_dropShadow_6515_59230" result="shape"/>
</filter>
<linearGradient id="paint0_linear_6515_59230" x1="178" y1="298.802" x2="178" y2="321.499" gradientUnits="userSpaceOnUse">
<stop stop-color="#FABC72"/>
<stop offset="1" stop-color="#ED9934"/>
</linearGradient>
<clipPath id="clip0_6515_59230">
<rect width="640" height="558" fill="white"/>
</clipPath>
<clipPath id="clip1_6515_59230">
<rect width="24" height="24" fill="white" transform="translate(166 303)"/>
</clipPath>
<clipPath id="clip2_6515_59230">
<rect width="24" height="24" fill="white" transform="translate(318 303)"/>
</clipPath>
<clipPath id="clip3_6515_59230">
<rect width="24" height="24" fill="white" transform="translate(96.5 375)"/>
</clipPath>
<clipPath id="clip4_6515_59230">
<rect width="24" height="24" fill="white" transform="translate(260.5 375)"/>
</clipPath>
<clipPath id="clip5_6515_59230">
<rect width="24" height="24" fill="white" transform="translate(468.5 375)"/>
</clipPath>
</defs>
</svg>
