<svg width="51" height="59" viewBox="0 0 51 59" fill="none" xmlns="http://www.w3.org/2000/svg">
<path d="M44.9113 20.2192V20.2728C44.9113 23.2232 43.9725 26.0932 42.3096 28.534C41.116 30.2774 37.4548 35.4406 37.4548 35.4406C35.0811 39.3298 34.0216 41.7706 34.5312 45.2977V52.7006C34.5312 53.8539 33.6059 54.7793 32.4525 54.7793C27.7989 55.6107 23.2526 55.7448 18.9074 54.7793C17.7541 54.7793 16.8287 53.8539 16.8287 52.7006V45.2977C16.8287 41.1001 16.6812 39.4371 13.3285 34.8505C13.3285 34.8505 9.68067 29.5532 8.67485 27.9305C7.29352 25.6908 6.50227 23.1428 6.46204 20.5142C6.46204 20.3533 6.46204 20.1923 6.46204 20.0314C6.55591 9.57085 15.434 0.880544 25.908 1.00124C36.4222 1.12194 44.9113 9.67814 44.9113 20.2192Z" fill="#DD602E"/>
<path d="M22.9307 54.7658C24.3925 55.1011 25.8811 55.3023 27.3832 55.3693C24.4998 55.5437 21.6701 55.3693 18.9208 54.7658C17.7675 54.7658 16.8287 53.8405 16.8287 52.7006V45.2977C16.8287 41.1135 16.6946 39.4505 13.3419 34.864C13.3419 34.864 9.69408 29.5532 8.68826 27.9305C7.32034 25.7043 6.50227 23.1428 6.48886 20.5276C6.46204 20.3533 6.46204 20.1923 6.46204 20.0314C6.56932 9.57085 15.434 0.880544 25.9214 1.00124C26.5249 1.00124 27.1149 1.04147 27.7184 1.09512C18.2235 2.12776 10.5792 10.3219 10.4585 20.0448C10.4585 20.2058 10.4585 20.3533 10.4853 20.541C10.5122 23.1562 11.3168 25.7177 12.6847 27.9439C13.6906 29.5666 17.3383 34.8774 17.3383 34.8774C20.6911 39.4639 20.8252 41.1269 20.8252 45.3111V52.714C20.8252 53.8673 21.764 54.7793 22.9173 54.7793L22.9307 54.7658Z" fill="#D85A2E" stroke="#231F20" stroke-width="0.11" stroke-miterlimit="10"/>
<path d="M44.9246 20.2328V20.273C44.9246 23.2234 43.9859 26.1068 42.3095 28.5342C41.1427 30.291 37.4681 35.4408 37.4681 35.4408C35.081 39.33 34.0215 41.7574 34.5445 45.2979V52.7008C34.5445 53.8541 33.6192 54.766 32.4792 54.766C30.7626 55.0611 29.0863 55.2891 27.3965 55.3695C25.8944 55.3025 24.4058 55.1013 22.944 54.766C21.7907 54.766 20.8519 53.8407 20.8519 52.7008V45.2979C20.8519 41.1137 20.7178 39.4507 17.3651 34.8642C17.3651 34.8642 13.7173 29.5534 12.7115 27.9307C11.3435 25.7045 10.5255 23.143 10.5121 20.5278C10.4852 20.3535 10.4852 20.1925 10.4852 20.0316C10.5925 10.3087 18.2502 2.12797 27.7452 1.08191C37.4011 2.11455 44.938 10.2818 44.938 20.2328H44.9246Z" fill="#F78F49" stroke="#231F20" stroke-width="0.11" stroke-miterlimit="10"/>
<path d="M24.5669 48.4628L25.0363 24.8863M25.0363 24.8863L24.9424 22.2175C24.8888 20.9166 23.2393 20.2327 21.8982 20.9971C21.8445 21.0239 21.7909 21.0507 21.7506 21.091C20.3693 22.0029 20.6241 23.7598 22.1396 24.1487L25.0363 24.8863ZM25.0363 24.8863L31.9832 24.323L32.0637 21.6408C32.1039 20.2059 34.196 19.2671 35.3494 20.1924C35.3494 20.1924 35.3762 20.2058 35.3896 20.2193C36.2211 20.9166 35.926 22.2041 34.8129 22.7942L31.9832 24.3096L32.2514 47.6447" stroke="white" stroke-width="0.75" stroke-linecap="round" stroke-linejoin="round"/>
<path d="M15.7693 46.1696V53.3176C15.7693 54.6989 16.4801 55.4499 18.1028 55.8255C19.9803 56.2814 21.8847 56.5228 23.8293 56.6033C23.9366 57.6359 24.7144 58.454 25.7068 58.454C26.6992 58.454 27.5039 57.6225 27.5844 56.5631C29.4619 56.4424 31.3797 56.1876 33.2974 55.8255C34.5849 55.8255 35.6309 54.6989 35.6309 53.3176V46.1696H15.7827H15.7693Z" fill="#85A2B7" stroke="#231F20" stroke-width="0.11" stroke-miterlimit="10"/>
<path d="M35.9393 48.4225H15.4474C15.0548 48.4225 14.7366 48.7407 14.7366 49.1333V49.1735C14.7366 49.5661 15.0548 49.8843 15.4474 49.8843H35.9393C36.3319 49.8843 36.6501 49.5661 36.6501 49.1735V49.1333C36.6501 48.7407 36.3319 48.4225 35.9393 48.4225Z" fill="#E0E0E0" stroke="#231F20" stroke-width="0.11" stroke-miterlimit="10"/>
<path d="M35.9393 51.4131H15.4474C15.0548 51.4131 14.7366 51.7313 14.7366 52.1239V52.1641C14.7366 52.5567 15.0548 52.8749 15.4474 52.8749H35.9393C36.3319 52.8749 36.6501 52.5567 36.6501 52.1641V52.1239C36.6501 51.7313 36.3319 51.4131 35.9393 51.4131Z" fill="#E0E0E0" stroke="#231F20" stroke-width="0.11" stroke-miterlimit="10"/>
<g style="mix-blend-mode:multiply" opacity="0.75">
<path d="M21.2141 46.1696H15.7692V48.4226H15.4474C15.0584 48.4226 14.7366 48.7445 14.7366 49.1334V49.187C14.7366 49.5759 15.0584 49.8978 15.4474 49.8978H15.7692V51.4267H15.4474C15.0584 51.4267 14.7366 51.7485 14.7366 52.1374V52.1911C14.7366 52.58 15.0584 52.9019 15.4474 52.9019H15.7692C15.7692 55.1683 16.8555 55.4768 16.8555 55.4768C19.7925 56.5631 23.7756 56.6435 23.7756 56.6435C23.8292 57.3141 24.1511 57.6493 24.1511 57.6493C25.3715 59.1648 26.7662 58.1456 26.7662 58.1456C24.7814 57.408 25.4788 55.4902 25.4788 55.4902C20.7581 54.6185 21.2275 53.5456 21.2275 53.5456V46.1964L21.2141 46.1696Z" fill="#85A2B7"/>
</g>
<path d="M21.2141 46.1696H15.7692V48.4226H15.4474C15.0584 48.4226 14.7366 48.7445 14.7366 49.1334V49.187C14.7366 49.5759 15.0584 49.8978 15.4474 49.8978H15.7692V51.4267H15.4474C15.0584 51.4267 14.7366 51.7485 14.7366 52.1374V52.1911C14.7366 52.58 15.0584 52.9019 15.4474 52.9019H15.7692C15.7692 55.1683 16.8555 55.4768 16.8555 55.4768C19.7925 56.5631 23.7756 56.6435 23.7756 56.6435C23.8292 57.3141 24.1511 57.6493 24.1511 57.6493C25.3715 59.1648 26.7662 58.1456 26.7662 58.1456C24.7814 57.408 25.4788 55.4902 25.4788 55.4902C20.7581 54.6185 21.2275 53.5456 21.2275 53.5456V46.1964L21.2141 46.1696Z" stroke="#231F20" stroke-width="0.11" stroke-miterlimit="10"/>
<path d="M35.9393 48.4225H15.4474C15.0548 48.4225 14.7366 48.7407 14.7366 49.1333V49.1735C14.7366 49.5661 15.0548 49.8843 15.4474 49.8843H35.9393C36.3319 49.8843 36.6501 49.5661 36.6501 49.1735V49.1333C36.6501 48.7407 36.3319 48.4225 35.9393 48.4225Z" stroke="#231F20" stroke-width="0.11" stroke-miterlimit="10"/>
<path d="M35.9393 51.4131H15.4474C15.0548 51.4131 14.7366 51.7313 14.7366 52.1239V52.1641C14.7366 52.5567 15.0548 52.8749 15.4474 52.8749H35.9393C36.3319 52.8749 36.6501 52.5567 36.6501 52.1641V52.1239C36.6501 51.7313 36.3319 51.4131 35.9393 51.4131Z" stroke="#231F20" stroke-width="0.11" stroke-miterlimit="10"/>
<path d="M40.6198 5.73542L42.5509 1.88647" stroke="#121D29" stroke-width="0.11" stroke-linecap="round" stroke-linejoin="round"/>
<path d="M4.91968 37.0904L8.01762 34.0863" stroke="#121D29" stroke-width="0.11" stroke-linecap="round" stroke-linejoin="round"/>
<path d="M0.333252 33.2816L4.00786 31.0286" stroke="#121D29" stroke-width="0.11" stroke-linecap="round" stroke-linejoin="round"/>
<path d="M43.2216 9.43687L50.8256 4.43457" stroke="#121D29" stroke-width="0.11" stroke-linecap="round" stroke-linejoin="round"/>
<path d="M37.9107 9.65133C39.6676 11.7032 40.2979 14.0367 39.3323 14.8548C39.3323 14.8548 38.5544 12.6554 36.7976 10.5901C35.0408 8.53821 32.9889 7.41169 32.9889 7.41169C33.9545 6.59362 36.1539 7.58603 37.9107 9.63791V9.65133Z" fill="white" stroke="#121D29" stroke-width="0.12" stroke-linecap="round" stroke-linejoin="round"/>
</svg>
