<svg width="38" height="55" viewBox="0 0 38 55" fill="none" xmlns="http://www.w3.org/2000/svg">
<path d="M31.9596 3.62905C32.201 2.91827 32.4424 2.20749 32.6838 1.4967C32.885 2.18066 33.0995 2.86463 33.3007 3.54859C33.6896 3.8034 34.0785 4.04479 34.4674 4.2996C34.1322 4.541 33.7835 4.7824 33.4348 5.0238C33.1666 5.74799 32.9118 6.47219 32.6436 7.18297C32.429 6.44536 32.2144 5.69435 31.9864 4.95674C31.5573 4.75558 31.1147 4.541 30.6855 4.33983C31.1147 4.09844 31.5304 3.85704 31.9596 3.61564V3.62905Z" fill="white" stroke="#121D29" stroke-width="0.11" stroke-linecap="round" stroke-linejoin="round"/>
<path d="M11.2666 1.49673C9.53655 2.18069 8.1418 3.50838 7.08234 5.46638C6.07651 7.35733 5.43278 9.73108 5.17797 12.534C4.92316 15.3369 5.0841 18.4348 5.63395 21.7205C6.21062 25.1269 7.18962 28.6138 8.54413 32.047C9.89865 35.4936 11.5616 38.6988 13.466 41.5822C15.1155 44.0766 16.8858 46.2358 18.7365 48.0195C18.8974 48.167 19.0449 48.3145 19.1925 48.4486C19.2595 48.5023 19.3132 48.5693 19.3802 48.623C21.4723 50.5005 23.5644 51.8148 25.5895 52.4987C27.6816 53.2095 29.6262 53.2229 31.3562 52.539C33.0863 51.855 34.481 50.5273 35.5405 48.5827C36.5463 46.6918 37.19 44.318 37.4448 41.5151C37.6996 38.7122 37.5387 35.6277 36.9889 32.3286C36.4122 28.9222 35.4332 25.4488 34.0787 22.0021C32.7242 18.5555 31.0746 15.3503 29.1568 12.4669C27.3195 9.67744 25.3213 7.3171 23.2292 5.42615C23.1755 5.37251 23.1085 5.31887 23.0414 5.26522C22.9073 5.14452 22.7732 5.03723 22.6525 4.91653C20.7481 3.30721 18.8706 2.18069 17.0199 1.55038C14.9278 0.839594 12.9832 0.826182 11.2666 1.49673Z" fill="#FACE52"/>
<path d="M14.3378 9.31501C9.4562 11.2462 8.61131 20.7546 12.4469 30.5178C13.9891 34.4204 16.041 37.7866 18.2806 40.2944C21.62 44.0495 25.3482 45.8868 28.2852 44.7335C33.1668 42.8023 34.0117 33.3073 30.1628 23.5441C27.8561 17.6835 24.3692 13.0433 20.9092 10.6829C18.5891 9.11384 16.2958 8.55059 14.3378 9.31501Z" fill="#FACE52" stroke="#121D29" stroke-width="0.11" stroke-linecap="round" stroke-linejoin="round"/>
<path d="M17.9052 21.2642L17.0334 21.6129C17.8783 21.2776 18.6159 21.5458 19.2194 22.431L20.0912 22.0823C19.4877 21.2106 18.7501 20.9424 17.9052 21.2642Z" fill="#F9A11B" stroke="#121D29" stroke-width="0.11" stroke-linecap="round" stroke-linejoin="round"/>
<path d="M21.003 24.1611L20.1313 24.5098C20.5068 25.9716 20.1313 26.9908 19.0852 27.4066L19.273 27.3261L19.9435 27.0579C21.003 26.6422 21.3651 25.6229 20.9896 24.1611H21.003Z" fill="#F9A11B" stroke="#121D29" stroke-width="0.11" stroke-linecap="round" stroke-linejoin="round"/>
<path d="M19.2864 27.3397L19.0987 27.4202L18.4281 27.6884C18.3209 27.7286 18.3074 27.9566 18.3879 28.1712L19.0316 29.8073C19.0719 29.9012 19.1255 30.0085 19.1926 30.0621C21.3517 32.1945 23.1354 34.1123 25.08 36.2044C25.1605 36.2982 25.2275 36.3251 25.2946 36.2982L26.1663 35.9496C26.1663 35.9496 26.0322 35.9496 25.9651 35.8423C24.0205 33.7502 22.2369 31.8324 20.0777 29.7C20.0106 29.633 19.957 29.5391 19.9168 29.4452L19.273 27.8091C19.1926 27.5945 19.1926 27.3665 19.3133 27.3263L19.2864 27.3397Z" fill="#F9A11B" stroke="#121D29" stroke-width="0.11" stroke-linecap="round" stroke-linejoin="round"/>
<path d="M17.5965 23.0614L16.7248 23.4101C16.6175 23.4503 16.6041 23.6649 16.6845 23.8929L17.1942 25.2072C17.288 25.4351 17.4356 25.5827 17.5428 25.5424L18.4146 25.1937C18.3073 25.234 18.1597 25.0865 18.0659 24.8585L17.5563 23.5442C17.4624 23.3162 17.4758 23.1016 17.5965 23.0614Z" fill="#F9A11B" stroke="#121D29" stroke-width="0.11" stroke-linecap="round" stroke-linejoin="round"/>
<path d="M16.0409 19.0784L15.1692 19.4271C15.0619 19.4673 15.0485 19.6819 15.1424 19.9098L15.8129 21.613C15.8934 21.8276 16.0543 21.9886 16.1616 21.9483L17.0333 21.5996C16.926 21.6399 16.7651 21.4789 16.6846 21.2644L16.0141 19.5612C15.9202 19.3332 15.9336 19.1186 16.0409 19.0784Z" fill="#F9A11B" stroke="#121D29" stroke-width="0.11" stroke-linecap="round" stroke-linejoin="round"/>
<path d="M21.0431 17.1069L16.0273 19.0784C15.9201 19.1186 15.9066 19.3332 16.0005 19.5612L16.6711 21.2644C16.7515 21.4789 16.9125 21.6399 17.0198 21.5996L17.8915 21.2509C18.7364 20.9157 19.474 21.1839 20.0775 22.069L19.2058 22.4177L17.583 23.048C17.4757 23.0883 17.4623 23.3028 17.5428 23.5308L18.0524 24.8451C18.1463 25.0731 18.2938 25.2206 18.4011 25.1804L20.976 24.1745C21.3515 25.6363 20.976 26.6556 19.9299 27.0713L19.2594 27.3395C19.1521 27.3798 19.1387 27.6078 19.2192 27.8223L19.8629 29.4585C19.9031 29.5523 19.9568 29.6596 20.0238 29.7133C22.183 31.8456 23.9667 33.7634 25.9113 35.8555C25.9917 35.9494 26.0588 35.9762 26.1124 35.9628L27.2792 35.4934C27.3596 35.4666 27.3865 35.3459 27.3596 35.185C27.3328 35.024 27.2523 34.8497 27.1585 34.7558C25.3212 32.7442 23.39 30.6655 21.6868 28.9757C22.9206 28.0906 23.1754 26.146 22.3842 23.6113L23.39 23.2089C23.4973 23.1687 23.5107 22.9541 23.4302 22.7262L22.9206 21.4119C22.8267 21.1839 22.6792 21.0364 22.5719 21.0766L21.5393 21.4789C21.204 20.8084 20.8285 20.2451 20.4262 19.7891L21.8343 19.2393C21.9416 19.1991 21.955 18.9845 21.8611 18.7565L21.3515 17.4422C21.2576 17.2142 21.1101 17.0667 21.0028 17.1069H21.0431Z" fill="white" stroke="#121D29" stroke-width="0.11" stroke-linecap="round" stroke-linejoin="round"/>
<path d="M19.3938 48.623C18.9513 48.234 18.5221 47.8049 18.093 47.3757C17.3554 46.6247 16.6177 45.8066 15.907 44.9349C15.3303 44.2241 14.7536 43.4597 14.1904 42.6685C13.9355 42.3198 13.7076 41.9577 13.4662 41.5956C13.2114 41.2067 12.97 40.8178 12.7151 40.4154C12.2726 39.6912 11.83 38.9402 11.4143 38.1758C10.9985 37.4114 10.5962 36.6335 10.2073 35.8423C9.80496 35.0108 9.42945 34.1659 9.05394 33.2942C8.8796 32.8784 8.71867 32.4761 8.55774 32.0604C8.34316 31.5105 8.12859 30.9473 7.92742 30.3974C7.51168 29.2575 7.14958 28.1175 6.82772 26.9776C6.33151 25.2208 5.92919 23.4773 5.64756 21.7339C5.64756 21.7071 5.64756 21.6803 5.64756 21.6534C5.23181 19.1992 5.04406 16.8523 5.08429 14.6529C5.0977 13.9287 5.13794 13.2313 5.19158 12.5474C5.25864 11.7159 5.37933 10.9112 5.51344 10.1602C5.67437 9.28851 5.88895 8.47044 6.14376 7.70601C6.35834 7.06228 6.59974 6.45879 6.86796 5.89553C6.93501 5.748 7.01548 5.60048 7.08253 5.46637C7.2837 5.10428 7.48486 4.75559 7.69944 4.44714C7.99448 4.0314 8.28952 3.64248 8.62479 3.29379C8.96007 2.94511 9.30875 2.63665 9.68426 2.36843C10.0732 2.0868 10.4889 1.84541 10.9315 1.64424C11.0388 1.5906 11.1461 1.55036 11.2534 1.51013L6.84113 3.25356C6.73385 3.29379 6.62655 3.34744 6.51927 3.38767C6.0767 3.58884 5.67437 3.83023 5.27204 4.11187C4.89654 4.38009 4.54785 4.68854 4.21258 5.03722C3.8773 5.38591 3.56885 5.76142 3.28722 6.17716C3.07264 6.49902 2.85807 6.84771 2.67031 7.19639C2.60326 7.3305 2.52279 7.47802 2.45574 7.62555C2.17411 8.18881 1.94612 8.7923 1.73154 9.43603C1.47673 10.2005 1.26216 11.0185 1.10123 11.8902C0.953708 12.6413 0.846418 13.4325 0.779363 14.2774C0.712308 14.9614 0.685484 15.6721 0.672073 16.3829C0.63184 18.5823 0.819597 20.9293 1.23534 23.3835C1.23534 23.4103 1.23534 23.4371 1.23534 23.4639C1.53038 25.194 1.9193 26.9508 2.41551 28.7076C2.73737 29.8476 3.11288 30.9875 3.51521 32.1274C3.71637 32.6907 3.91753 33.2405 4.14552 33.7904C4.30645 34.2061 4.4808 34.6219 4.64173 35.0242C5.00383 35.8959 5.39275 36.7408 5.79508 37.5723C6.184 38.3635 6.57291 39.1414 7.00206 39.9058C7.43122 40.6702 7.86037 41.4213 8.30293 42.1454C8.54433 42.5344 8.79914 42.9367 9.05394 43.3256C9.29534 43.6877 9.53674 44.0498 9.77814 44.3985C10.3414 45.1897 10.9047 45.9408 11.4947 46.665C12.2055 47.5367 12.9297 48.3547 13.6807 49.1058C14.1099 49.5483 14.539 49.9641 14.9816 50.353C17.0737 52.2305 19.1658 53.5314 21.1909 54.2153C23.283 54.9261 25.2276 54.9395 26.9442 54.269L31.3564 52.5256C29.6264 53.2095 27.6952 53.1961 25.6031 52.4719C23.5781 51.788 21.4859 50.4871 19.3938 48.6095V48.623Z" fill="#F99B1C" stroke="#121D29" stroke-width="0.11" stroke-linecap="round" stroke-linejoin="round"/>
<path d="M11.2666 1.49664C12.9966 0.812681 14.9278 0.839504 17.0199 1.55029C19.0449 2.23425 21.1371 3.53511 23.2292 5.41265C25.3213 7.29019 27.3195 9.66394 29.1568 12.4534C31.0612 15.3368 32.7107 18.5554 34.0653 21.9886C35.4198 25.4353 36.3988 28.9087 36.9754 32.3151C37.5253 35.6142 37.6862 38.6987 37.4314 41.5016C37.1766 44.3045 36.5329 46.6783 35.5271 48.5692C34.481 50.5272 33.0728 51.8549 31.3562 52.5255C29.6262 53.2094 27.695 53.196 25.6029 52.4718C23.5779 51.7879 21.4857 50.487 19.3936 48.6095C17.3015 46.7319 15.3033 44.3582 13.466 41.5687C11.5616 38.6853 9.91206 35.4801 8.54413 32.0335C7.18962 28.6003 6.21062 25.1134 5.63395 21.707C5.0841 18.4079 4.92316 15.3234 5.17797 12.5205C5.43278 9.71758 6.0631 7.33042 7.08234 5.45289C8.12839 3.49488 9.53655 2.16719 11.2666 1.48323H11.2532L11.2666 1.49664Z" stroke="#121D29" stroke-width="0.11" stroke-linecap="round" stroke-linejoin="round"/>
<path d="M4.99037 41.2198C5.48658 39.7446 5.98278 38.2694 6.4924 36.7942C6.92155 38.2292 7.35071 39.6507 7.77986 41.0723C8.58452 41.5953 9.40259 42.1184 10.2072 42.6414C9.49646 43.1376 8.77227 43.6338 8.06149 44.1434C7.51164 45.6454 6.96179 47.1475 6.42535 48.6361C5.96937 47.0938 5.52681 45.5516 5.07084 43.9959C4.1723 43.5667 3.26035 43.1376 2.36182 42.7084C3.24694 42.2122 4.13207 41.716 5.00378 41.2064L4.99037 41.2198Z" fill="white" stroke="#121D29" stroke-width="0.11" stroke-linecap="round" stroke-linejoin="round"/>
</svg>
