<svg width="640" height="558" viewBox="0 0 640 558" fill="none" xmlns="http://www.w3.org/2000/svg">
<g clip-path="url(#clip0_6559_63406)">
<rect width="640" height="558" fill="#E2F5FF"/>
<path d="M168.878 87H174.198V75.28H183.958V71.16H174.198V62.64H186.598V58.4H168.878V87ZM190.151 87H194.991V66.08H190.151V87ZM192.511 62.64C194.111 62.64 195.391 61.44 195.391 59.88C195.391 58.28 194.111 57.08 192.511 57.08C190.911 57.08 189.631 58.28 189.631 59.88C189.631 61.44 190.911 62.64 192.511 62.64ZM200.49 87H205.33V74.68C205.33 71.36 207.53 69.68 210.25 69.68C213.13 69.68 214.41 71.12 214.41 74.28V87H219.25V73.84C219.25 68.08 216.29 65.64 212.09 65.64C208.65 65.64 206.33 67.36 205.33 69.4V66.08H200.49V87ZM232.266 87.4C235.346 87.4 238.026 85.56 239.146 83.48V87H243.986V56.4H239.146V69.28C237.986 67.2 235.866 65.64 232.466 65.64C227.026 65.64 223.066 69.88 223.066 76.56V76.88C223.066 83.68 227.026 87.4 232.266 87.4ZM233.466 83.56C230.346 83.56 228.026 81.36 228.026 76.76V76.44C228.026 71.92 230.106 69.44 233.666 69.44C237.186 69.44 239.306 71.72 239.306 76.32V76.64C239.306 81.32 236.826 83.56 233.466 83.56ZM265.59 87.36C267.07 87.36 268.11 87.12 268.87 86.84V83C268.19 83.28 267.47 83.4 266.51 83.4C264.99 83.4 264.11 82.56 264.11 80.72V69.72H268.71V66.08H264.11V61.48H259.27V66.08H256.47V69.72H259.27V81.16C259.27 85.12 261.43 87.36 265.59 87.36ZM272.835 87H277.675V74.68C277.675 71.36 279.875 69.68 282.595 69.68C285.475 69.68 286.755 71.12 286.755 74.28V87H291.595V73.84C291.595 68.08 288.635 65.64 284.435 65.64C280.995 65.64 278.675 67.36 277.675 69.4V56.4H272.835V87ZM305.971 87.4C311.331 87.4 314.891 85 315.571 80.6H310.891C310.531 82.64 309.011 83.8 306.091 83.8C302.491 83.8 300.491 81.56 300.331 77.6H315.651V76.2C315.651 68.72 310.971 65.64 305.771 65.64C299.811 65.64 295.371 69.96 295.371 76.44V76.76C295.371 83.36 299.811 87.4 305.971 87.4ZM300.411 74.36C300.891 71.12 302.851 69.16 305.771 69.16C308.771 69.16 310.611 70.76 310.851 74.36H300.411ZM333.026 87H337.986L342.226 72.92L346.106 87H351.026L357.586 66.08H352.866L348.506 81.2L344.426 66.08H340.386L335.946 81.2L331.786 66.08H326.626L333.026 87ZM361.004 87H365.844V66.08H361.004V87ZM363.364 62.64C364.964 62.64 366.244 61.44 366.244 59.88C366.244 58.28 364.964 57.08 363.364 57.08C361.764 57.08 360.484 58.28 360.484 59.88C360.484 61.44 361.764 62.64 363.364 62.64ZM371.343 87H376.183V74.68C376.183 71.36 378.383 69.68 381.103 69.68C383.983 69.68 385.263 71.12 385.263 74.28V87H390.103V73.84C390.103 68.08 387.143 65.64 382.943 65.64C379.503 65.64 377.183 67.36 376.183 69.4V66.08H371.343V87ZM395.279 87H400.119V74.68C400.119 71.36 402.319 69.68 405.039 69.68C407.919 69.68 409.199 71.12 409.199 74.28V87H414.039V73.84C414.039 68.08 411.079 65.64 406.879 65.64C403.439 65.64 401.119 67.36 400.119 69.4V66.08H395.279V87ZM428.415 87.4C433.775 87.4 437.335 85 438.015 80.6H433.335C432.975 82.64 431.455 83.8 428.535 83.8C424.935 83.8 422.935 81.56 422.775 77.6H438.095V76.2C438.095 68.72 433.415 65.64 428.215 65.64C422.255 65.64 417.815 69.96 417.815 76.44V76.76C417.815 83.36 422.255 87.4 428.415 87.4ZM422.855 74.36C423.335 71.12 425.295 69.16 428.215 69.16C431.215 69.16 433.055 70.76 433.295 74.36H422.855ZM442.018 87H446.858V76.12C446.858 71.68 449.418 70.32 453.658 70.28V65.76C450.138 65.8 448.178 67.36 446.858 70V66.08H442.018V87ZM464.677 87.4C470.037 87.4 473.037 84.96 473.037 80.72C473.037 76.28 470.117 75.08 465.197 74.32C461.877 73.76 460.877 73.16 460.877 71.64C460.877 70.16 462.117 69.16 464.197 69.16C466.437 69.16 467.517 70.04 467.917 71.96H472.397C471.877 67.24 468.477 65.64 464.197 65.64C460.277 65.64 456.357 67.72 456.357 71.92C456.357 75.84 458.397 77.4 463.917 78.28C466.997 78.8 468.397 79.44 468.397 81.16C468.397 82.92 467.237 83.84 464.637 83.84C461.797 83.84 460.717 82.6 460.477 80.48H455.917C456.117 84.92 459.277 87.4 464.677 87.4Z" fill="#151E28"/>
<g filter="url(#filter0_dd_6559_63406)">
<g clip-path="url(#clip1_6559_63406)">
<rect x="108" y="180" width="383" height="273" rx="24" fill="white"/>
<path d="M51.1093 326.404L49 321.997V479H390.708V403.18L388.599 406.428L386.49 404.15L384.381 402.619L382.271 406.54L380.162 420.282L378.053 412.814L375.943 408.968L373.834 403.18L371.725 396.831L369.615 392.873L367.506 395.412L365.397 413.262L363.287 425.51L361.178 431.485L359.069 430.178L356.96 429.132L354.85 425.51L352.741 421.067L350.632 427.153L348.522 425.734L346.413 426.22L344.304 425.398L342.194 423.456L340.085 425.1L337.976 426.033L335.866 423.793L333.757 420.133L331.648 415.316L329.538 417.892L327.429 418.49L325.32 417.295L323.211 414.98L321.101 416.735L318.992 404.375L316.883 400.043L314.773 400.342L312.664 399.856L310.555 398.512L308.445 387.571L306.336 385.33L304.227 381.26L302.117 381.67L300.008 373.492L297.899 363.261L295.789 359.937L293.68 365.539L291.571 363.783L289.462 365.875L287.352 383.5L285.243 384.845L283.134 384.06L281.024 379.393L278.915 374.949L276.806 375.434L274.696 380.401L272.587 375.546L270.478 366.621L268.368 379.355L266.259 381.148L264.15 383.201L262.04 372.41L259.931 365.016L257.822 358.107L255.713 350.415L253.603 342.984L251.494 321.549L249.385 314.753L247.275 326.367L245.166 319.496L243.057 328.943L240.947 323.678L238.838 325.956L236.729 318.786L234.619 316.956L232.51 317.516L230.401 320.018L228.292 314.081L226.182 307.695L224.073 304.633L221.964 294.177L219.854 287.456L217.745 290.63L215.636 302.505L213.526 305.492L211.417 301.16L209.308 312.662L207.198 340.333L205.089 337.943L202.98 340.445L200.87 339.324L198.761 333.051L196.652 330.25L194.543 326.964L192.433 324.723L190.324 324.537L188.215 321.885L186.105 326.553L183.996 328.084L181.887 324.425L179.777 324.723L177.668 325.545L175.559 329.167L173.449 337.382L171.34 340.93L169.231 334.843L167.121 331.931L165.012 334.059L162.903 334.208L160.794 336.225L158.684 360.945L156.575 331.221L154.466 337.494L152.356 328.346L150.247 320.765L148.138 313.446L146.028 307.509L143.919 312.064L141.81 323.379L139.7 306.836L137.591 298.771L135.482 300.04L133.372 299.555L131.263 288.501L129.154 282.228L127.045 277L124.935 282.228L122.826 299.181L120.717 313.521L118.607 315.126L116.498 318.973L114.389 323.753L112.279 326.852L110.17 310.981L108.061 300.75L105.951 301.198L103.842 298.808L101.733 287.829L99.6235 286.746L97.5142 294.103L95.4049 285.029L93.2955 287.418L91.1862 304.11L89.0769 320.018L86.9676 315.052L84.8583 318.786L82.749 315.313L80.6397 309.376L78.5304 315.873L76.4211 318.114L74.3117 312.849L72.2024 328.346L70.0931 342.685L67.9838 342.125L65.8745 338.801L63.7652 338.055L61.6559 343.619L59.5466 346.531L57.4372 335.665L55.3279 330.474L53.2186 327.001L51.1093 326.404Z" fill="url(#paint0_linear_6559_63406)"/>
<path d="M392.818 405.532L390.708 403.18L388.599 406.428L386.49 404.15L384.381 402.619L382.271 406.54L380.162 420.282L378.053 412.814L375.943 408.968L373.834 403.18L371.725 396.831L369.615 392.873L367.506 395.412L365.397 413.262L363.287 425.51L361.178 431.485L359.069 430.178L356.96 429.132L354.85 425.51L352.741 421.067L350.632 427.153L348.522 425.734L346.413 426.22L344.304 425.398L342.194 423.456L340.085 425.1L337.976 426.033L335.866 423.793L333.757 420.133L331.648 415.316L329.538 417.892L327.429 418.49L325.32 417.295L323.211 414.98L321.101 416.735L318.992 404.375L316.883 400.043L314.773 400.342L312.664 399.856L310.555 398.512L308.445 387.571L306.336 385.33L304.227 381.26L302.117 381.67L300.008 373.492L297.899 363.261L295.789 359.937L293.68 365.539L291.571 363.783L289.462 365.875L287.352 383.5L285.243 384.845L283.134 384.06L281.024 379.393L278.915 374.949L276.806 375.434L274.696 380.401L272.587 375.546L270.478 366.621L268.368 379.355L266.259 381.148L264.15 383.201L262.04 372.41L259.931 365.016L257.822 358.107L255.713 350.415L253.603 342.984L251.494 321.549L249.385 314.753L247.275 326.367L245.166 319.496L243.057 328.943L240.947 323.678L238.838 325.956L236.729 318.786L234.619 316.956L232.51 317.516L230.401 320.018L228.292 314.081L226.182 307.695L224.073 304.633L221.964 294.177L219.854 287.456L217.745 290.63L215.636 302.505L213.526 305.492L211.417 301.16L209.308 312.662L207.198 340.333L205.089 337.943L202.98 340.445L200.87 339.324L198.761 333.051L196.652 330.25L194.543 326.964L192.433 324.723L190.324 324.537L188.215 321.885L186.105 326.553L183.996 328.084L181.887 324.425L179.777 324.723L177.668 325.545L175.559 329.167L173.449 337.382L171.34 340.93L169.231 334.843L167.121 331.931L165.012 334.059L162.903 334.208L160.794 336.225L158.684 360.945L156.575 331.221L154.466 337.494L152.356 328.346L150.247 320.765L148.138 313.446L146.028 307.509L143.919 312.064L141.81 323.379L139.7 306.836L137.591 298.771L135.482 300.04L133.372 299.555L131.263 288.501L129.154 282.228L127.045 277L124.935 282.228L122.826 299.181L120.717 313.521L118.607 315.126L116.498 318.973L114.389 323.753L112.279 326.852L110.17 310.981L108.061 300.75L105.951 301.198L103.842 298.808L101.733 287.829L99.6235 286.746L97.5142 294.103L95.4049 285.029L93.2955 287.418L91.1862 304.11L89.0769 320.018L86.9676 315.052L84.8583 318.786L82.749 315.313L80.6397 309.376L78.5304 315.873L76.4211 318.114L74.3117 312.849L72.2024 328.346L70.0931 342.685L67.9838 342.125L65.8745 338.801L63.7652 338.055L61.6559 343.619L59.5466 346.531L57.4372 335.665L55.3279 330.474L53.2186 327.001L51.1093 326.404L49 321.997V479" stroke="#6AAFD3"/>
<path d="M137.7 212H139.308V204.68H141.696V203.42H135.312V204.68H137.7V212ZM144.528 212H146.136V203.42H144.528V212ZM153.416 212.12C155.456 212.12 156.92 211.076 157.172 209.012H155.612C155.444 210.224 154.604 210.824 153.416 210.824C151.832 210.824 150.908 209.684 150.908 207.752V207.656C150.908 205.736 151.892 204.56 153.404 204.56C154.64 204.56 155.276 205.148 155.456 206.288H157.076C156.884 204.272 155.36 203.288 153.392 203.288C151.004 203.288 149.228 205.088 149.228 207.668V207.764C149.228 210.404 150.728 212.12 153.416 212.12ZM160.054 212H161.65V207.992L164.95 212H166.834L163.102 207.512L166.654 203.408H164.938L161.65 207.308V203.42H160.054V212ZM169.464 212H175.032V210.74H171.06V208.232H174.084V207.032H171.06V204.68H174.828V203.42H169.464V212ZM177.972 212H179.568V208.532H180.588L182.832 212H184.56L182.148 208.292C183.216 208.016 184.056 207.332 184.056 205.988V205.94C184.056 204.188 182.736 203.42 180.852 203.42H177.972V212ZM179.568 207.392V204.656H180.852C181.872 204.656 182.484 204.992 182.484 205.976V206.024C182.484 206.936 181.92 207.392 180.852 207.392H179.568ZM190.134 212.12C192.03 212.12 193.29 210.956 193.29 209.468C193.29 207.752 192.246 207.176 190.23 206.9C188.742 206.684 188.454 206.336 188.454 205.64C188.454 204.98 188.958 204.512 189.93 204.512C190.914 204.512 191.43 204.896 191.586 205.796H193.05C192.882 204.152 191.778 203.312 189.93 203.312C188.142 203.312 186.942 204.368 186.942 205.772C186.942 207.38 187.914 208.004 189.966 208.28C191.358 208.508 191.754 208.808 191.754 209.6C191.754 210.392 191.082 210.92 190.134 210.92C188.682 210.92 188.334 210.2 188.226 209.336H186.69C186.81 210.956 187.794 212.12 190.134 212.12ZM197.817 212H199.425V204.68H201.813V203.42H195.429V204.68H197.817V212ZM208.17 210.836C206.61 210.836 205.47 209.624 205.47 207.752V207.656C205.47 205.808 206.466 204.572 208.146 204.572C209.826 204.572 210.81 205.88 210.81 207.644V207.74C210.81 209.6 209.79 210.836 208.17 210.836ZM208.146 212.12C210.75 212.12 212.466 210.236 212.466 207.728V207.632C212.466 205.112 210.702 203.3 208.146 203.3C205.602 203.3 203.802 205.16 203.802 207.668V207.764C203.802 210.236 205.518 212.12 208.146 212.12ZM219.263 212.12C221.303 212.12 222.767 211.076 223.019 209.012H221.459C221.291 210.224 220.451 210.824 219.263 210.824C217.679 210.824 216.755 209.684 216.755 207.752V207.656C216.755 205.736 217.739 204.56 219.251 204.56C220.487 204.56 221.123 205.148 221.303 206.288H222.923C222.731 204.272 221.207 203.288 219.239 203.288C216.851 203.288 215.075 205.088 215.075 207.668V207.764C215.075 210.404 216.575 212.12 219.263 212.12ZM225.902 212H227.498V207.992L230.798 212H232.682L228.95 207.512L232.502 203.408H230.786L227.498 207.308V203.42H225.902V212Z" fill="#81878C"/>
<path d="M135.252 245H146.592V242.417H140.754L143.589 239.645C145.332 237.965 146.487 236.327 146.487 234.332C146.487 231.623 144.597 229.775 141.279 229.775C137.919 229.775 135.819 231.665 135.651 235.13H138.738C138.969 233.156 139.809 232.379 141.132 232.379C142.434 232.379 143.127 233.177 143.127 234.416C143.127 235.781 142.203 237.104 140.754 238.637L135.252 244.454V245ZM149.257 247.583L152.113 242.69L149.257 241.619L147.409 246.806L149.257 247.583ZM158.834 245.231C162.404 245.231 164.609 243.152 164.609 240.065C164.609 237.041 162.488 235.193 159.653 235.193C157.847 235.193 156.713 235.949 156.02 237.062C156.104 233.975 157.259 232.337 159.128 232.337C160.43 232.337 160.934 232.946 161.144 233.933H164.294C163.958 231.182 162.068 229.775 159.086 229.775C155.411 229.775 152.66 232.61 152.66 237.692V238.07C152.66 242.165 154.298 245.231 158.834 245.231ZM158.792 242.774C157.28 242.774 156.23 241.724 156.23 240.002C156.23 238.511 157.28 237.44 158.792 237.44C160.325 237.44 161.27 238.532 161.27 240.107C161.27 241.682 160.283 242.774 158.792 242.774ZM171.608 245.231C175.262 245.231 177.425 243.446 177.425 240.632C177.425 238.721 176.249 237.482 174.506 237.104C175.997 236.579 176.984 235.529 176.984 233.849C176.984 231.497 175.052 229.775 171.755 229.775C168.332 229.775 166.379 231.791 166.211 234.542H169.214C169.382 233.135 170.264 232.274 171.692 232.274C173.078 232.274 173.771 233.072 173.771 234.143C173.771 235.424 173.057 236.138 171.482 236.138H170.39V238.406H171.566C173.183 238.406 173.981 239.141 173.981 240.569C173.981 241.913 173.183 242.732 171.482 242.732C169.676 242.732 168.899 241.682 168.773 240.233H165.707C165.833 243.278 167.786 245.231 171.608 245.231ZM185.505 242.564C183.405 242.564 182.292 240.989 182.292 237.839V237.125C182.292 234.017 183.363 232.4 185.463 232.4C187.542 232.4 188.592 234.101 188.592 237.125V237.797C188.592 240.947 187.626 242.564 185.505 242.564ZM185.421 245.231C189.474 245.231 191.973 242.375 191.973 237.776V237.083C191.973 232.421 189.306 229.775 185.442 229.775C181.578 229.775 178.89 232.526 178.89 237.146V237.86C178.89 242.459 181.431 245.231 185.421 245.231ZM194.516 245.189C195.587 245.189 196.406 244.37 196.406 243.341C196.406 242.333 195.587 241.514 194.516 241.514C193.466 241.514 192.647 242.333 192.647 243.341C192.647 244.37 193.466 245.189 194.516 245.189ZM203.492 245.231C206.831 245.231 209.351 243.614 209.351 240.674C209.351 238.889 208.364 237.587 206.6 236.978C207.923 236.39 208.784 235.361 208.784 233.849C208.784 231.287 206.39 229.775 203.513 229.775C200.699 229.775 198.2 231.266 198.2 233.87C198.2 235.382 199.019 236.432 200.384 236.999C198.662 237.608 197.612 238.931 197.612 240.758C197.612 243.698 200.174 245.231 203.492 245.231ZM203.492 242.753C202.106 242.753 200.993 241.934 200.993 240.443C200.993 238.952 202.127 238.133 203.513 238.133C204.92 238.133 205.991 238.952 205.991 240.422C205.991 241.913 204.92 242.753 203.492 242.753ZM203.534 236.054C202.358 236.054 201.371 235.319 201.371 234.101C201.371 232.883 202.316 232.148 203.513 232.148C204.71 232.148 205.634 232.925 205.634 234.08C205.634 235.319 204.752 236.054 203.534 236.054ZM217.119 242.564C215.019 242.564 213.906 240.989 213.906 237.839V237.125C213.906 234.017 214.977 232.4 217.077 232.4C219.156 232.4 220.206 234.101 220.206 237.125V237.797C220.206 240.947 219.24 242.564 217.119 242.564ZM217.035 245.231C221.088 245.231 223.587 242.375 223.587 237.776V237.083C223.587 232.421 220.92 229.775 217.056 229.775C213.192 229.775 210.504 232.526 210.504 237.146V237.86C210.504 242.459 213.045 245.231 217.035 245.231Z" fill="#2F363F"/>
<path d="M241 244.5H233L237 237.5L241 244.5Z" fill="#19AF55"/>
<path d="M247.928 244.5H250.072V233.06H248.168L245.512 234.948V236.82L247.928 235.172V244.5ZM253.773 244.612C254.493 244.612 255.053 244.068 255.053 243.364C255.053 242.66 254.493 242.1 253.773 242.1C253.069 242.1 252.509 242.66 252.509 243.364C252.509 244.068 253.069 244.612 253.773 244.612ZM260.515 244.66C262.979 244.66 264.723 243.14 264.723 240.724C264.723 238.324 263.267 236.884 261.203 236.884C259.987 236.884 259.187 237.332 258.739 237.844L258.755 234.74H264.067V233.06H257.123L257.027 239.428H258.115C258.627 238.836 259.331 238.436 260.499 238.436C261.763 238.436 262.563 239.316 262.563 240.692C262.563 242.1 261.811 243.012 260.499 243.012C259.027 243.012 258.595 242.276 258.419 241.22H256.435C256.563 243.188 257.827 244.66 260.515 244.66ZM270.38 244.66C273.004 244.66 274.668 243.348 274.668 241.236C274.668 239.716 273.788 238.772 272.46 238.468C273.564 238.052 274.316 237.268 274.316 235.972C274.316 234.276 272.924 232.9 270.54 232.9C268.092 232.9 266.604 234.42 266.492 236.404H268.38C268.508 235.252 269.292 234.516 270.508 234.516C271.692 234.516 272.284 235.204 272.284 236.132C272.284 237.204 271.692 237.812 270.38 237.812H269.564V239.332H270.444C271.836 239.332 272.508 239.956 272.508 241.204C272.508 242.34 271.82 243.06 270.332 243.06C268.796 243.06 268.124 242.164 268.012 240.964H266.076C266.172 243.156 267.66 244.66 270.38 244.66ZM278.608 237.204C277.856 237.204 277.376 236.692 277.376 235.716C277.376 234.756 277.856 234.228 278.608 234.228C279.36 234.228 279.824 234.788 279.824 235.716C279.824 236.66 279.36 237.204 278.608 237.204ZM278.592 238.5C280.16 238.5 281.376 237.316 281.376 235.7C281.376 234.1 280.144 232.948 278.608 232.948C277.072 232.948 275.808 234.132 275.808 235.732C275.808 237.316 277.024 238.5 278.592 238.5ZM277.376 244.5H278.736L286.096 233.06H284.752L277.376 244.5ZM284.88 243.364C284.128 243.364 283.648 242.852 283.648 241.876C283.648 240.916 284.128 240.388 284.88 240.388C285.632 240.388 286.096 240.948 286.096 241.876C286.096 242.82 285.632 243.364 284.88 243.364ZM284.864 244.66C286.432 244.66 287.664 243.476 287.664 241.86C287.664 240.26 286.416 239.108 284.88 239.108C283.344 239.108 282.096 240.292 282.096 241.892C282.096 243.476 283.296 244.66 284.864 244.66Z" fill="#19AF55"/>
<path d="M294.504 246.868H295.832C294.392 245.076 293.24 242.804 293.24 239.508C293.24 236.212 294.392 233.924 295.832 232.132H294.504C293.032 233.86 291.848 236.324 291.848 239.508C291.848 242.692 293.032 245.14 294.504 246.868ZM299.724 242.82H300.892V239.588H303.884V238.468H300.892V235.236H299.724V238.468H296.732V239.588H299.724V242.82ZM309.093 244.644C311.461 244.644 313.157 243.396 313.157 241.316C313.157 239.732 312.293 238.788 310.949 238.436C311.989 238.004 312.757 237.236 312.757 235.94C312.757 234.356 311.493 232.916 309.317 232.916C307.141 232.916 305.653 234.404 305.573 236.212H306.789C306.933 234.916 307.893 234.052 309.317 234.052C310.709 234.052 311.397 234.884 311.397 235.972C311.397 237.22 310.741 237.924 309.253 237.924H308.453V239.092H309.317C310.933 239.092 311.733 239.844 311.733 241.316C311.733 242.66 310.917 243.524 309.125 243.524C307.317 243.524 306.501 242.484 306.373 241.124H305.093C305.173 243.124 306.661 244.644 309.093 244.644ZM318.749 244.628C321.485 244.628 323.053 242.532 323.053 238.74V238.02C323.053 234.724 321.645 232.9 318.941 232.9C316.525 232.9 314.989 234.436 314.989 236.724C314.989 238.884 316.525 240.468 318.749 240.468C320.061 240.468 321.165 239.876 321.709 238.948C321.677 241.988 320.605 243.492 318.781 243.492C317.309 243.492 316.669 242.804 316.413 241.684H315.069C315.373 243.524 316.637 244.628 318.749 244.628ZM318.957 239.38C317.405 239.38 316.413 238.308 316.413 236.66C316.413 235.044 317.437 233.988 318.941 233.988C320.477 233.988 321.581 235.028 321.581 236.9C321.581 238.388 320.493 239.38 318.957 239.38ZM325.412 244.58C325.972 244.58 326.436 244.132 326.436 243.556C326.436 242.98 325.972 242.532 325.412 242.532C324.852 242.532 324.388 242.98 324.388 243.556C324.388 244.132 324.852 244.58 325.412 244.58ZM328.883 244.5H330.307L334.595 233.252V233.06H327.059V234.18H332.867L328.883 244.5ZM340.223 243.492C338.319 243.492 337.103 241.988 337.103 239.092V238.452C337.103 235.636 338.255 234.036 340.191 234.036C342.127 234.036 343.247 235.764 343.247 238.42V239.06C343.247 241.956 342.223 243.492 340.223 243.492ZM340.223 244.644C343.039 244.644 344.655 242.404 344.655 239.076V238.436C344.655 235.172 343.007 232.916 340.191 232.916C337.391 232.916 335.679 235.092 335.679 238.468V239.108C335.679 242.436 337.487 244.644 340.223 244.644ZM345.929 246.82H347.257C348.729 245.092 349.913 242.628 349.913 239.444C349.913 236.26 348.729 233.812 347.257 232.084H345.929C347.369 233.876 348.521 236.148 348.521 239.444C348.521 242.74 347.369 245.028 345.929 246.82Z" fill="#19AF55"/>
<path d="M393 406L490 275" stroke="#19AF55" stroke-dasharray="4 4"/>
<path d="M491 274L393 406L491 338.992V274Z" fill="url(#paint1_linear_6559_63406)"/>
<path d="M491 421.5L393.5 405.5L495.5 443.5L491 421.5Z" fill="url(#paint2_linear_6559_63406)"/>
<path d="M490 421L393 405" stroke="#D82F44" stroke-dasharray="4 4"/>
<path d="M490 355L393 405" stroke="#81878C" stroke-dasharray="4 4"/>
</g>
</g>
<path d="M514.476 274H516.87V268.528H522.648V274H525.06V261.13H522.648V266.602H516.87V261.13H514.476V274ZM527.688 274H529.866V264.586H527.688V274ZM528.75 263.038C529.47 263.038 530.046 262.498 530.046 261.796C530.046 261.076 529.47 260.536 528.75 260.536C528.03 260.536 527.454 261.076 527.454 261.796C527.454 262.498 528.03 263.038 528.75 263.038ZM536.354 277.456C539.27 277.456 541.124 276.07 541.142 273.298V264.586H538.964V266.026C538.424 265.09 537.488 264.388 535.94 264.388C533.51 264.388 531.71 266.368 531.71 269.014V269.14C531.71 271.858 533.528 273.622 535.886 273.622C537.272 273.622 538.442 272.776 538.964 271.876V273.262C538.964 274.954 538.028 275.8 536.336 275.8C534.914 275.8 534.194 275.26 534.014 274.324H531.818C532.07 276.124 533.402 277.456 536.354 277.456ZM536.426 271.948C535.022 271.948 533.942 270.868 533.942 269.122V268.978C533.942 267.268 534.878 266.098 536.498 266.098C538.064 266.098 539.036 267.16 539.036 268.942V269.068C539.036 270.868 537.938 271.948 536.426 271.948ZM543.551 274H545.729V268.456C545.729 266.962 546.719 266.206 547.943 266.206C549.239 266.206 549.815 266.854 549.815 268.276V274H551.993V268.078C551.993 265.486 550.661 264.388 548.771 264.388C547.223 264.388 546.179 265.162 545.729 266.08V260.23H543.551V274Z" fill="#77A3BA"/>
<path d="M514.476 423H522.36V421.092H516.87V410.13H514.476V423ZM528.066 421.488C526.41 421.488 525.456 420.282 525.456 418.356V418.212C525.456 416.268 526.446 415.098 528.066 415.098C529.686 415.098 530.658 416.286 530.658 418.23V418.356C530.658 420.282 529.686 421.488 528.066 421.488ZM528.048 423.18C530.82 423.18 532.89 421.272 532.89 418.338V418.194C532.89 415.314 530.82 413.388 528.066 413.388C525.294 413.388 523.224 415.332 523.224 418.248V418.392C523.224 421.254 525.276 423.18 528.048 423.18ZM536.359 423H538.591L540.499 416.664L542.245 423H544.459L547.411 413.586H545.287L543.325 420.39L541.489 413.586H539.671L537.673 420.39L535.801 413.586H533.479L536.359 423Z" fill="#77A3BA"/>
<path d="M514.476 360H516.636V350.28L520.542 360H521.316L525.15 350.28V360H527.544V347.13H524.376L521.064 355.914L517.68 347.13H514.476V360ZM534.182 360.18C536.594 360.18 538.196 359.1 538.502 357.12H536.396C536.234 358.038 535.55 358.56 534.236 358.56C532.616 358.56 531.716 357.552 531.644 355.77H538.538V355.14C538.538 351.774 536.432 350.388 534.092 350.388C531.41 350.388 529.412 352.332 529.412 355.248V355.392C529.412 358.362 531.41 360.18 534.182 360.18ZM531.68 354.312C531.896 352.854 532.778 351.972 534.092 351.972C535.442 351.972 536.27 352.692 536.378 354.312H531.68ZM543.831 360.18C545.217 360.18 546.423 359.352 546.927 358.416V360H549.105V346.23H546.927V352.026C546.405 351.09 545.451 350.388 543.921 350.388C541.473 350.388 539.691 352.296 539.691 355.302V355.446C539.691 358.506 541.473 360.18 543.831 360.18ZM544.371 358.452C542.967 358.452 541.923 357.462 541.923 355.392V355.248C541.923 353.214 542.859 352.098 544.461 352.098C546.045 352.098 546.999 353.124 546.999 355.194V355.338C546.999 357.444 545.883 358.452 544.371 358.452ZM551.568 360H553.746V350.586H551.568V360ZM552.63 349.038C553.35 349.038 553.926 348.498 553.926 347.796C553.926 347.076 553.35 346.536 552.63 346.536C551.91 346.536 551.334 347.076 551.334 347.796C551.334 348.498 551.91 349.038 552.63 349.038ZM558.687 360.18C560.127 360.18 560.955 359.658 561.567 358.848V360H563.709V353.826C563.709 351.252 562.053 350.388 559.947 350.388C557.841 350.388 556.095 351.306 555.915 353.502H558.021C558.129 352.566 558.687 352.026 559.821 352.026C561.099 352.026 561.531 352.656 561.531 353.916V354.402H560.361C557.661 354.402 555.537 355.194 555.537 357.39C555.537 359.352 556.959 360.18 558.687 360.18ZM559.209 358.614C558.129 358.614 557.697 358.092 557.697 357.3C557.697 356.148 558.759 355.77 560.415 355.77H561.531V356.706C561.531 357.912 560.541 358.614 559.209 358.614ZM566.025 360H568.203V354.456C568.203 352.962 569.193 352.206 570.417 352.206C571.713 352.206 572.289 352.854 572.289 354.276V360H574.467V354.078C574.467 351.486 573.135 350.388 571.245 350.388C569.697 350.388 568.653 351.162 568.203 352.08V350.586H566.025V360Z" fill="#77A3BA"/>
<g filter="url(#filter1_b_6559_63406)">
<rect x="171" y="440" width="239" height="45" rx="8" fill="white" fill-opacity="0.46"/>
<path fill-rule="evenodd" clip-rule="evenodd" d="M203 470.5C207.418 470.5 211 466.918 211 462.5C211 458.082 207.418 454.5 203 454.5C198.582 454.5 195 458.082 195 462.5C195 466.918 198.582 470.5 203 470.5ZM203 459.167L200 464.5H206L203 459.167Z" fill="#19AF55"/>
<path opacity="0.8" d="M224.312 468H226.44V463.136H231.576V468H233.72V456.56H231.576V461.424H226.44V456.56H224.312V468ZM236.216 468H238.152V459.632H236.216V468ZM237.16 458.256C237.8 458.256 238.312 457.776 238.312 457.152C238.312 456.512 237.8 456.032 237.16 456.032C236.52 456.032 236.008 456.512 236.008 457.152C236.008 457.776 236.52 458.256 237.16 458.256ZM244.079 471.072C246.671 471.072 248.319 469.84 248.335 467.376V459.632H246.399V460.912C245.919 460.08 245.087 459.456 243.711 459.456C241.551 459.456 239.951 461.216 239.951 463.568V463.68C239.951 466.096 241.567 467.664 243.663 467.664C244.895 467.664 245.935 466.912 246.399 466.112V467.344C246.399 468.848 245.567 469.6 244.063 469.6C242.799 469.6 242.159 469.12 241.999 468.288H240.047C240.271 469.888 241.455 471.072 244.079 471.072ZM244.143 466.176C242.895 466.176 241.935 465.216 241.935 463.664V463.536C241.935 462.016 242.767 460.976 244.207 460.976C245.599 460.976 246.463 461.92 246.463 463.504V463.616C246.463 465.216 245.487 466.176 244.143 466.176ZM250.636 468H252.572V463.072C252.572 461.744 253.452 461.072 254.54 461.072C255.692 461.072 256.204 461.648 256.204 462.912V468H258.14V462.736C258.14 460.432 256.956 459.456 255.276 459.456C253.9 459.456 252.972 460.144 252.572 460.96V455.76H250.636V468ZM264.183 468H266.119V463.648C266.119 461.872 267.143 461.328 268.839 461.312V459.504C267.431 459.52 266.647 460.144 266.119 461.2V459.632H264.183V468ZM274.066 468.16C276.21 468.16 277.634 467.2 277.906 465.44H276.034C275.89 466.256 275.282 466.72 274.114 466.72C272.674 466.72 271.874 465.824 271.81 464.24H277.938V463.68C277.938 460.688 276.066 459.456 273.986 459.456C271.602 459.456 269.826 461.184 269.826 463.776V463.904C269.826 466.544 271.602 468.16 274.066 468.16ZM271.842 462.944C272.034 461.648 272.818 460.864 273.986 460.864C275.186 460.864 275.922 461.504 276.018 462.944H271.842ZM282.516 468.144C283.108 468.144 283.524 468.048 283.828 467.936V466.4C283.556 466.512 283.268 466.56 282.884 466.56C282.276 466.56 281.924 466.224 281.924 465.488V461.088H283.764V459.632H281.924V457.792H279.988V459.632H278.868V461.088H279.988V465.664C279.988 467.248 280.852 468.144 282.516 468.144ZM288.374 468.16C289.734 468.16 290.614 467.504 291.03 466.688V468H292.966V459.632H291.03V464.608C291.03 465.936 290.118 466.608 289.078 466.608C287.958 466.608 287.43 466.032 287.43 464.768V459.632H285.494V464.992C285.494 467.216 286.726 468.16 288.374 468.16ZM295.261 468H297.197V463.648C297.197 461.872 298.221 461.328 299.917 461.312V459.504C298.509 459.52 297.725 460.144 297.197 461.2V459.632H295.261V468ZM301.621 468H303.557V463.072C303.557 461.744 304.437 461.072 305.525 461.072C306.677 461.072 307.189 461.648 307.189 462.912V468H309.125V462.736C309.125 460.432 307.941 459.456 306.261 459.456C304.885 459.456 303.957 460.144 303.557 460.96V459.632H301.621V468ZM318.848 468.16C320.992 468.16 322.416 467.2 322.688 465.44H320.816C320.672 466.256 320.064 466.72 318.896 466.72C317.456 466.72 316.656 465.824 316.592 464.24H322.72V463.68C322.72 460.688 320.848 459.456 318.768 459.456C316.384 459.456 314.608 461.184 314.608 463.776V463.904C314.608 466.544 316.384 468.16 318.848 468.16ZM316.624 462.944C316.816 461.648 317.6 460.864 318.768 460.864C319.968 460.864 320.704 461.504 320.8 462.944H316.624ZM323.32 468H325.336L327.336 464.976L329.288 468H331.544L328.552 463.568L331.256 459.632H329.224L327.496 462.336L325.752 459.632H323.512L326.232 463.712L323.32 468ZM333.027 470.864H334.963V466.688C335.411 467.504 336.371 468.16 337.699 468.16C339.859 468.16 341.411 466.528 341.411 463.84V463.712C341.411 461.008 339.795 459.456 337.699 459.456C336.467 459.456 335.427 460.176 334.963 460.976V459.632H333.027V470.864ZM337.219 466.624C335.811 466.624 334.899 465.744 334.899 463.872V463.744C334.899 461.888 335.859 460.976 337.203 460.976C338.467 460.976 339.427 461.888 339.427 463.744V463.872C339.427 465.664 338.643 466.624 337.219 466.624ZM346.832 468.16C348.976 468.16 350.4 467.2 350.672 465.44H348.8C348.656 466.256 348.048 466.72 346.88 466.72C345.44 466.72 344.64 465.824 344.576 464.24H350.704V463.68C350.704 460.688 348.832 459.456 346.752 459.456C344.368 459.456 342.592 461.184 342.592 463.776V463.904C342.592 466.544 344.368 468.16 346.832 468.16ZM344.608 462.944C344.8 461.648 345.584 460.864 346.752 460.864C347.952 460.864 348.688 461.504 348.784 462.944H344.608ZM356.097 468.16C358.369 468.16 359.825 466.8 359.969 464.88H358.193C358.081 466.064 357.201 466.672 356.177 466.672C354.753 466.672 353.857 465.712 353.857 463.888V463.76C353.857 462.032 354.801 461.008 356.129 461.008C357.153 461.008 357.889 461.472 358.049 462.592H359.921C359.697 460.288 357.953 459.456 356.097 459.456C353.761 459.456 351.873 461.136 351.873 463.792V463.92C351.873 466.592 353.697 468.16 356.097 468.16ZM364.484 468.144C365.076 468.144 365.492 468.048 365.796 467.936V466.4C365.524 466.512 365.236 466.56 364.852 466.56C364.244 466.56 363.892 466.224 363.892 465.488V461.088H365.732V459.632H363.892V457.792H361.956V459.632H360.836V461.088H361.956V465.664C361.956 467.248 362.82 468.144 364.484 468.144ZM371.223 468.16C373.367 468.16 374.791 467.2 375.063 465.44H373.191C373.047 466.256 372.439 466.72 371.271 466.72C369.831 466.72 369.031 465.824 368.967 464.24H375.095V463.68C375.095 460.688 373.223 459.456 371.143 459.456C368.759 459.456 366.983 461.184 366.983 463.776V463.904C366.983 466.544 368.759 468.16 371.223 468.16ZM368.999 462.944C369.191 461.648 369.975 460.864 371.143 460.864C372.343 460.864 373.079 461.504 373.175 462.944H368.999ZM379.96 468.16C381.192 468.16 382.264 467.424 382.712 466.592V468H384.648V455.76H382.712V460.912C382.248 460.08 381.4 459.456 380.04 459.456C377.864 459.456 376.28 461.152 376.28 463.824V463.952C376.28 466.672 377.864 468.16 379.96 468.16ZM380.44 466.624C379.192 466.624 378.264 465.744 378.264 463.904V463.776C378.264 461.968 379.096 460.976 380.52 460.976C381.928 460.976 382.776 461.888 382.776 463.728V463.856C382.776 465.728 381.784 466.624 380.44 466.624Z" fill="#151E28"/>
</g>
<path d="M179.59 125H180.854L183.526 115.96L186.118 125H187.398L190.374 113.56H189.078L186.726 122.824L184.038 113.56H183.046L180.358 122.792L178.038 113.56H176.614L179.59 125ZM192.134 125H193.462V116.632H192.134V125ZM192.774 114.888C193.254 114.888 193.654 114.488 193.654 114.008C193.654 113.528 193.254 113.128 192.774 113.128C192.294 113.128 191.894 113.528 191.894 114.008C191.894 114.488 192.294 114.888 192.774 114.888ZM198.724 125.112C199.268 125.112 199.588 125.032 199.86 124.936V123.816C199.572 123.928 199.252 123.992 198.836 123.992C198.164 123.992 197.796 123.592 197.796 122.776V117.752H199.748V116.632H197.796V114.728H196.468V116.632H195.268V117.752H196.468V122.904C196.468 124.216 197.204 125.112 198.724 125.112ZM201.867 125H203.195V119.928C203.195 118.424 204.299 117.64 205.531 117.64C206.875 117.64 207.499 118.296 207.499 119.768V125H208.827V119.864C208.827 117.432 207.611 116.488 205.883 116.488C204.507 116.488 203.579 117.176 203.195 117.96V112.632H201.867V125ZM215.952 125H217.28V117.752H219.328V116.632H217.28V115.128C217.28 114.28 217.632 113.688 218.496 113.688C218.864 113.688 219.2 113.768 219.44 113.864V112.744C219.104 112.632 218.88 112.584 218.448 112.584C216.784 112.584 215.952 113.576 215.952 115.272V116.632H214.752V117.752H215.952V125ZM224.277 124.04C222.581 124.04 221.541 122.792 221.541 120.888V120.76C221.541 118.84 222.597 117.592 224.277 117.592C225.941 117.592 227.013 118.84 227.013 120.776V120.888C227.013 122.776 225.957 124.04 224.277 124.04ZM224.261 125.144C226.645 125.144 228.389 123.4 228.389 120.872V120.744C228.389 118.232 226.645 116.488 224.277 116.488C221.909 116.488 220.165 118.248 220.165 120.76V120.888C220.165 123.336 221.877 125.144 224.261 125.144ZM230.446 125H231.774V120.408C231.774 118.344 232.846 117.816 234.526 117.736V116.488C233.022 116.536 232.302 117.192 231.774 118.136V116.632H230.446V125ZM239.651 125.144C241.539 125.144 242.931 124.264 243.219 122.584H241.891C241.715 123.56 240.963 124.04 239.667 124.04C237.955 124.04 237.043 122.984 236.979 121.08H243.283V120.648C243.283 117.656 241.459 116.488 239.523 116.488C237.219 116.488 235.603 118.248 235.603 120.776V120.904C235.603 123.48 237.283 125.144 239.651 125.144ZM237.027 120.008C237.251 118.52 238.163 117.592 239.523 117.592C240.899 117.592 241.795 118.28 241.923 120.008H237.027ZM248.793 125.144C250.809 125.144 252.265 123.8 252.441 121.992H251.209C251.065 123.352 249.993 124.04 248.809 124.04C247.193 124.04 246.073 122.952 246.073 120.904V120.776C246.073 118.808 247.241 117.592 248.761 117.592C249.913 117.592 250.873 118.088 251.081 119.416H252.393C252.137 117.288 250.505 116.488 248.761 116.488C246.521 116.488 244.697 118.216 244.697 120.776V120.904C244.697 123.496 246.457 125.144 248.793 125.144ZM256.542 125.144C257.774 125.144 258.526 124.728 259.15 123.944V125H260.478V119.48C260.478 117.144 259.022 116.488 257.422 116.488C255.806 116.488 254.286 117.192 254.11 119.096H255.438C255.566 118.072 256.206 117.592 257.358 117.592C258.638 117.592 259.15 118.152 259.15 119.48V120.088H257.95C255.806 120.088 253.758 120.744 253.758 122.68C253.758 124.392 254.99 125.144 256.542 125.144ZM256.67 124.088C255.502 124.088 255.086 123.544 255.086 122.68C255.086 121.448 256.318 121.032 257.998 121.032H259.15V122.072C259.15 123.368 258.078 124.088 256.67 124.088ZM265.678 125.144C267.71 125.144 268.75 124.12 268.75 122.6C268.75 120.824 267.534 120.44 265.806 120.12C264.27 119.848 263.854 119.544 263.854 118.792C263.854 118.072 264.478 117.592 265.438 117.592C266.494 117.592 267.006 117.992 267.198 118.904H268.478C268.254 117.096 266.958 116.488 265.454 116.488C264.142 116.488 262.622 117.288 262.622 118.84C262.622 120.296 263.358 120.904 265.534 121.304C266.83 121.544 267.486 121.832 267.486 122.712C267.486 123.608 266.926 124.04 265.662 124.04C264.318 124.04 263.79 123.416 263.694 122.424H262.398C262.478 124.136 263.678 125.144 265.678 125.144ZM273.318 125.112C273.862 125.112 274.182 125.032 274.454 124.936V123.816C274.166 123.928 273.846 123.992 273.43 123.992C272.758 123.992 272.39 123.592 272.39 122.776V117.752H274.342V116.632H272.39V114.728H271.062V116.632H269.862V117.752H271.062V122.904C271.062 124.216 271.798 125.112 273.318 125.112ZM279.053 125.144C281.085 125.144 282.125 124.12 282.125 122.6C282.125 120.824 280.909 120.44 279.181 120.12C277.645 119.848 277.229 119.544 277.229 118.792C277.229 118.072 277.853 117.592 278.813 117.592C279.869 117.592 280.381 117.992 280.573 118.904H281.853C281.629 117.096 280.333 116.488 278.829 116.488C277.517 116.488 275.997 117.288 275.997 118.84C275.997 120.296 276.733 120.904 278.909 121.304C280.205 121.544 280.861 121.832 280.861 122.712C280.861 123.608 280.301 124.04 279.037 124.04C277.693 124.04 277.165 123.416 277.069 122.424H275.773C275.853 124.136 277.053 125.144 279.053 125.144ZM291.871 124.04C290.175 124.04 289.135 122.792 289.135 120.888V120.76C289.135 118.84 290.191 117.592 291.871 117.592C293.535 117.592 294.607 118.84 294.607 120.776V120.888C294.607 122.776 293.551 124.04 291.871 124.04ZM291.855 125.144C294.239 125.144 295.983 123.4 295.983 120.872V120.744C295.983 118.232 294.239 116.488 291.871 116.488C289.503 116.488 287.759 118.248 287.759 120.76V120.888C287.759 123.336 289.471 125.144 291.855 125.144ZM298.039 125H299.367V119.928C299.367 118.424 300.471 117.64 301.703 117.64C303.047 117.64 303.671 118.296 303.671 119.768V125H304.999V119.864C304.999 117.432 303.783 116.488 302.055 116.488C300.679 116.488 299.751 117.176 299.367 117.96V116.632H298.039V125ZM311.836 125H313.164V120.408C313.164 118.344 314.236 117.816 315.916 117.736V116.488C314.412 116.536 313.692 117.192 313.164 118.136V116.632H311.836V125ZM321.041 125.144C322.929 125.144 324.321 124.264 324.609 122.584H323.281C323.105 123.56 322.353 124.04 321.057 124.04C319.345 124.04 318.433 122.984 318.369 121.08H324.673V120.648C324.673 117.656 322.849 116.488 320.913 116.488C318.609 116.488 316.993 118.248 316.993 120.776V120.904C316.993 123.48 318.673 125.144 321.041 125.144ZM318.417 120.008C318.641 118.52 319.553 117.592 320.913 117.592C322.289 117.592 323.185 118.28 323.313 120.008H318.417ZM329.255 125.112C329.799 125.112 330.119 125.032 330.391 124.936V123.816C330.103 123.928 329.783 123.992 329.367 123.992C328.695 123.992 328.327 123.592 328.327 122.776V117.752H330.279V116.632H328.327V114.728H326.999V116.632H325.799V117.752H326.999V122.904C326.999 124.216 327.735 125.112 329.255 125.112ZM335.231 125.144C336.575 125.144 337.503 124.456 337.887 123.672V125H339.215V116.632H337.887V121.704C337.887 123.208 336.767 123.992 335.583 123.992C334.271 123.992 333.647 123.336 333.647 121.864V116.632H332.319V121.928C332.319 124.232 333.567 125.144 335.231 125.144ZM341.899 125H343.227V120.408C343.227 118.344 344.299 117.816 345.979 117.736V116.488C344.475 116.536 343.755 117.192 343.227 118.136V116.632H341.899V125ZM347.914 125H349.242V119.928C349.242 118.424 350.346 117.64 351.578 117.64C352.922 117.64 353.546 118.296 353.546 119.768V125H354.874V119.864C354.874 117.432 353.658 116.488 351.93 116.488C350.554 116.488 349.626 117.176 349.242 117.96V116.632H347.914V125ZM360.069 125.144C362.101 125.144 363.141 124.12 363.141 122.6C363.141 120.824 361.925 120.44 360.197 120.12C358.661 119.848 358.245 119.544 358.245 118.792C358.245 118.072 358.869 117.592 359.829 117.592C360.885 117.592 361.397 117.992 361.589 118.904H362.869C362.645 117.096 361.349 116.488 359.845 116.488C358.533 116.488 357.013 117.288 357.013 118.84C357.013 120.296 357.749 120.904 359.925 121.304C361.221 121.544 361.877 121.832 361.877 122.712C361.877 123.608 361.317 124.04 360.053 124.04C358.709 124.04 358.181 123.416 358.085 122.424H356.789C356.869 124.136 358.069 125.144 360.069 125.144ZM365.26 126.968L367.228 123.624L365.932 123.016L364.396 126.52L365.26 126.968ZM373.914 127.912H375.242V123.624C375.722 124.456 376.698 125.144 378.074 125.144C380.378 125.144 381.882 123.384 381.882 120.824V120.696C381.882 118.088 380.266 116.488 378.074 116.488C376.858 116.488 375.722 117.224 375.242 118.04V116.632H373.914V127.912ZM377.946 124.04C376.314 124.04 375.194 123.032 375.194 120.888V120.76C375.194 118.616 376.378 117.592 377.93 117.592C379.338 117.592 380.506 118.648 380.506 120.76V120.888C380.506 122.92 379.61 124.04 377.946 124.04ZM383.946 125H385.274V120.408C385.274 118.344 386.346 117.816 388.026 117.736V116.488C386.522 116.536 385.802 117.192 385.274 118.136V116.632H383.946V125ZM389.993 125H391.321V116.632H389.993V125ZM390.633 114.888C391.113 114.888 391.513 114.488 391.513 114.008C391.513 113.528 391.113 113.128 390.633 113.128C390.153 113.128 389.753 113.528 389.753 114.008C389.753 114.488 390.153 114.888 390.633 114.888ZM397.511 125.144C399.527 125.144 400.983 123.8 401.159 121.992H399.927C399.783 123.352 398.711 124.04 397.527 124.04C395.911 124.04 394.791 122.952 394.791 120.904V120.776C394.791 118.808 395.959 117.592 397.479 117.592C398.631 117.592 399.591 118.088 399.799 119.416H401.111C400.855 117.288 399.223 116.488 397.479 116.488C395.239 116.488 393.415 118.216 393.415 120.776V120.904C393.415 123.496 395.175 125.144 397.511 125.144ZM406.588 125.144C408.476 125.144 409.868 124.264 410.156 122.584H408.828C408.652 123.56 407.9 124.04 406.604 124.04C404.892 124.04 403.98 122.984 403.916 121.08H410.22V120.648C410.22 117.656 408.396 116.488 406.46 116.488C404.156 116.488 402.54 118.248 402.54 120.776V120.904C402.54 123.48 404.22 125.144 406.588 125.144ZM403.964 120.008C404.188 118.52 405.1 117.592 406.46 117.592C407.836 117.592 408.732 118.28 408.86 120.008H403.964ZM418.588 125.144C419.82 125.144 420.572 124.728 421.196 123.944V125H422.524V119.48C422.524 117.144 421.068 116.488 419.468 116.488C417.852 116.488 416.332 117.192 416.156 119.096H417.484C417.612 118.072 418.252 117.592 419.404 117.592C420.684 117.592 421.196 118.152 421.196 119.48V120.088H419.996C417.852 120.088 415.804 120.744 415.804 122.68C415.804 124.392 417.036 125.144 418.588 125.144ZM418.716 124.088C417.548 124.088 417.132 123.544 417.132 122.68C417.132 121.448 418.364 121.032 420.044 121.032H421.196V122.072C421.196 123.368 420.124 124.088 418.716 124.088ZM425.133 125H426.461V119.928C426.461 118.424 427.565 117.64 428.797 117.64C430.141 117.64 430.765 118.296 430.765 119.768V125H432.093V119.864C432.093 117.432 430.877 116.488 429.149 116.488C427.773 116.488 426.845 117.176 426.461 117.96V116.632H425.133V125ZM437.848 125.144C439.064 125.144 440.232 124.376 440.712 123.56V125H442.04V112.632H440.712V117.976C440.232 117.16 439.368 116.488 437.976 116.488C435.672 116.488 434.072 118.296 434.072 120.856V120.984C434.072 123.592 435.656 125.144 437.848 125.144ZM437.992 124.04C436.584 124.04 435.448 123.032 435.448 120.92V120.792C435.448 118.76 436.44 117.592 438.104 117.592C439.736 117.592 440.76 118.6 440.76 120.744V120.872C440.76 123.016 439.544 124.04 437.992 124.04ZM449.057 125H456.017V123.864H450.449V119.72H454.705V118.584H450.449V114.696H455.729V113.56H449.057V125ZM458.12 125H459.512V120.344H461.368C463.544 120.344 465.368 119.4 465.368 116.968V116.904C465.368 114.52 463.56 113.56 461.368 113.56H458.12V125ZM459.512 119.24V114.68H461.464C463.016 114.68 463.976 115.288 463.976 116.904V116.968C463.976 118.44 463.096 119.24 461.464 119.24H459.512ZM471.034 125.144C473.306 125.144 474.986 123.688 474.986 121.768C474.986 119.608 473.642 118.84 471.098 118.44C468.762 118.088 468.346 117.512 468.346 116.392C468.346 115.32 469.162 114.536 470.73 114.536C472.314 114.536 473.146 115.128 473.418 116.568H474.666C474.442 114.536 473.018 113.416 470.73 113.416C468.57 113.416 467.05 114.76 467.05 116.52C467.05 118.552 468.474 119.304 470.874 119.672C473.05 120.024 473.642 120.568 473.642 121.864C473.642 123.16 472.506 124.024 471.034 124.024C468.73 124.024 468.186 122.872 468.01 121.512H466.666C466.874 123.464 467.978 125.144 471.034 125.144Z" fill="#535B62"/>
</g>
<defs>
<filter id="filter0_dd_6559_63406" x="-24" y="168" width="647" height="537" filterUnits="userSpaceOnUse" color-interpolation-filters="sRGB">
<feFlood flood-opacity="0" result="BackgroundImageFix"/>
<feColorMatrix in="SourceAlpha" type="matrix" values="0 0 0 0 0 0 0 0 0 0 0 0 0 0 0 0 0 0 127 0" result="hardAlpha"/>
<feMorphology radius="32" operator="erode" in="SourceAlpha" result="effect1_dropShadow_6559_63406"/>
<feOffset dy="120"/>
<feGaussianBlur stdDeviation="82"/>
<feComposite in2="hardAlpha" operator="out"/>
<feColorMatrix type="matrix" values="0 0 0 0 0.419608 0 0 0 0 0.431373 0 0 0 0 0.580392 0 0 0 0.04 0"/>
<feBlend mode="normal" in2="BackgroundImageFix" result="effect1_dropShadow_6559_63406"/>
<feColorMatrix in="SourceAlpha" type="matrix" values="0 0 0 0 0 0 0 0 0 0 0 0 0 0 0 0 0 0 127 0" result="hardAlpha"/>
<feMorphology radius="32" operator="erode" in="SourceAlpha" result="effect2_dropShadow_6559_63406"/>
<feOffset dy="120"/>
<feGaussianBlur stdDeviation="82"/>
<feComposite in2="hardAlpha" operator="out"/>
<feColorMatrix type="matrix" values="0 0 0 0 0.419608 0 0 0 0 0.431373 0 0 0 0 0.580392 0 0 0 0.04 0"/>
<feBlend mode="normal" in2="effect1_dropShadow_6559_63406" result="effect2_dropShadow_6559_63406"/>
<feBlend mode="normal" in="SourceGraphic" in2="effect2_dropShadow_6559_63406" result="shape"/>
</filter>
<filter id="filter1_b_6559_63406" x="151" y="420" width="279" height="85" filterUnits="userSpaceOnUse" color-interpolation-filters="sRGB">
<feFlood flood-opacity="0" result="BackgroundImageFix"/>
<feGaussianBlur in="BackgroundImageFix" stdDeviation="10"/>
<feComposite in2="SourceAlpha" operator="in" result="effect1_backgroundBlur_6559_63406"/>
<feBlend mode="normal" in="SourceGraphic" in2="effect1_backgroundBlur_6559_63406" result="shape"/>
</filter>
<linearGradient id="paint0_linear_6559_63406" x1="309.5" y1="310.862" x2="309.5" y2="479" gradientUnits="userSpaceOnUse">
<stop stop-color="#E2F5FF"/>
<stop offset="1" stop-color="white" stop-opacity="0"/>
</linearGradient>
<linearGradient id="paint1_linear_6559_63406" x1="414" y1="328.5" x2="443.5" y2="360" gradientUnits="userSpaceOnUse">
<stop stop-color="#19AF55" stop-opacity="0.1"/>
<stop offset="1" stop-color="#19AF55" stop-opacity="0"/>
</linearGradient>
<linearGradient id="paint2_linear_6559_63406" x1="454.5" y1="406" x2="447.5" y2="427" gradientUnits="userSpaceOnUse">
<stop stop-color="#FF4747" stop-opacity="0.1"/>
<stop offset="1" stop-color="#FF4848" stop-opacity="0"/>
</linearGradient>
<clipPath id="clip0_6559_63406">
<rect width="640" height="558" fill="white"/>
</clipPath>
<clipPath id="clip1_6559_63406">
<rect x="108" y="180" width="383" height="273" rx="24" fill="white"/>
</clipPath>
</defs>
</svg>
