<svg width="498" height="253" viewBox="0 0 498 253" fill="none" xmlns="http://www.w3.org/2000/svg">
<rect opacity="0.7" x="54.5" y="19.5" width="430" height="207" rx="23.5" stroke="white"/>
<rect x="71.5" y="30.5" width="398" height="185" rx="23.5" stroke="white"/>
<rect opacity="0.4" x="37.5" y="11.5" width="460" height="223" rx="23.5" stroke="white"/>
<g filter="url(#filter0_d_6559_59214)">
<rect width="456" height="194" rx="16" fill="#FFFBF4" shape-rendering="crispEdges"/>
<path d="M29.88 56.5L25.56 48.964V47.188H27C27.576 47.188 28.08 47.108 28.512 46.948C28.96 46.772 29.328 46.524 29.616 46.204C29.92 45.884 30.128 45.5 30.24 45.052H25.56V43.276H30.216C30.12 42.86 29.952 42.492 29.712 42.172C29.488 41.852 29.184 41.604 28.8 41.428C28.432 41.236 27.984 41.14 27.456 41.14H25.56V39.364H36.384V41.14H32.616C32.888 41.444 33.112 41.772 33.288 42.124C33.48 42.476 33.608 42.86 33.672 43.276H36.384V45.052H33.72C33.56 46.236 33.104 47.164 32.352 47.836C31.6 48.492 30.632 48.94 29.448 49.18L34.152 56.5H29.88ZM44.9344 56.764C48.7504 56.764 51.6304 54.916 51.6304 51.556C51.6304 49.516 50.5024 48.028 48.4864 47.332C49.9984 46.66 50.9824 45.484 50.9824 43.756C50.9824 40.828 48.2464 39.1 44.9584 39.1C41.7424 39.1 38.8864 40.804 38.8864 43.78C38.8864 45.508 39.8224 46.708 41.3824 47.356C39.4144 48.052 38.2144 49.564 38.2144 51.652C38.2144 55.012 41.1424 56.764 44.9344 56.764ZM44.9344 53.932C43.3504 53.932 42.0784 52.996 42.0784 51.292C42.0784 49.588 43.3744 48.652 44.9584 48.652C46.5664 48.652 47.7904 49.588 47.7904 51.268C47.7904 52.972 46.5664 53.932 44.9344 53.932ZM44.9824 46.276C43.6384 46.276 42.5104 45.436 42.5104 44.044C42.5104 42.652 43.5904 41.812 44.9584 41.812C46.3264 41.812 47.3824 42.7 47.3824 44.02C47.3824 45.436 46.3744 46.276 44.9824 46.276ZM54.2978 59.452L57.5618 53.86L54.2978 52.636L52.1858 58.564L54.2978 59.452ZM65.2048 56.764C69.3808 56.764 71.8528 54.724 71.8528 51.508C71.8528 49.324 70.5088 47.908 68.5168 47.476C70.2208 46.876 71.3488 45.676 71.3488 43.756C71.3488 41.068 69.1408 39.1 65.3728 39.1C61.4608 39.1 59.2288 41.404 59.0368 44.548H62.4688C62.6608 42.94 63.6688 41.956 65.3008 41.956C66.8848 41.956 67.6768 42.868 67.6768 44.092C67.6768 45.556 66.8608 46.372 65.0608 46.372H63.8128V48.964H65.1568C67.0048 48.964 67.9168 49.804 67.9168 51.436C67.9168 52.972 67.0048 53.908 65.0608 53.908C62.9968 53.908 62.1088 52.708 61.9648 51.052H58.4608C58.6048 54.532 60.8368 56.764 65.2048 56.764ZM79.8872 56.74C84.4952 56.74 87.0632 53.596 87.0632 47.98V47.212C87.0632 42.268 84.7832 39.076 80.0552 39.076C75.9512 39.076 73.4072 41.476 73.4072 45.028C73.4072 48.508 75.8312 50.572 79.1432 50.572C81.2072 50.572 82.4552 49.732 83.2472 48.484C83.1752 51.988 82.0472 53.788 79.7672 53.788C78.1352 53.788 77.4392 53.044 77.1992 51.868H73.5752C73.9592 54.964 76.1672 56.74 79.8872 56.74ZM80.0072 47.98C78.2792 47.98 77.1752 46.732 77.1752 44.932C77.1752 43.132 78.3032 41.884 80.0072 41.884C81.7592 41.884 82.9352 43.108 82.9352 45.1C82.9352 46.78 81.7592 47.98 80.0072 47.98ZM89.0452 59.452L92.3092 53.86L89.0452 52.636L86.9332 58.564L89.0452 59.452ZM100.494 53.716C98.0944 53.716 96.8224 51.916 96.8224 48.316V47.5C96.8224 43.948 98.0464 42.1 100.446 42.1C102.822 42.1 104.022 44.044 104.022 47.5V48.268C104.022 51.868 102.918 53.716 100.494 53.716ZM100.398 56.764C105.03 56.764 107.886 53.5 107.886 48.244V47.452C107.886 42.124 104.838 39.1 100.422 39.1C96.0064 39.1 92.9344 42.244 92.9344 47.524V48.34C92.9344 53.596 95.8384 56.764 100.398 56.764ZM110.733 56.5H114.693L120.837 39.772V39.34H108.405V42.484H115.965L110.733 56.5ZM127.866 56.74C132.474 56.74 135.042 53.596 135.042 47.98V47.212C135.042 42.268 132.762 39.076 128.034 39.076C123.93 39.076 121.386 41.476 121.386 45.028C121.386 48.508 123.81 50.572 127.122 50.572C129.186 50.572 130.434 49.732 131.226 48.484C131.154 51.988 130.026 53.788 127.746 53.788C126.114 53.788 125.418 53.044 125.178 51.868H121.554C121.938 54.964 124.146 56.74 127.866 56.74ZM127.986 47.98C126.258 47.98 125.154 46.732 125.154 44.932C125.154 43.132 126.282 41.884 127.986 41.884C129.738 41.884 130.914 43.108 130.914 45.1C130.914 46.78 129.738 47.98 127.986 47.98Z" fill="#151E28"/>
<path d="M29.446 83.626C31.686 83.626 33.282 82.492 33.632 80.182H32.498C32.246 81.806 31.112 82.632 29.474 82.632C27.318 82.632 26.03 81.092 26.03 78.544V78.432C26.03 75.912 27.416 74.302 29.488 74.302C31.196 74.302 32.078 75.086 32.33 76.612H33.534C33.324 74.442 31.56 73.336 29.474 73.336C26.758 73.336 24.77 75.478 24.77 78.446V78.558C24.77 81.638 26.548 83.626 29.446 83.626ZM37.8806 83.626C39.0566 83.626 39.8686 83.024 40.2046 82.338V83.5H41.3666V76.178H40.2046V80.616C40.2046 81.932 39.2246 82.618 38.1886 82.618C37.0406 82.618 36.4946 82.044 36.4946 80.756V76.178H35.3326V80.812C35.3326 82.828 36.4246 83.626 37.8806 83.626ZM43.7151 83.5H44.8771V79.482C44.8771 77.676 45.8151 77.214 47.2851 77.144V76.052C45.9691 76.094 45.3391 76.668 44.8771 77.494V76.178H43.7151V83.5ZM48.9787 83.5H50.1407V79.482C50.1407 77.676 51.0787 77.214 52.5487 77.144V76.052C51.2327 76.094 50.6027 76.668 50.1407 77.494V76.178H48.9787V83.5ZM57.0333 83.626C58.6853 83.626 59.9033 82.856 60.1553 81.386H58.9933C58.8393 82.24 58.1813 82.66 57.0473 82.66C55.5493 82.66 54.7513 81.736 54.6953 80.07H60.2113V79.692C60.2113 77.074 58.6153 76.052 56.9213 76.052C54.9053 76.052 53.4913 77.592 53.4913 79.804V79.916C53.4913 82.17 54.9613 83.626 57.0333 83.626ZM54.7373 79.132C54.9333 77.83 55.7313 77.018 56.9213 77.018C58.1253 77.018 58.9093 77.62 59.0213 79.132H54.7373ZM61.9944 83.5H63.1564V79.062C63.1564 77.746 64.1224 77.06 65.2004 77.06C66.3764 77.06 66.9224 77.634 66.9224 78.922V83.5H68.0844V79.006C68.0844 76.878 67.0204 76.052 65.5084 76.052C64.3044 76.052 63.4924 76.654 63.1564 77.34V76.178H61.9944V83.5ZM72.5875 83.598C73.0635 83.598 73.3435 83.528 73.5815 83.444V82.464C73.3295 82.562 73.0495 82.618 72.6855 82.618C72.0975 82.618 71.7755 82.268 71.7755 81.554V77.158H73.4835V76.178H71.7755V74.512H70.6135V76.178H69.5635V77.158H70.6135V81.666C70.6135 82.814 71.2575 83.598 72.5875 83.598ZM81.6892 83.5H83.1452L86.6032 73.49H85.4552L82.4732 82.324L79.4912 73.49H78.2872L81.6892 83.5ZM89.5452 83.626C90.6232 83.626 91.2812 83.262 91.8272 82.576V83.5H92.9892V78.67C92.9892 76.626 91.7152 76.052 90.3152 76.052C88.9012 76.052 87.5712 76.668 87.4172 78.334H88.5792C88.6912 77.438 89.2512 77.018 90.2592 77.018C91.3792 77.018 91.8272 77.508 91.8272 78.67V79.202H90.7772C88.9012 79.202 87.1092 79.776 87.1092 81.47C87.1092 82.968 88.1872 83.626 89.5452 83.626ZM89.6572 82.702C88.6352 82.702 88.2712 82.226 88.2712 81.47C88.2712 80.392 89.3492 80.028 90.8192 80.028H91.8272V80.938C91.8272 82.072 90.8892 82.702 89.6572 82.702ZM95.2997 83.5H96.4757V72.678H95.2997V83.5ZM101.332 83.626C102.508 83.626 103.32 83.024 103.656 82.338V83.5H104.818V76.178H103.656V80.616C103.656 81.932 102.676 82.618 101.64 82.618C100.492 82.618 99.9457 82.044 99.9457 80.756V76.178H98.7837V80.812C98.7837 82.828 99.8757 83.626 101.332 83.626ZM110.162 83.626C111.814 83.626 113.032 82.856 113.284 81.386H112.122C111.968 82.24 111.31 82.66 110.176 82.66C108.678 82.66 107.88 81.736 107.824 80.07H113.34V79.692C113.34 77.074 111.744 76.052 110.05 76.052C108.034 76.052 106.62 77.592 106.62 79.804V79.916C106.62 82.17 108.09 83.626 110.162 83.626ZM107.866 79.132C108.062 77.83 108.86 77.018 110.05 77.018C111.254 77.018 112.038 77.62 112.15 79.132H107.866Z" fill="#535B62"/>
<path fill-rule="evenodd" clip-rule="evenodd" d="M231.065 63.0235L227.598 66.2271C227.192 66.6019 227.167 67.2346 227.542 67.6402C227.917 68.0459 228.549 68.0709 228.955 67.6961L234.3 62.7582C234.736 62.3555 234.727 61.664 234.281 61.2724L228.936 56.5769C228.521 56.2124 227.89 56.2532 227.525 56.6681C227.161 57.083 227.201 57.7149 227.616 58.0794L230.968 61.0235L220.465 61.0237C219.913 61.0237 219.465 61.4714 219.465 62.0237C219.465 62.576 219.913 63.0237 220.465 63.0237L231.065 63.0235Z" fill="#151E28"/>
<path d="M322.88 56.5L318.56 48.964V47.188H320C320.576 47.188 321.08 47.108 321.512 46.948C321.96 46.772 322.328 46.524 322.616 46.204C322.92 45.884 323.128 45.5 323.24 45.052H318.56V43.276H323.216C323.12 42.86 322.952 42.492 322.712 42.172C322.488 41.852 322.184 41.604 321.8 41.428C321.432 41.236 320.984 41.14 320.456 41.14H318.56V39.364H329.384V41.14H325.616C325.888 41.444 326.112 41.772 326.288 42.124C326.48 42.476 326.608 42.86 326.672 43.276H329.384V45.052H326.72C326.56 46.236 326.104 47.164 325.352 47.836C324.6 48.492 323.632 48.94 322.448 49.18L327.152 56.5H322.88ZM337.694 56.74C342.302 56.74 344.87 53.596 344.87 47.98V47.212C344.87 42.268 342.59 39.076 337.862 39.076C333.758 39.076 331.214 41.476 331.214 45.028C331.214 48.508 333.638 50.572 336.95 50.572C339.014 50.572 340.262 49.732 341.054 48.484C340.982 51.988 339.854 53.788 337.574 53.788C335.942 53.788 335.246 53.044 335.006 51.868H331.382C331.766 54.964 333.974 56.74 337.694 56.74ZM337.814 47.98C336.086 47.98 334.982 46.732 334.982 44.932C334.982 43.132 336.11 41.884 337.814 41.884C339.566 41.884 340.742 43.108 340.742 45.1C340.742 46.78 339.566 47.98 337.814 47.98ZM346.852 59.452L350.116 53.86L346.852 52.636L344.74 58.564L346.852 59.452ZM357.57 56.74C362.178 56.74 364.746 53.596 364.746 47.98V47.212C364.746 42.268 362.466 39.076 357.738 39.076C353.634 39.076 351.09 41.476 351.09 45.028C351.09 48.508 353.514 50.572 356.826 50.572C358.89 50.572 360.138 49.732 360.93 48.484C360.858 51.988 359.73 53.788 357.45 53.788C355.818 53.788 355.122 53.044 354.882 51.868H351.258C351.642 54.964 353.85 56.74 357.57 56.74ZM357.69 47.98C355.962 47.98 354.858 46.732 354.858 44.932C354.858 43.132 355.986 41.884 357.69 41.884C359.442 41.884 360.618 43.108 360.618 45.1C360.618 46.78 359.442 47.98 357.69 47.98ZM372.823 56.764C376.639 56.764 379.519 54.916 379.519 51.556C379.519 49.516 378.391 48.028 376.375 47.332C377.887 46.66 378.871 45.484 378.871 43.756C378.871 40.828 376.135 39.1 372.847 39.1C369.631 39.1 366.775 40.804 366.775 43.78C366.775 45.508 367.711 46.708 369.271 47.356C367.303 48.052 366.103 49.564 366.103 51.652C366.103 55.012 369.031 56.764 372.823 56.764ZM372.823 53.932C371.239 53.932 369.967 52.996 369.967 51.292C369.967 49.588 371.263 48.652 372.847 48.652C374.455 48.652 375.679 49.588 375.679 51.268C375.679 52.972 374.455 53.932 372.823 53.932ZM372.871 46.276C371.527 46.276 370.399 45.436 370.399 44.044C370.399 42.652 371.479 41.812 372.847 41.812C374.215 41.812 375.271 42.7 375.271 44.02C375.271 45.436 374.263 46.276 372.871 46.276ZM382.186 59.452L385.45 53.86L382.186 52.636L380.074 58.564L382.186 59.452ZM392.967 56.764C396.927 56.764 399.543 54.436 399.543 50.788C399.543 47.14 397.407 45.004 394.287 45.004C392.343 45.004 391.143 45.772 390.471 46.588L390.543 42.292H398.511V39.34H387.639L387.399 49.108H389.559C390.255 48.316 391.239 47.74 392.847 47.74C394.575 47.74 395.631 48.892 395.631 50.74C395.631 52.564 394.695 53.788 392.943 53.788C390.975 53.788 390.399 52.828 390.183 51.388H386.607C386.775 54.46 388.743 56.764 392.967 56.764ZM408.647 53.716C406.247 53.716 404.975 51.916 404.975 48.316V47.5C404.975 43.948 406.199 42.1 408.599 42.1C410.975 42.1 412.175 44.044 412.175 47.5V48.268C412.175 51.868 411.071 53.716 408.647 53.716ZM408.551 56.764C413.183 56.764 416.039 53.5 416.039 48.244V47.452C416.039 42.124 412.991 39.1 408.575 39.1C404.159 39.1 401.087 42.244 401.087 47.524V48.34C401.087 53.596 403.991 56.764 408.551 56.764ZM425.216 56.5H428.984V53.092H431.24V50.308H428.984V39.34H424.208L416.792 51.676V53.092H425.216V56.5ZM420.68 50.308L425.288 42.268V50.308H420.68Z" fill="#151E28"/>
<path d="M337.26 83.5H338.478V79.02H342.09V78.026H338.478V74.484H343.112V73.49H337.26V83.5ZM347.447 82.66C345.963 82.66 345.053 81.568 345.053 79.902V79.79C345.053 78.11 345.977 77.018 347.447 77.018C348.903 77.018 349.841 78.11 349.841 79.804V79.902C349.841 81.554 348.917 82.66 347.447 82.66ZM347.433 83.626C349.519 83.626 351.045 82.1 351.045 79.888V79.776C351.045 77.578 349.519 76.052 347.447 76.052C345.375 76.052 343.849 77.592 343.849 79.79V79.902C343.849 82.044 345.347 83.626 347.433 83.626ZM352.844 83.5H354.006V79.482C354.006 77.676 354.944 77.214 356.414 77.144V76.052C355.098 76.094 354.468 76.668 354.006 77.494V76.178H352.844V83.5ZM360.899 83.626C362.551 83.626 363.769 82.856 364.021 81.386H362.859C362.705 82.24 362.047 82.66 360.913 82.66C359.415 82.66 358.617 81.736 358.561 80.07H364.077V79.692C364.077 77.074 362.481 76.052 360.787 76.052C358.771 76.052 357.357 77.592 357.357 79.804V79.916C357.357 82.17 358.827 83.626 360.899 83.626ZM358.603 79.132C358.799 77.83 359.597 77.018 360.787 77.018C361.991 77.018 362.775 77.62 362.887 79.132H358.603ZM368.898 83.626C370.662 83.626 371.936 82.45 372.09 80.868H371.012C370.886 82.058 369.948 82.66 368.912 82.66C367.498 82.66 366.518 81.708 366.518 79.916V79.804C366.518 78.082 367.54 77.018 368.87 77.018C369.878 77.018 370.718 77.452 370.9 78.614H372.048C371.824 76.752 370.396 76.052 368.87 76.052C366.91 76.052 365.314 77.564 365.314 79.804V79.916C365.314 82.184 366.854 83.626 368.898 83.626ZM375.678 83.626C376.756 83.626 377.414 83.262 377.96 82.576V83.5H379.122V78.67C379.122 76.626 377.848 76.052 376.448 76.052C375.034 76.052 373.704 76.668 373.55 78.334H374.712C374.824 77.438 375.384 77.018 376.392 77.018C377.512 77.018 377.96 77.508 377.96 78.67V79.202H376.91C375.034 79.202 373.242 79.776 373.242 81.47C373.242 82.968 374.32 83.626 375.678 83.626ZM375.79 82.702C374.768 82.702 374.404 82.226 374.404 81.47C374.404 80.392 375.482 80.028 376.952 80.028H377.96V80.938C377.96 82.072 377.022 82.702 375.79 82.702ZM383.673 83.626C385.451 83.626 386.361 82.73 386.361 81.4C386.361 79.846 385.297 79.51 383.785 79.23C382.441 78.992 382.077 78.726 382.077 78.068C382.077 77.438 382.623 77.018 383.463 77.018C384.387 77.018 384.835 77.368 385.003 78.166H386.123C385.927 76.584 384.793 76.052 383.477 76.052C382.329 76.052 380.999 76.752 380.999 78.11C380.999 79.384 381.643 79.916 383.547 80.266C384.681 80.476 385.255 80.728 385.255 81.498C385.255 82.282 384.765 82.66 383.659 82.66C382.483 82.66 382.021 82.114 381.937 81.246H380.803C380.873 82.744 381.923 83.626 383.673 83.626ZM390.357 83.598C390.833 83.598 391.113 83.528 391.351 83.444V82.464C391.099 82.562 390.819 82.618 390.455 82.618C389.867 82.618 389.545 82.268 389.545 81.554V77.158H391.253V76.178H389.545V74.512H388.383V76.178H387.333V77.158H388.383V81.666C388.383 82.814 389.027 83.598 390.357 83.598ZM399.459 83.5H400.915L404.373 73.49H403.225L400.243 82.324L397.261 73.49H396.057L399.459 83.5ZM407.315 83.626C408.393 83.626 409.051 83.262 409.597 82.576V83.5H410.759V78.67C410.759 76.626 409.485 76.052 408.085 76.052C406.671 76.052 405.341 76.668 405.187 78.334H406.349C406.461 77.438 407.021 77.018 408.029 77.018C409.149 77.018 409.597 77.508 409.597 78.67V79.202H408.547C406.671 79.202 404.879 79.776 404.879 81.47C404.879 82.968 405.957 83.626 407.315 83.626ZM407.427 82.702C406.405 82.702 406.041 82.226 406.041 81.47C406.041 80.392 407.119 80.028 408.589 80.028H409.597V80.938C409.597 82.072 408.659 82.702 407.427 82.702ZM413.069 83.5H414.245V72.678H413.069V83.5ZM419.101 83.626C420.277 83.626 421.089 83.024 421.425 82.338V83.5H422.587V76.178H421.425V80.616C421.425 81.932 420.445 82.618 419.409 82.618C418.261 82.618 417.715 82.044 417.715 80.756V76.178H416.553V80.812C416.553 82.828 417.645 83.626 419.101 83.626ZM427.932 83.626C429.584 83.626 430.802 82.856 431.054 81.386H429.892C429.738 82.24 429.08 82.66 427.946 82.66C426.448 82.66 425.65 81.736 425.594 80.07H431.11V79.692C431.11 77.074 429.514 76.052 427.82 76.052C425.804 76.052 424.39 77.592 424.39 79.804V79.916C424.39 82.17 425.86 83.626 427.932 83.626ZM425.636 79.132C425.832 77.83 426.63 77.018 427.82 77.018C429.024 77.018 429.808 77.62 429.92 79.132H425.636Z" fill="#535B62"/>
<path d="M24 117.5C24 113.082 27.5817 109.5 32 109.5H363.926V135.5H32C27.5817 135.5 24 131.918 24 127.5V117.5Z" fill="#9FDEFF"/>
<path d="M363.926 109.5H424C428.418 109.5 432 113.082 432 117.5V127.5C432 131.918 428.418 135.5 424 135.5H363.926V109.5Z" fill="#52DEBA"/>
</g>
<path d="M14.928 235H17.072V223.56H15.168L12.512 225.448V227.32L14.928 225.672V235ZM22.7671 235H24.9111V230.056L28.4951 223.56H26.4151L23.9031 228.296L21.3271 223.56H18.9751L22.7671 230.04V235ZM33.8901 235H36.0181V230.312H39.9221V228.664H36.0181V225.256H40.9781V223.56H33.8901V235ZM46.0054 233.656C44.5334 233.656 43.6854 232.584 43.6854 230.872V230.744C43.6854 229.016 44.5654 227.976 46.0054 227.976C47.4454 227.976 48.3094 229.032 48.3094 230.76V230.872C48.3094 232.584 47.4454 233.656 46.0054 233.656ZM45.9894 235.16C48.4534 235.16 50.2934 233.464 50.2934 230.856V230.728C50.2934 228.168 48.4534 226.456 46.0054 226.456C43.5414 226.456 41.7014 228.184 41.7014 230.776V230.904C41.7014 233.448 43.5254 235.16 45.9894 235.16ZM52.0426 235H53.9786V230.648C53.9786 228.872 55.0026 228.328 56.6986 228.312V226.504C55.2906 226.52 54.5066 227.144 53.9786 228.2V226.632H52.0426V235ZM61.9258 235.16C64.0698 235.16 65.4938 234.2 65.7658 232.44H63.8938C63.7498 233.256 63.1418 233.72 61.9738 233.72C60.5338 233.72 59.7338 232.824 59.6698 231.24H65.7978V230.68C65.7978 227.688 63.9258 226.456 61.8458 226.456C59.4618 226.456 57.6858 228.184 57.6858 230.776V230.904C57.6858 233.544 59.4618 235.16 61.9258 235.16ZM59.7018 229.944C59.8938 228.648 60.6778 227.864 61.8458 227.864C63.0458 227.864 63.7818 228.504 63.8778 229.944H59.7018ZM71.191 235.16C73.463 235.16 74.919 233.8 75.063 231.88H73.287C73.175 233.064 72.295 233.672 71.271 233.672C69.847 233.672 68.951 232.712 68.951 230.888V230.76C68.951 229.032 69.895 228.008 71.223 228.008C72.247 228.008 72.983 228.472 73.143 229.592H75.015C74.791 227.288 73.047 226.456 71.191 226.456C68.855 226.456 66.967 228.136 66.967 230.792V230.92C66.967 233.592 68.791 235.16 71.191 235.16ZM78.9221 235.16C80.2021 235.16 80.9381 234.696 81.4821 233.976V235H83.3861V229.512C83.3861 227.224 81.9141 226.456 80.0421 226.456C78.1701 226.456 76.6181 227.272 76.4581 229.224H78.3301C78.4261 228.392 78.9221 227.912 79.9301 227.912C81.0661 227.912 81.4501 228.472 81.4501 229.592V230.024H80.4101C78.0101 230.024 76.1221 230.728 76.1221 232.68C76.1221 234.424 77.3861 235.16 78.9221 235.16ZM79.3861 233.768C78.4261 233.768 78.0421 233.304 78.0421 232.6C78.0421 231.576 78.9861 231.24 80.4581 231.24H81.4501V232.072C81.4501 233.144 80.5701 233.768 79.3861 233.768ZM88.4691 235.16C90.6131 235.16 91.8131 234.184 91.8131 232.488C91.8131 230.712 90.6451 230.232 88.6771 229.928C87.3491 229.704 86.9491 229.464 86.9491 228.856C86.9491 228.264 87.4451 227.864 88.2771 227.864C89.1731 227.864 89.6051 228.216 89.7651 228.984H91.5571C91.3491 227.096 89.9891 226.456 88.2771 226.456C86.7091 226.456 85.1411 227.288 85.1411 228.968C85.1411 230.536 85.9571 231.16 88.1651 231.512C89.3971 231.72 89.9571 231.976 89.9571 232.664C89.9571 233.368 89.4931 233.736 88.4531 233.736C87.3171 233.736 86.8851 233.24 86.7891 232.392H84.9651C85.0451 234.168 86.3091 235.16 88.4691 235.16ZM96.3594 235.144C96.9514 235.144 97.3674 235.048 97.6714 234.936V233.4C97.3994 233.512 97.1114 233.56 96.7274 233.56C96.1194 233.56 95.7674 233.224 95.7674 232.488V228.088H97.6074V226.632H95.7674V224.792H93.8314V226.632H92.7114V228.088H93.8314V232.664C93.8314 234.248 94.6954 235.144 96.3594 235.144Z" fill="#2F363F"/>
<path d="M358.256 231.696H360.68V226.944H365.072V224.688H360.68V219.936H358.256V224.688H353.888V226.944H358.256V231.696ZM369.85 234H373.066V216.84H370.21L366.226 219.672V222.48L369.85 220.008V234ZM382.163 234.216C386.579 234.216 389.075 231.072 389.075 225.432V224.544C389.075 219.6 386.867 216.576 382.379 216.576C378.467 216.576 376.019 218.952 376.019 222.456C376.019 225.84 378.395 228.024 381.707 228.024C383.747 228.024 385.139 227.16 385.931 225.864C385.883 229.776 384.563 231.744 382.115 231.744C380.267 231.744 379.475 230.88 379.163 229.536H376.163C376.571 232.488 378.659 234.216 382.163 234.216ZM382.379 225.792C380.411 225.792 379.163 224.424 379.163 222.36C379.163 220.32 380.435 218.952 382.355 218.952C384.323 218.952 385.691 220.296 385.691 222.6C385.691 224.496 384.323 225.792 382.379 225.792ZM391.977 234.168C393.057 234.168 393.897 233.352 393.897 232.296C393.897 231.24 393.057 230.4 391.977 230.4C390.921 230.4 390.081 231.24 390.081 232.296C390.081 233.352 390.921 234.168 391.977 234.168ZM402.279 231.696C399.711 231.696 398.223 229.728 398.223 225.84V224.976C398.223 221.16 399.639 219.096 402.231 219.096C404.799 219.096 406.191 221.304 406.191 224.952V225.792C406.191 229.68 404.919 231.696 402.279 231.696ZM402.207 234.24C406.695 234.24 409.383 230.952 409.383 225.792V224.928C409.383 219.768 406.551 216.6 402.207 216.6C397.887 216.6 395.007 219.792 395.007 225V225.864C395.007 231.024 397.839 234.24 402.207 234.24ZM417.31 234.24C421.246 234.24 423.742 232.272 423.742 229.104C423.742 226.824 422.422 225.408 420.43 224.952C422.086 224.328 423.214 223.152 423.214 221.208C423.214 218.664 421.126 216.6 417.55 216.6C413.878 216.6 411.646 218.88 411.478 221.856H414.31C414.502 220.128 415.678 219.024 417.502 219.024C419.278 219.024 420.166 220.056 420.166 221.448C420.166 223.056 419.278 223.968 417.31 223.968H416.086V226.248H417.406C419.494 226.248 420.502 227.184 420.502 229.056C420.502 230.76 419.47 231.84 417.238 231.84C414.934 231.84 413.926 230.496 413.758 228.696H410.854C410.998 231.984 413.23 234.24 417.31 234.24ZM429.173 223.056C428.045 223.056 427.325 222.288 427.325 220.824C427.325 219.384 428.045 218.592 429.173 218.592C430.301 218.592 430.997 219.432 430.997 220.824C430.997 222.24 430.301 223.056 429.173 223.056ZM429.149 225C431.501 225 433.325 223.224 433.325 220.8C433.325 218.4 431.477 216.672 429.173 216.672C426.869 216.672 424.973 218.448 424.973 220.848C424.973 223.224 426.797 225 429.149 225ZM427.325 234H429.365L440.405 216.84H438.389L427.325 234ZM438.581 232.296C437.453 232.296 436.733 231.528 436.733 230.064C436.733 228.624 437.453 227.832 438.581 227.832C439.709 227.832 440.405 228.672 440.405 230.064C440.405 231.48 439.709 232.296 438.581 232.296ZM438.557 234.24C440.909 234.24 442.757 232.464 442.757 230.04C442.757 227.64 440.885 225.912 438.581 225.912C436.277 225.912 434.405 227.688 434.405 230.088C434.405 232.464 436.205 234.24 438.557 234.24Z" fill="#19AF55"/>
<defs>
<filter id="filter0_d_6559_59214" x="0" y="0" width="456" height="194" filterUnits="userSpaceOnUse" color-interpolation-filters="sRGB">
<feFlood flood-opacity="0" result="BackgroundImageFix"/>
<feColorMatrix in="SourceAlpha" type="matrix" values="0 0 0 0 0 0 0 0 0 0 0 0 0 0 0 0 0 0 127 0" result="hardAlpha"/>
<feMorphology radius="32" operator="erode" in="SourceAlpha" result="effect1_dropShadow_6559_59214"/>
<feOffset dy="10"/>
<feGaussianBlur stdDeviation="10"/>
<feComposite in2="hardAlpha" operator="out"/>
<feColorMatrix type="matrix" values="0 0 0 0 0.3625 0 0 0 0 0.318629 0 0 0 0 0.25526 0 0 0 0.02 0"/>
<feBlend mode="normal" in2="BackgroundImageFix" result="effect1_dropShadow_6559_59214"/>
<feBlend mode="normal" in="SourceGraphic" in2="effect1_dropShadow_6559_59214" result="shape"/>
</filter>
</defs>
</svg>
