<svg width="551" height="328" viewBox="0 0 551 328" fill="none" xmlns="http://www.w3.org/2000/svg">
<rect opacity="0.7" x="99.5" y="16.5" width="430" height="299" rx="23.5" stroke="white"/>
<rect x="116.5" y="31.5" width="398" height="268" rx="23.5" stroke="white"/>
<rect opacity="0.4" x="82.5" y="4.5" width="460" height="323" rx="23.5" stroke="white"/>
<g filter="url(#filter0_d_6455_59925)">
<rect x="8" y="71" width="472" height="189" rx="24" fill="white" fill-opacity="0.95" shape-rendering="crispEdges"/>
<path d="M190.08 232.5H195.048V231.648H191.124V223.92H190.08V232.5ZM198.002 232.608C198.926 232.608 199.49 232.296 199.958 231.708V232.5H200.954V228.36C200.954 226.608 199.862 226.116 198.662 226.116C197.45 226.116 196.31 226.644 196.178 228.072H197.174C197.27 227.304 197.75 226.944 198.614 226.944C199.574 226.944 199.958 227.364 199.958 228.36V228.816H199.058C197.45 228.816 195.914 229.308 195.914 230.76C195.914 232.044 196.838 232.608 198.002 232.608ZM198.098 231.816C197.222 231.816 196.91 231.408 196.91 230.76C196.91 229.836 197.834 229.524 199.094 229.524H199.958V230.304C199.958 231.276 199.154 231.816 198.098 231.816ZM204.854 232.608C206.378 232.608 207.158 231.84 207.158 230.7C207.158 229.368 206.246 229.08 204.95 228.84C203.798 228.636 203.486 228.408 203.486 227.844C203.486 227.304 203.954 226.944 204.674 226.944C205.466 226.944 205.85 227.244 205.994 227.928H206.954C206.786 226.572 205.814 226.116 204.686 226.116C203.702 226.116 202.562 226.716 202.562 227.88C202.562 228.972 203.114 229.428 204.746 229.728C205.718 229.908 206.21 230.124 206.21 230.784C206.21 231.456 205.79 231.78 204.842 231.78C203.834 231.78 203.438 231.312 203.366 230.568H202.394C202.454 231.852 203.354 232.608 204.854 232.608ZM210.584 232.584C210.992 232.584 211.232 232.524 211.436 232.452V231.612C211.22 231.696 210.98 231.744 210.668 231.744C210.164 231.744 209.888 231.444 209.888 230.832V227.064H211.352V226.224H209.888V224.796H208.892V226.224H207.992V227.064H208.892V230.928C208.892 231.912 209.444 232.584 210.584 232.584ZM218.241 232.608C219.249 232.608 219.945 232.092 220.233 231.504V232.5H221.229V226.224H220.233V230.028C220.233 231.156 219.393 231.744 218.505 231.744C217.521 231.744 217.053 231.252 217.053 230.148V226.224H216.057V230.196C216.057 231.924 216.993 232.608 218.241 232.608ZM223.242 234.684H224.238V231.468C224.598 232.092 225.33 232.608 226.362 232.608C228.09 232.608 229.218 231.288 229.218 229.368V229.272C229.218 227.316 228.006 226.116 226.362 226.116C225.45 226.116 224.598 226.668 224.238 227.28V226.224H223.242V234.684ZM226.266 231.78C225.042 231.78 224.202 231.024 224.202 229.416V229.32C224.202 227.712 225.09 226.944 226.254 226.944C227.31 226.944 228.186 227.736 228.186 229.32V229.416C228.186 230.94 227.514 231.78 226.266 231.78ZM233.13 232.608C234.042 232.608 234.918 232.032 235.278 231.42V232.5H236.274V223.224H235.278V227.232C234.918 226.62 234.27 226.116 233.226 226.116C231.498 226.116 230.298 227.472 230.298 229.392V229.488C230.298 231.444 231.486 232.608 233.13 232.608ZM233.238 231.78C232.182 231.78 231.33 231.024 231.33 229.44V229.344C231.33 227.82 232.074 226.944 233.322 226.944C234.546 226.944 235.314 227.7 235.314 229.308V229.404C235.314 231.012 234.402 231.78 233.238 231.78ZM239.861 232.608C240.785 232.608 241.349 232.296 241.817 231.708V232.5H242.813V228.36C242.813 226.608 241.721 226.116 240.521 226.116C239.309 226.116 238.169 226.644 238.037 228.072H239.033C239.129 227.304 239.609 226.944 240.473 226.944C241.433 226.944 241.817 227.364 241.817 228.36V228.816H240.917C239.309 228.816 237.773 229.308 237.773 230.76C237.773 232.044 238.697 232.608 239.861 232.608ZM239.957 231.816C239.081 231.816 238.769 231.408 238.769 230.76C238.769 229.836 239.693 229.524 240.953 229.524H241.817V230.304C241.817 231.276 241.013 231.816 239.957 231.816ZM246.678 232.584C247.086 232.584 247.326 232.524 247.53 232.452V231.612C247.314 231.696 247.074 231.744 246.762 231.744C246.258 231.744 245.982 231.444 245.982 230.832V227.064H247.446V226.224H245.982V224.796H244.986V226.224H244.086V227.064H244.986V230.928C244.986 231.912 245.538 232.584 246.678 232.584ZM251.603 232.608C253.019 232.608 254.063 231.948 254.279 230.688H253.283C253.151 231.42 252.587 231.78 251.615 231.78C250.331 231.78 249.647 230.988 249.599 229.56H254.327V229.236C254.327 226.992 252.959 226.116 251.507 226.116C249.779 226.116 248.567 227.436 248.567 229.332V229.428C248.567 231.36 249.827 232.608 251.603 232.608ZM249.635 228.756C249.803 227.64 250.487 226.944 251.507 226.944C252.539 226.944 253.211 227.46 253.307 228.756H249.635ZM258.22 232.608C259.132 232.608 260.008 232.032 260.368 231.42V232.5H261.364V223.224H260.368V227.232C260.008 226.62 259.36 226.116 258.316 226.116C256.588 226.116 255.388 227.472 255.388 229.392V229.488C255.388 231.444 256.576 232.608 258.22 232.608ZM258.328 231.78C257.272 231.78 256.42 231.024 256.42 229.44V229.344C256.42 227.82 257.164 226.944 258.412 226.944C259.636 226.944 260.404 227.7 260.404 229.308V229.404C260.404 231.012 259.492 231.78 258.328 231.78ZM268.463 232.584C268.871 232.584 269.111 232.524 269.315 232.452V231.612C269.099 231.696 268.859 231.744 268.547 231.744C268.043 231.744 267.767 231.444 267.767 230.832V227.064H269.231V226.224H267.767V224.796H266.771V226.224H265.871V227.064H266.771V230.928C266.771 231.912 267.323 232.584 268.463 232.584ZM273.437 231.78C272.165 231.78 271.385 230.844 271.385 229.416V229.32C271.385 227.88 272.177 226.944 273.437 226.944C274.685 226.944 275.489 227.88 275.489 229.332V229.416C275.489 230.832 274.697 231.78 273.437 231.78ZM273.425 232.608C275.213 232.608 276.521 231.3 276.521 229.404V229.308C276.521 227.424 275.213 226.116 273.437 226.116C271.661 226.116 270.353 227.436 270.353 229.32V229.416C270.353 231.252 271.637 232.608 273.425 232.608ZM280.427 232.608C281.339 232.608 282.215 232.032 282.575 231.42V232.5H283.571V223.224H282.575V227.232C282.215 226.62 281.567 226.116 280.523 226.116C278.795 226.116 277.595 227.472 277.595 229.392V229.488C277.595 231.444 278.783 232.608 280.427 232.608ZM280.535 231.78C279.479 231.78 278.627 231.024 278.627 229.44V229.344C278.627 227.82 279.371 226.944 280.619 226.944C281.843 226.944 282.611 227.7 282.611 229.308V229.404C282.611 231.012 281.699 231.78 280.535 231.78ZM287.158 232.608C288.082 232.608 288.646 232.296 289.114 231.708V232.5H290.11V228.36C290.11 226.608 289.018 226.116 287.818 226.116C286.606 226.116 285.466 226.644 285.334 228.072H286.33C286.426 227.304 286.906 226.944 287.77 226.944C288.73 226.944 289.114 227.364 289.114 228.36V228.816H288.214C286.606 228.816 285.07 229.308 285.07 230.76C285.07 232.044 285.994 232.608 287.158 232.608ZM287.254 231.816C286.378 231.816 286.066 231.408 286.066 230.76C286.066 229.836 286.99 229.524 288.25 229.524H289.114V230.304C289.114 231.276 288.31 231.816 287.254 231.816ZM292.455 234.684H293.463L296.931 226.224H295.911L294.171 230.724L292.251 226.224H291.183L293.643 231.852L292.455 234.684Z" fill="#2F363F"/>
<path d="M32.26 130H33.422V121.418L38.476 130H39.876V119.99H38.714V128.264L33.842 119.99H32.26V130ZM45.3029 130.126C46.9549 130.126 48.1729 129.356 48.4249 127.886H47.2629C47.1089 128.74 46.4509 129.16 45.3169 129.16C43.8189 129.16 43.0209 128.236 42.9649 126.57H48.4809V126.192C48.4809 123.574 46.8849 122.552 45.1909 122.552C43.1749 122.552 41.7609 124.092 41.7609 126.304V126.416C41.7609 128.67 43.2309 130.126 45.3029 130.126ZM43.0069 125.632C43.2029 124.33 44.0009 123.518 45.1909 123.518C46.3949 123.518 47.1789 124.12 47.2909 125.632H43.0069ZM52.4899 130.098C52.9659 130.098 53.2459 130.028 53.4839 129.944V128.964C53.2319 129.062 52.9519 129.118 52.5879 129.118C51.9999 129.118 51.6779 128.768 51.6779 128.054V123.658H53.3859V122.678H51.6779V121.012H50.5159V122.678H49.4659V123.658H50.5159V128.166C50.5159 129.314 51.1599 130.098 52.4899 130.098ZM60.8495 130H61.9555L64.2935 122.09L66.5615 130H67.6815L70.2855 119.99H69.1515L67.0935 128.096L64.7415 119.99H63.8735L61.5215 128.068L59.4915 119.99H58.2455L60.8495 130ZM74.4253 129.16C72.9413 129.16 72.0313 128.068 72.0313 126.402V126.29C72.0313 124.61 72.9553 123.518 74.4253 123.518C75.8813 123.518 76.8193 124.61 76.8193 126.304V126.402C76.8193 128.054 75.8953 129.16 74.4253 129.16ZM74.4113 130.126C76.4973 130.126 78.0233 128.6 78.0233 126.388V126.276C78.0233 124.078 76.4973 122.552 74.4253 122.552C72.3533 122.552 70.8273 124.092 70.8273 126.29V126.402C70.8273 128.544 72.3253 130.126 74.4113 130.126ZM79.8225 130H80.9845V125.982C80.9845 124.176 81.9225 123.714 83.3925 123.644V122.552C82.0765 122.594 81.4465 123.168 80.9845 123.994V122.678H79.8225V130ZM87.3805 130.098C87.8565 130.098 88.1365 130.028 88.3745 129.944V128.964C88.1225 129.062 87.8425 129.118 87.4785 129.118C86.8905 129.118 86.5685 128.768 86.5685 128.054V123.658H88.2765V122.678H86.5685V121.012H85.4065V122.678H84.3565V123.658H85.4065V128.166C85.4065 129.314 86.0505 130.098 87.3805 130.098ZM90.1311 130H91.2931V125.562C91.2931 124.246 92.2591 123.56 93.3371 123.56C94.5131 123.56 95.0591 124.134 95.0591 125.422V130H96.2211V125.506C96.2211 123.378 95.1571 122.552 93.6451 122.552C92.4411 122.552 91.6291 123.154 91.2931 123.84V119.178H90.1311V130Z" fill="#2F363F"/>
<path d="M36.88 166L32.56 158.464V156.688H34C34.576 156.688 35.08 156.608 35.512 156.448C35.96 156.272 36.328 156.024 36.616 155.704C36.92 155.384 37.128 155 37.24 154.552H32.56V152.776H37.216C37.12 152.36 36.952 151.992 36.712 151.672C36.488 151.352 36.184 151.104 35.8 150.928C35.432 150.736 34.984 150.64 34.456 150.64H32.56V148.864H43.384V150.64H39.616C39.888 150.944 40.112 151.272 40.288 151.624C40.48 151.976 40.608 152.36 40.672 152.776H43.384V154.552H40.72C40.56 155.736 40.104 156.664 39.352 157.336C38.6 157.992 37.632 158.44 36.448 158.68L41.152 166H36.88ZM51.9344 166.264C55.7504 166.264 58.6304 164.416 58.6304 161.056C58.6304 159.016 57.5024 157.528 55.4864 156.832C56.9984 156.16 57.9824 154.984 57.9824 153.256C57.9824 150.328 55.2464 148.6 51.9584 148.6C48.7424 148.6 45.8864 150.304 45.8864 153.28C45.8864 155.008 46.8224 156.208 48.3824 156.856C46.4144 157.552 45.2144 159.064 45.2144 161.152C45.2144 164.512 48.1424 166.264 51.9344 166.264ZM51.9344 163.432C50.3504 163.432 49.0784 162.496 49.0784 160.792C49.0784 159.088 50.3744 158.152 51.9584 158.152C53.5664 158.152 54.7904 159.088 54.7904 160.768C54.7904 162.472 53.5664 163.432 51.9344 163.432ZM51.9824 155.776C50.6384 155.776 49.5104 154.936 49.5104 153.544C49.5104 152.152 50.5904 151.312 51.9584 151.312C53.3264 151.312 54.3824 152.2 54.3824 153.52C54.3824 154.936 53.3744 155.776 51.9824 155.776ZM61.2978 168.952L64.5618 163.36L61.2978 162.136L59.1858 168.064L61.2978 168.952ZM72.2048 166.264C76.3808 166.264 78.8528 164.224 78.8528 161.008C78.8528 158.824 77.5088 157.408 75.5168 156.976C77.2208 156.376 78.3488 155.176 78.3488 153.256C78.3488 150.568 76.1408 148.6 72.3728 148.6C68.4608 148.6 66.2288 150.904 66.0368 154.048H69.4688C69.6608 152.44 70.6688 151.456 72.3008 151.456C73.8848 151.456 74.6768 152.368 74.6768 153.592C74.6768 155.056 73.8608 155.872 72.0608 155.872H70.8128V158.464H72.1568C74.0048 158.464 74.9168 159.304 74.9168 160.936C74.9168 162.472 74.0048 163.408 72.0608 163.408C69.9968 163.408 69.1088 162.208 68.9648 160.552H65.4608C65.6048 164.032 67.8368 166.264 72.2048 166.264ZM86.8872 166.24C91.4952 166.24 94.0632 163.096 94.0632 157.48V156.712C94.0632 151.768 91.7832 148.576 87.0552 148.576C82.9512 148.576 80.4072 150.976 80.4072 154.528C80.4072 158.008 82.8312 160.072 86.1432 160.072C88.2072 160.072 89.4552 159.232 90.2472 157.984C90.1752 161.488 89.0472 163.288 86.7672 163.288C85.1352 163.288 84.4392 162.544 84.1992 161.368H80.5752C80.9592 164.464 83.1672 166.24 86.8872 166.24ZM87.0072 157.48C85.2792 157.48 84.1752 156.232 84.1752 154.432C84.1752 152.632 85.3032 151.384 87.0072 151.384C88.7592 151.384 89.9352 152.608 89.9352 154.6C89.9352 156.28 88.7592 157.48 87.0072 157.48ZM96.0452 168.952L99.3092 163.36L96.0452 162.136L93.9332 168.064L96.0452 168.952ZM107.494 163.216C105.094 163.216 103.822 161.416 103.822 157.816V157C103.822 153.448 105.046 151.6 107.446 151.6C109.822 151.6 111.022 153.544 111.022 157V157.768C111.022 161.368 109.918 163.216 107.494 163.216ZM107.398 166.264C112.03 166.264 114.886 163 114.886 157.744V156.952C114.886 151.624 111.838 148.6 107.422 148.6C103.006 148.6 99.9344 151.744 99.9344 157.024V157.84C99.9344 163.096 102.838 166.264 107.398 166.264ZM117.733 166H121.693L127.837 149.272V148.84H115.405V151.984H122.965L117.733 166ZM134.866 166.24C139.474 166.24 142.042 163.096 142.042 157.48V156.712C142.042 151.768 139.762 148.576 135.034 148.576C130.93 148.576 128.386 150.976 128.386 154.528C128.386 158.008 130.81 160.072 134.122 160.072C136.186 160.072 137.434 159.232 138.226 157.984C138.154 161.488 137.026 163.288 134.746 163.288C133.114 163.288 132.418 162.544 132.178 161.368H128.554C128.938 164.464 131.146 166.24 134.866 166.24ZM134.986 157.48C133.258 157.48 132.154 156.232 132.154 154.432C132.154 152.632 133.282 151.384 134.986 151.384C136.738 151.384 137.914 152.608 137.914 154.6C137.914 156.28 136.738 157.48 134.986 157.48Z" fill="#151E28"/>
<rect x="165" y="105" width="1" height="76" fill="url(#paint0_linear_6455_59925)"/>
<path opacity="0.8" d="M304.066 125.656H305.48V122.884H308.042V121.568H305.48V118.796H304.066V121.568H301.518V122.884H304.066V125.656ZM311.109 127H312.985V116.99H311.319L308.995 118.642V120.28L311.109 118.838V127ZM315.649 128.722L317.483 125.586L315.873 124.942L314.599 128.26L315.649 128.722ZM319.804 127H321.68V116.99H320.014L317.69 118.642V120.28L319.804 118.838V127ZM324.955 127H326.873L330.513 117.214V116.99H323.513V118.502H328.175L324.955 127ZM330.702 128.722L332.536 125.586L330.926 124.942L329.652 128.26L330.702 128.722ZM338.314 127H340.12V124.97H341.464V123.584H340.12V116.99H337.782L333.358 124.312V124.97H338.314V127ZM335.346 123.584L338.342 118.404V123.584H335.346ZM346.527 127.14C348.795 127.14 350.223 125.768 350.223 123.738C350.223 121.792 348.851 120.476 346.933 120.476C345.743 120.476 344.917 120.994 344.455 121.764C344.511 119.482 345.393 118.292 346.737 118.292C347.703 118.292 348.095 118.74 348.277 119.496H350.013C349.775 117.746 348.571 116.85 346.751 116.85C344.357 116.85 342.607 118.74 342.607 122.212V122.45C342.607 125.096 343.615 127.14 346.527 127.14ZM346.499 125.768C345.365 125.768 344.567 124.998 344.567 123.668C344.567 122.562 345.365 121.764 346.499 121.764C347.647 121.764 348.375 122.576 348.375 123.78C348.375 124.97 347.619 125.768 346.499 125.768ZM355.749 125.656C354.251 125.656 353.383 124.508 353.383 122.24V121.736C353.383 119.51 354.209 118.306 355.721 118.306C357.219 118.306 358.031 119.594 358.031 121.722V122.212C358.031 124.48 357.289 125.656 355.749 125.656ZM355.707 127.14C358.325 127.14 359.893 125.222 359.893 122.212V121.708C359.893 118.698 358.241 116.85 355.707 116.85C353.187 116.85 351.507 118.712 351.507 121.75V122.254C351.507 125.264 353.159 127.14 355.707 127.14ZM366.927 129.072H368.411C367.277 127.56 366.283 125.53 366.283 122.618C366.283 119.72 367.277 117.676 368.411 116.164H366.927C365.723 117.592 364.603 119.706 364.603 122.618C364.603 125.544 365.723 127.644 366.927 129.072ZM371.701 125.656H373.115V122.884H375.677V121.568H373.115V118.796H371.701V121.568H369.153V122.884H371.701V125.656ZM378.744 127H380.62V116.99H378.954L376.63 118.642V120.28L378.744 118.838V127ZM387.232 127H389.038V124.97H390.382V123.584H389.038V116.99H386.7L382.276 124.312V124.97H387.232V127ZM384.264 123.584L387.26 118.404V123.584H384.264ZM392.69 127.098C393.32 127.098 393.81 126.622 393.81 126.006C393.81 125.39 393.32 124.9 392.69 124.9C392.074 124.9 391.584 125.39 391.584 126.006C391.584 126.622 392.074 127.098 392.69 127.098ZM398.657 127.14C400.925 127.14 402.353 125.768 402.353 123.738C402.353 121.792 400.981 120.476 399.063 120.476C397.873 120.476 397.047 120.994 396.585 121.764C396.641 119.482 397.523 118.292 398.867 118.292C399.833 118.292 400.225 118.74 400.407 119.496H402.143C401.905 117.746 400.701 116.85 398.881 116.85C396.487 116.85 394.737 118.74 394.737 122.212V122.45C394.737 125.096 395.745 127.14 398.657 127.14ZM398.629 125.768C397.495 125.768 396.697 124.998 396.697 123.668C396.697 122.562 397.495 121.764 398.629 121.764C399.777 121.764 400.505 122.576 400.505 123.78C400.505 124.97 399.749 125.768 398.629 125.768ZM407.88 125.656C406.382 125.656 405.514 124.508 405.514 122.24V121.736C405.514 119.51 406.34 118.306 407.852 118.306C409.35 118.306 410.162 119.594 410.162 121.722V122.212C410.162 124.48 409.42 125.656 407.88 125.656ZM407.838 127.14C410.456 127.14 412.024 125.222 412.024 122.212V121.708C412.024 118.698 410.372 116.85 407.838 116.85C405.318 116.85 403.638 118.712 403.638 121.75V122.254C403.638 125.264 405.29 127.14 407.838 127.14ZM415.542 120.616C414.884 120.616 414.464 120.168 414.464 119.314C414.464 118.474 414.884 118.012 415.542 118.012C416.2 118.012 416.606 118.502 416.606 119.314C416.606 120.14 416.2 120.616 415.542 120.616ZM415.528 121.75C416.9 121.75 417.964 120.714 417.964 119.3C417.964 117.9 416.886 116.892 415.542 116.892C414.198 116.892 413.092 117.928 413.092 119.328C413.092 120.714 414.156 121.75 415.528 121.75ZM414.464 127H415.654L422.094 116.99H420.918L414.464 127ZM421.03 126.006C420.372 126.006 419.952 125.558 419.952 124.704C419.952 123.864 420.372 123.402 421.03 123.402C421.688 123.402 422.094 123.892 422.094 124.704C422.094 125.53 421.688 126.006 421.03 126.006ZM421.016 127.14C422.388 127.14 423.466 126.104 423.466 124.69C423.466 123.29 422.374 122.282 421.03 122.282C419.686 122.282 418.594 123.318 418.594 124.718C418.594 126.104 419.644 127.14 421.016 127.14ZM424.121 129.044H425.591C426.795 127.616 427.915 125.502 427.915 122.59C427.915 119.664 426.795 117.564 425.591 116.136H424.121C425.241 117.648 426.235 119.678 426.235 122.59C426.235 125.488 425.241 127.532 424.121 129.044Z" fill="#19AF55"/>
<path opacity="0.8" d="M193.318 127H194.536V117.984H197.448V116.99H190.406V117.984H193.318V127ZM201.023 126.16C199.539 126.16 198.629 125.068 198.629 123.402V123.29C198.629 121.61 199.553 120.518 201.023 120.518C202.479 120.518 203.417 121.61 203.417 123.304V123.402C203.417 125.054 202.493 126.16 201.023 126.16ZM201.009 127.126C203.095 127.126 204.621 125.6 204.621 123.388V123.276C204.621 121.078 203.095 119.552 201.023 119.552C198.951 119.552 197.425 121.092 197.425 123.29V123.402C197.425 125.544 198.923 127.126 201.009 127.126ZM208.646 127.098C209.122 127.098 209.402 127.028 209.64 126.944V125.964C209.388 126.062 209.108 126.118 208.744 126.118C208.156 126.118 207.834 125.768 207.834 125.054V120.658H209.542V119.678H207.834V118.012H206.672V119.678H205.622V120.658H206.672V125.166C206.672 126.314 207.316 127.098 208.646 127.098ZM213.299 127.126C214.377 127.126 215.035 126.762 215.581 126.076V127H216.743V122.17C216.743 120.126 215.469 119.552 214.069 119.552C212.655 119.552 211.325 120.168 211.171 121.834H212.333C212.445 120.938 213.005 120.518 214.013 120.518C215.133 120.518 215.581 121.008 215.581 122.17V122.702H214.531C212.655 122.702 210.863 123.276 210.863 124.97C210.863 126.468 211.941 127.126 213.299 127.126ZM213.411 126.202C212.389 126.202 212.025 125.726 212.025 124.97C212.025 123.892 213.103 123.528 214.573 123.528H215.581V124.438C215.581 125.572 214.643 126.202 213.411 126.202ZM219.054 127H220.23V116.178H219.054V127ZM226.397 127H227.615V122.646H229.155L232.137 127H233.495L230.429 122.562C231.801 122.296 232.907 121.484 232.907 119.832V119.776C232.907 117.774 231.325 116.99 229.407 116.99H226.397V127ZM227.615 121.68V117.97H229.491C230.849 117.97 231.689 118.418 231.689 119.776V119.832C231.689 121.064 230.919 121.68 229.491 121.68H227.615ZM237.895 127.126C239.547 127.126 240.765 126.356 241.017 124.886H239.855C239.701 125.74 239.043 126.16 237.909 126.16C236.411 126.16 235.613 125.236 235.557 123.57H241.073V123.192C241.073 120.574 239.477 119.552 237.783 119.552C235.767 119.552 234.353 121.092 234.353 123.304V123.416C234.353 125.67 235.823 127.126 237.895 127.126ZM235.599 122.632C235.795 121.33 236.593 120.518 237.783 120.518C238.987 120.518 239.771 121.12 239.883 122.632H235.599ZM245.082 127.098C245.558 127.098 245.838 127.028 246.076 126.944V125.964C245.824 126.062 245.544 126.118 245.18 126.118C244.592 126.118 244.27 125.768 244.27 125.054V120.658H245.978V119.678H244.27V118.012H243.108V119.678H242.058V120.658H243.108V125.166C243.108 126.314 243.752 127.098 245.082 127.098ZM250.31 127.126C251.486 127.126 252.298 126.524 252.634 125.838V127H253.796V119.678H252.634V124.116C252.634 125.432 251.654 126.118 250.618 126.118C249.47 126.118 248.924 125.544 248.924 124.256V119.678H247.762V124.312C247.762 126.328 248.854 127.126 250.31 127.126ZM256.145 127H257.307V122.982C257.307 121.176 258.245 120.714 259.715 120.644V119.552C258.399 119.594 257.769 120.168 257.307 120.994V119.678H256.145V127ZM261.408 127H262.57V122.562C262.57 121.246 263.536 120.56 264.614 120.56C265.79 120.56 266.336 121.134 266.336 122.422V127H267.498V122.506C267.498 120.378 266.434 119.552 264.922 119.552C263.718 119.552 262.906 120.154 262.57 120.84V119.678H261.408V127Z" fill="#2F363F"/>
<path opacity="0.8" d="M304.066 165.656H305.48V162.884H308.042V161.568H305.48V158.796H304.066V161.568H301.518V162.884H304.066V165.656ZM311.109 167H312.985V156.99H311.319L308.995 158.642V160.28L311.109 158.838V167ZM319.046 167.14C321.314 167.14 322.742 165.768 322.742 163.738C322.742 161.792 321.37 160.476 319.452 160.476C318.262 160.476 317.436 160.994 316.974 161.764C317.03 159.482 317.912 158.292 319.256 158.292C320.222 158.292 320.614 158.74 320.796 159.496H322.532C322.294 157.746 321.09 156.85 319.27 156.85C316.876 156.85 315.126 158.74 315.126 162.212V162.45C315.126 165.096 316.134 167.14 319.046 167.14ZM319.018 165.768C317.884 165.768 317.086 164.998 317.086 163.668C317.086 162.562 317.884 161.764 319.018 161.764C320.166 161.764 320.894 162.576 320.894 163.78C320.894 164.97 320.138 165.768 319.018 165.768ZM324.467 168.722L326.301 165.586L324.691 164.942L323.417 168.26L324.467 168.722ZM331.236 167.14C333.252 167.14 334.96 166.09 334.96 164.116C334.96 162.898 334.274 162.03 333.098 161.61C333.994 161.218 334.582 160.532 334.582 159.51C334.582 157.858 333.028 156.85 331.236 156.85C329.5 156.85 327.876 157.844 327.876 159.538C327.876 160.532 328.436 161.26 329.36 161.624C328.24 162.016 327.484 162.898 327.484 164.172C327.484 166.132 329.248 167.14 331.236 167.14ZM331.236 165.74C330.228 165.74 329.36 165.138 329.36 164.018C329.36 162.898 330.228 162.296 331.25 162.296C332.286 162.296 333.098 162.898 333.098 164.004C333.098 165.124 332.3 165.74 331.236 165.74ZM331.264 161.078C330.396 161.078 329.654 160.546 329.654 159.636C329.654 158.74 330.354 158.194 331.236 158.194C332.132 158.194 332.818 158.768 332.818 159.622C332.818 160.532 332.174 161.078 331.264 161.078ZM340.436 165.656C338.938 165.656 338.07 164.508 338.07 162.24V161.736C338.07 159.51 338.896 158.306 340.408 158.306C341.906 158.306 342.718 159.594 342.718 161.722V162.212C342.718 164.48 341.976 165.656 340.436 165.656ZM340.394 167.14C343.012 167.14 344.58 165.222 344.58 162.212V161.708C344.58 158.698 342.928 156.85 340.394 156.85C337.874 156.85 336.194 158.712 336.194 161.75V162.254C336.194 165.264 337.846 167.14 340.394 167.14ZM349.371 167.14C351.527 167.14 353.053 165.81 353.053 163.696C353.053 161.596 351.779 160.336 349.973 160.336C348.909 160.336 348.209 160.728 347.817 161.176L347.831 158.46H352.479V156.99H346.403L346.319 162.562H347.271C347.719 162.044 348.335 161.694 349.357 161.694C350.463 161.694 351.163 162.464 351.163 163.668C351.163 164.9 350.505 165.698 349.357 165.698C348.069 165.698 347.691 165.054 347.537 164.13H345.801C345.913 165.852 347.019 167.14 349.371 167.14ZM360.064 169.072H361.548C360.414 167.56 359.42 165.53 359.42 162.618C359.42 159.72 360.414 157.676 361.548 156.164H360.064C358.86 157.592 357.74 159.706 357.74 162.618C357.74 165.544 358.86 167.644 360.064 169.072ZM364.837 165.656H366.251V162.884H368.813V161.568H366.251V158.796H364.837V161.568H362.289V162.884H364.837V165.656ZM369.528 167H376.766V165.558H372.51L374.736 163.388C375.926 162.24 376.696 161.106 376.696 159.804C376.696 158.04 375.464 156.85 373.392 156.85C371.278 156.85 369.962 158.11 369.836 160.294H371.544C371.712 158.88 372.342 158.306 373.336 158.306C374.302 158.306 374.834 158.894 374.834 159.832C374.834 160.784 374.26 161.666 373.308 162.674L369.528 166.664V167ZM379.36 167.098C379.99 167.098 380.48 166.622 380.48 166.006C380.48 165.39 379.99 164.9 379.36 164.9C378.744 164.9 378.254 165.39 378.254 166.006C378.254 166.622 378.744 167.098 379.36 167.098ZM385.291 167.14C387.587 167.14 389.043 165.992 389.043 164.144C389.043 162.814 388.273 161.988 387.111 161.722C388.077 161.358 388.735 160.672 388.735 159.538C388.735 158.054 387.517 156.85 385.431 156.85C383.289 156.85 381.987 158.18 381.889 159.916H383.541C383.653 158.908 384.339 158.264 385.403 158.264C386.439 158.264 386.957 158.866 386.957 159.678C386.957 160.616 386.439 161.148 385.291 161.148H384.577V162.478H385.347C386.565 162.478 387.153 163.024 387.153 164.116C387.153 165.11 386.551 165.74 385.249 165.74C383.905 165.74 383.317 164.956 383.219 163.906H381.525C381.609 165.824 382.911 167.14 385.291 167.14ZM389.968 167H397.206V165.558H392.95L395.176 163.388C396.366 162.24 397.136 161.106 397.136 159.804C397.136 158.04 395.904 156.85 393.832 156.85C391.718 156.85 390.402 158.11 390.276 160.294H391.984C392.152 158.88 392.782 158.306 393.776 158.306C394.742 158.306 395.274 158.894 395.274 159.832C395.274 160.784 394.7 161.666 393.748 162.674L389.968 166.664V167ZM400.722 160.616C400.064 160.616 399.644 160.168 399.644 159.314C399.644 158.474 400.064 158.012 400.722 158.012C401.38 158.012 401.786 158.502 401.786 159.314C401.786 160.14 401.38 160.616 400.722 160.616ZM400.708 161.75C402.08 161.75 403.144 160.714 403.144 159.3C403.144 157.9 402.066 156.892 400.722 156.892C399.378 156.892 398.272 157.928 398.272 159.328C398.272 160.714 399.336 161.75 400.708 161.75ZM399.644 167H400.834L407.274 156.99H406.098L399.644 167ZM406.21 166.006C405.552 166.006 405.132 165.558 405.132 164.704C405.132 163.864 405.552 163.402 406.21 163.402C406.868 163.402 407.274 163.892 407.274 164.704C407.274 165.53 406.868 166.006 406.21 166.006ZM406.196 167.14C407.568 167.14 408.646 166.104 408.646 164.69C408.646 163.29 407.554 162.282 406.21 162.282C404.866 162.282 403.774 163.318 403.774 164.718C403.774 166.104 404.824 167.14 406.196 167.14ZM409.301 169.044H410.771C411.975 167.616 413.095 165.502 413.095 162.59C413.095 159.664 411.975 157.564 410.771 156.136H409.301C410.421 157.648 411.415 159.678 411.415 162.59C411.415 165.488 410.421 167.532 409.301 169.044Z" fill="#19AF55"/>
<path opacity="0.8" d="M193.318 167H194.536V157.984H197.448V156.99H190.406V157.984H193.318V167ZM201.023 166.16C199.539 166.16 198.629 165.068 198.629 163.402V163.29C198.629 161.61 199.553 160.518 201.023 160.518C202.479 160.518 203.417 161.61 203.417 163.304V163.402C203.417 165.054 202.493 166.16 201.023 166.16ZM201.009 167.126C203.095 167.126 204.621 165.6 204.621 163.388V163.276C204.621 161.078 203.095 159.552 201.023 159.552C198.951 159.552 197.425 161.092 197.425 163.29V163.402C197.425 165.544 198.923 167.126 201.009 167.126ZM209.178 167.126C210.242 167.126 211.264 166.454 211.684 165.74V167H212.846V156.178H211.684V160.854C211.264 160.14 210.508 159.552 209.29 159.552C207.274 159.552 205.874 161.134 205.874 163.374V163.486C205.874 165.768 207.26 167.126 209.178 167.126ZM209.304 166.16C208.072 166.16 207.078 165.278 207.078 163.43V163.318C207.078 161.54 207.946 160.518 209.402 160.518C210.83 160.518 211.726 161.4 211.726 163.276V163.388C211.726 165.264 210.662 166.16 209.304 166.16ZM217.031 167.126C218.109 167.126 218.767 166.762 219.313 166.076V167H220.475V162.17C220.475 160.126 219.201 159.552 217.801 159.552C216.387 159.552 215.057 160.168 214.903 161.834H216.065C216.177 160.938 216.737 160.518 217.745 160.518C218.865 160.518 219.313 161.008 219.313 162.17V162.702H218.263C216.387 162.702 214.595 163.276 214.595 164.97C214.595 166.468 215.673 167.126 217.031 167.126ZM217.143 166.202C216.121 166.202 215.757 165.726 215.757 164.97C215.757 163.892 216.835 163.528 218.305 163.528H219.313V164.438C219.313 165.572 218.375 166.202 217.143 166.202ZM223.211 169.548H224.387L228.433 159.678H227.243L225.213 164.928L222.973 159.678H221.727L224.597 166.244L223.211 169.548ZM230.296 160.168L231.934 157.34L230.828 156.836L229.582 159.804L230.296 160.168ZM234.678 167.126C236.456 167.126 237.366 166.23 237.366 164.9C237.366 163.346 236.302 163.01 234.79 162.73C233.446 162.492 233.082 162.226 233.082 161.568C233.082 160.938 233.628 160.518 234.468 160.518C235.392 160.518 235.84 160.868 236.008 161.666H237.128C236.932 160.084 235.798 159.552 234.482 159.552C233.334 159.552 232.004 160.252 232.004 161.61C232.004 162.884 232.648 163.416 234.552 163.766C235.686 163.976 236.26 164.228 236.26 164.998C236.26 165.782 235.77 166.16 234.664 166.16C233.488 166.16 233.026 165.614 232.942 164.746H231.808C231.878 166.244 232.928 167.126 234.678 167.126ZM242.926 167H244.144V162.926H245.768C247.672 162.926 249.268 162.1 249.268 159.972V159.916C249.268 157.83 247.686 156.99 245.768 156.99H242.926V167ZM244.144 161.96V157.97H245.852C247.21 157.97 248.05 158.502 248.05 159.916V159.972C248.05 161.26 247.28 161.96 245.852 161.96H244.144ZM258.393 161.834H257.315L256.097 164.144L253.997 161.582C255.271 161.036 256.139 160.21 256.139 158.992C256.139 157.788 255.187 156.934 253.955 156.934C252.695 156.934 251.505 157.718 251.505 159.23C251.505 159.902 251.799 160.588 252.387 161.344C251.099 161.974 250.091 162.772 250.091 164.354C250.091 166.006 251.421 167.098 253.255 167.098C254.515 167.098 255.397 166.524 256.027 165.796L257.021 167H258.435L256.755 164.956L258.393 161.834ZM253.297 166.146C252.037 166.146 251.267 165.446 251.267 164.242C251.267 163.066 251.953 162.492 252.933 162.016L255.425 165.054C254.823 165.782 254.095 166.146 253.297 166.146ZM252.625 159.244C252.625 158.264 253.213 157.844 253.913 157.844C254.585 157.844 255.047 158.32 255.047 158.964C255.047 159.93 254.613 160.434 253.493 160.938C252.947 160.252 252.625 159.748 252.625 159.244ZM260.235 167H266.031V166.006H261.453V156.99H260.235V167Z" fill="#2F363F"/>
<rect opacity="0.3" x="24" y="207" width="440" height="1" fill="#E2E5E9"/>
</g>
<g filter="url(#filter1_b_6455_59925)">
<g clip-path="url(#clip0_6455_59925)">
<rect x="244" y="4" width="303" height="54" rx="12" fill="white" fill-opacity="0.5"/>
<rect x="388" y="9" width="153" height="44" rx="8" fill="white"/>
<g clip-path="url(#clip1_6455_59925)">
<path d="M414 41C419.523 41 424 36.5228 424 31C424 25.4772 419.523 21 414 21C408.477 21 404 25.4772 404 31C404 36.5228 408.477 41 414 41Z" fill="#D18BF2"/>
<path fill-rule="evenodd" clip-rule="evenodd" d="M414 26.9643C414.565 26.9643 415.024 26.5057 415.024 25.9399C415.024 25.3742 414.565 24.9155 414 24.9155C413.434 24.9155 412.975 25.3742 412.975 25.9399C412.975 26.5057 413.434 26.9643 414 26.9643ZM418.01 28.9632C418.108 29.0203 418.218 29.0509 418.331 29.0522C418.452 29.0484 418.569 29.0113 418.67 28.9448C418.743 28.9007 418.807 28.8426 418.858 28.7737C418.908 28.7049 418.945 28.6267 418.966 28.5436C418.986 28.4605 418.99 28.3742 418.977 28.2896C418.964 28.205 418.935 28.1237 418.891 28.0505C418.407 27.2527 417.737 26.5833 416.939 26.0993C416.867 26.0494 416.784 26.0148 416.698 25.9977C416.611 25.9805 416.522 25.9812 416.435 25.9997C416.349 26.0182 416.267 26.0541 416.195 26.1053C416.123 26.1564 416.062 26.2216 416.016 26.297C415.97 26.3724 415.94 26.4564 415.928 26.5439C415.915 26.6313 415.921 26.7204 415.944 26.8057C415.967 26.8909 416.007 26.9706 416.062 27.0398C416.117 27.109 416.185 27.1663 416.263 27.2083C416.881 27.587 417.399 28.1076 417.775 28.727C417.832 28.8248 417.913 28.9062 418.01 28.9632ZM409.336 28.9545C409.434 29.0141 409.547 29.0467 409.661 29.0488C409.776 29.0505 409.889 29.0219 409.989 28.966C410.089 28.91 410.172 28.8287 410.23 28.7301C410.606 28.1132 411.125 27.5956 411.743 27.2212C411.819 27.1786 411.886 27.1211 411.939 27.0521C411.993 26.9831 412.032 26.9041 412.054 26.8197C412.076 26.7353 412.081 26.6473 412.069 26.5609C412.056 26.4745 412.027 26.3915 411.982 26.3168C411.936 26.2421 411.877 26.1773 411.806 26.1262C411.735 26.0751 411.655 26.0388 411.57 26.0194C411.485 26 411.396 25.998 411.31 26.0134C411.225 26.0287 411.143 26.0613 411.07 26.109C410.271 26.5924 409.602 27.2619 409.118 28.0602C409.074 28.1332 409.044 28.2143 409.031 28.2988C409.018 28.3832 409.022 28.4695 409.042 28.5525C409.062 28.6356 409.098 28.7139 409.149 28.7828C409.199 28.8518 409.263 28.9102 409.336 28.9545ZM411.391 35.979C411.277 35.9778 411.164 35.9452 411.066 35.8847C410.268 35.4013 409.598 34.7318 409.115 33.9335C409.067 33.8604 409.035 33.7785 409.019 33.6925C409.004 33.6066 409.006 33.5185 409.025 33.4334C409.045 33.3483 409.081 33.2679 409.132 33.1972C409.183 33.1264 409.248 33.0666 409.323 33.0214C409.398 32.9762 409.481 32.9465 409.567 32.9341C409.653 32.9217 409.741 32.9267 409.826 32.949C409.91 32.9713 409.989 33.0104 410.058 33.0638C410.127 33.1173 410.185 33.1841 410.227 33.2603C410.603 33.8763 411.122 34.3928 411.739 34.766C411.86 34.8391 411.954 34.9493 412.006 35.0802C412.058 35.211 412.067 35.3554 412.03 35.4915C411.994 35.6276 411.914 35.7481 411.803 35.8348C411.691 35.9216 411.555 35.9699 411.414 35.9725L411.391 35.979ZM416.219 35.8414C416.33 35.9282 416.467 35.9765 416.608 35.9791C416.731 35.9847 416.853 35.9542 416.959 35.8913C417.757 35.4075 418.426 34.7381 418.91 33.94C418.999 33.7921 419.026 33.6148 418.985 33.4471C418.943 33.2794 418.837 33.135 418.689 33.0457C418.541 32.9565 418.364 32.9296 418.196 32.9711C418.028 33.0125 417.884 33.1189 417.795 33.2669C417.421 33.8843 416.902 34.4012 416.283 34.7726C416.162 34.8456 416.068 34.9559 416.016 35.0867C415.964 35.2176 415.955 35.3619 415.992 35.498C416.028 35.6341 416.108 35.7546 416.219 35.8414ZM415.024 36.0603C415.024 36.6261 414.565 37.0847 414 37.0847C413.434 37.0847 412.975 36.6261 412.975 36.0603C412.975 35.4946 413.434 35.0359 414 35.0359C414.565 35.0359 415.024 35.4946 415.024 36.0603ZM419.06 32.0246C419.626 32.0246 420.084 31.5659 420.084 31.0002C420.084 30.4344 419.626 29.9758 419.06 29.9758C418.494 29.9758 418.035 30.4344 418.035 31.0002C418.035 31.5659 418.494 32.0246 419.06 32.0246ZM409.964 31.0002C409.964 31.5659 409.505 32.0246 408.939 32.0246C408.374 32.0246 407.915 31.5659 407.915 31.0002C407.915 30.4344 408.374 29.9758 408.939 29.9758C409.505 29.9758 409.964 30.4344 409.964 31.0002Z" fill="white"/>
</g>
<path d="M433.284 35H434.964V27.44L438.002 35H438.604L441.586 27.44V35H443.448V24.99H440.984L438.408 31.822L435.776 24.99H433.284V35ZM447.98 35.14C449.17 35.14 449.94 34.566 450.304 33.852V35H451.998V27.678H450.304V32.032C450.304 33.194 449.506 33.782 448.596 33.782C447.616 33.782 447.154 33.278 447.154 32.172V27.678H445.46V32.368C445.46 34.314 446.538 35.14 447.98 35.14ZM456.499 35.126C457.017 35.126 457.381 35.042 457.647 34.944V33.6C457.409 33.698 457.157 33.74 456.821 33.74C456.289 33.74 455.981 33.446 455.981 32.802V28.952H457.591V27.678H455.981V26.068H454.287V27.678H453.307V28.952H454.287V32.956C454.287 34.342 455.043 35.126 456.499 35.126ZM461.625 35.14C462.815 35.14 463.585 34.566 463.949 33.852V35H465.643V27.678H463.949V32.032C463.949 33.194 463.151 33.782 462.241 33.782C461.261 33.782 460.799 33.278 460.799 32.172V27.678H459.105V32.368C459.105 34.314 460.183 35.14 461.625 35.14ZM469.57 35.14C470.69 35.14 471.334 34.734 471.81 34.104V35H473.476V30.198C473.476 28.196 472.188 27.524 470.55 27.524C468.912 27.524 467.554 28.238 467.414 29.946H469.052C469.136 29.218 469.57 28.798 470.452 28.798C471.446 28.798 471.782 29.288 471.782 30.268V30.646H470.872C468.772 30.646 467.12 31.262 467.12 32.97C467.12 34.496 468.226 35.14 469.57 35.14ZM469.976 33.922C469.136 33.922 468.8 33.516 468.8 32.9C468.8 32.004 469.626 31.71 470.914 31.71H471.782V32.438C471.782 33.376 471.012 33.922 469.976 33.922ZM475.459 35H477.153V24.29H475.459V35ZM482.694 35H484.556V30.898H487.972V29.456H484.556V26.474H488.896V24.99H482.694V35ZM492.551 35.14C493.741 35.14 494.511 34.566 494.875 33.852V35H496.569V27.678H494.875V32.032C494.875 33.194 494.077 33.782 493.167 33.782C492.187 33.782 491.725 33.278 491.725 32.172V27.678H490.031V32.368C490.031 34.314 491.109 35.14 492.551 35.14ZM498.577 35H500.271V30.688C500.271 29.526 501.041 28.938 501.993 28.938C503.001 28.938 503.449 29.442 503.449 30.548V35H505.143V30.394C505.143 28.378 504.107 27.524 502.637 27.524C501.433 27.524 500.621 28.126 500.271 28.84V27.678H498.577V35ZM509.839 35.14C510.917 35.14 511.855 34.496 512.247 33.768V35H513.941V24.29H512.247V28.798C511.841 28.07 511.099 27.524 509.909 27.524C508.005 27.524 506.619 29.008 506.619 31.346V31.458C506.619 33.838 508.005 35.14 509.839 35.14ZM510.259 33.796C509.167 33.796 508.355 33.026 508.355 31.416V31.304C508.355 29.722 509.083 28.854 510.329 28.854C511.561 28.854 512.303 29.652 512.303 31.262V31.374C512.303 33.012 511.435 33.796 510.259 33.796ZM518.46 35.14C520.336 35.14 521.386 34.286 521.386 32.802C521.386 31.248 520.364 30.828 518.642 30.562C517.48 30.366 517.13 30.156 517.13 29.624C517.13 29.106 517.564 28.756 518.292 28.756C519.076 28.756 519.454 29.064 519.594 29.736H521.162C520.98 28.084 519.79 27.524 518.292 27.524C516.92 27.524 515.548 28.252 515.548 29.722C515.548 31.094 516.262 31.64 518.194 31.948C519.272 32.13 519.762 32.354 519.762 32.956C519.762 33.572 519.356 33.894 518.446 33.894C517.452 33.894 517.074 33.46 516.99 32.718H515.394C515.464 34.272 516.57 35.14 518.46 35.14Z" fill="#2F363F"/>
<g filter="url(#filter2_d_6455_59925)">
<g clip-path="url(#clip2_6455_59925)">
<path d="M287 41C292.523 41 297 36.5228 297 31C297 25.4772 292.523 21 287 21C281.477 21 277 25.4772 277 31C277 36.5228 281.477 41 287 41Z" fill="white"/>
<path fill-rule="evenodd" clip-rule="evenodd" d="M287 21C292.523 21 297 25.4772 297 31C297 36.5228 292.523 41 287 41C281.477 41 277 36.5228 277 31C277 25.4772 281.477 21 287 21ZM283.589 28.55L278.812 33.3078C278.688 33.4335 278.619 33.6028 278.62 33.779C278.621 33.9552 278.691 34.124 278.815 34.2488C278.939 34.3737 279.108 34.4445 279.284 34.446C279.46 34.4474 279.63 34.3794 279.756 34.2567L284.156 29.875L288.256 32.4633L288.255 32.4117C288.255 31.9372 288.434 31.5044 288.728 31.1772L284.419 28.4583C284.291 28.3774 284.139 28.3425 283.988 28.3591C283.837 28.3758 283.697 28.4431 283.589 28.55ZM290.101 31.6733C290.002 31.6695 289.903 31.6857 289.81 31.7211C289.717 31.7565 289.632 31.8102 289.56 31.8792C289.489 31.9481 289.432 32.0308 289.393 32.1223C289.354 32.2138 289.334 32.3122 289.334 32.4117C289.334 32.5111 289.354 32.6095 289.393 32.701C289.432 32.7925 289.489 32.8752 289.56 32.9442C289.632 33.0131 289.717 33.0669 289.81 33.1022C289.903 33.1376 290.002 33.1539 290.101 33.15C290.292 33.1426 290.473 33.0616 290.605 32.9239C290.737 32.7863 290.811 32.6027 290.811 32.4117C290.811 32.2207 290.737 32.0371 290.605 31.8994C290.473 31.7618 290.292 31.6807 290.101 31.6733ZM290.583 34V37.2944C290.583 37.4861 290.428 37.6417 290.236 37.6417H290.097C290.005 37.6417 289.917 37.6051 289.852 37.54C289.787 37.4749 289.75 37.3865 289.75 37.2944V34C290.024 34.0648 290.309 34.0648 290.583 34ZM295.178 32C295.37 32 295.526 32.1556 295.526 32.3472V32.4861C295.526 32.6778 295.37 32.8333 295.178 32.8333H292C292.063 32.5591 292.063 32.2742 292 32H295.178ZM293.51 26.2511C293.612 26.1058 293.767 26.0069 293.942 25.9762C294.117 25.9455 294.297 25.9855 294.443 26.0875C294.588 26.1895 294.687 26.345 294.717 26.5199C294.748 26.6947 294.708 26.8746 294.606 27.02L291.59 31.3194C291.316 30.9462 290.912 30.6894 290.458 30.6L293.51 26.2511Z" fill="url(#paint1_linear_6455_59925)"/>
</g>
<path d="M306.539 35H313.035V33.53H308.401V30.604H311.929V29.204H308.401V26.46H312.797V24.99H306.539V35ZM319.726 37.506H321.42V27.678H319.726V28.798C319.32 28.07 318.578 27.524 317.388 27.524C315.484 27.524 314.098 29.008 314.098 31.346V31.458C314.098 33.838 315.484 35.14 317.318 35.14C318.396 35.14 319.334 34.496 319.726 33.796V37.506ZM317.738 33.796C316.646 33.796 315.834 33.026 315.834 31.416V31.304C315.834 29.722 316.562 28.854 317.808 28.854C319.04 28.854 319.782 29.652 319.782 31.262V31.374C319.782 33.012 318.914 33.796 317.738 33.796ZM325.884 35.14C327.074 35.14 327.844 34.566 328.208 33.852V35H329.902V27.678H328.208V32.032C328.208 33.194 327.41 33.782 326.5 33.782C325.52 33.782 325.058 33.278 325.058 32.172V27.678H323.364V32.368C323.364 34.314 324.442 35.14 325.884 35.14ZM331.952 35H333.646V27.678H331.952V35ZM332.778 26.474C333.338 26.474 333.786 26.054 333.786 25.508C333.786 24.948 333.338 24.528 332.778 24.528C332.218 24.528 331.77 24.948 331.77 25.508C331.77 26.054 332.218 26.474 332.778 26.474ZM338.203 35.126C338.721 35.126 339.085 35.042 339.351 34.944V33.6C339.113 33.698 338.861 33.74 338.525 33.74C337.993 33.74 337.685 33.446 337.685 32.802V28.952H339.295V27.678H337.685V26.068H335.991V27.678H335.011V28.952H335.991V32.956C335.991 34.342 336.747 35.126 338.203 35.126ZM341.691 37.506H343.357L347.347 27.678H345.695L343.903 32.396L341.957 27.678H340.123L343.021 34.258L341.691 37.506Z" fill="#2F363F"/>
</g>
</g>
</g>
<defs>
<filter id="filter0_d_6455_59925" x="0" y="71" width="488" height="217" filterUnits="userSpaceOnUse" color-interpolation-filters="sRGB">
<feFlood flood-opacity="0" result="BackgroundImageFix"/>
<feColorMatrix in="SourceAlpha" type="matrix" values="0 0 0 0 0 0 0 0 0 0 0 0 0 0 0 0 0 0 127 0" result="hardAlpha"/>
<feMorphology radius="32" operator="erode" in="SourceAlpha" result="effect1_dropShadow_6455_59925"/>
<feOffset dy="20"/>
<feGaussianBlur stdDeviation="20"/>
<feComposite in2="hardAlpha" operator="out"/>
<feColorMatrix type="matrix" values="0 0 0 0 0.419608 0 0 0 0 0.431373 0 0 0 0 0.580392 0 0 0 0.04 0"/>
<feBlend mode="normal" in2="BackgroundImageFix" result="effect1_dropShadow_6455_59925"/>
<feBlend mode="normal" in="SourceGraphic" in2="effect1_dropShadow_6455_59925" result="shape"/>
</filter>
<filter id="filter1_b_6455_59925" x="234" y="-6" width="323" height="74" filterUnits="userSpaceOnUse" color-interpolation-filters="sRGB">
<feFlood flood-opacity="0" result="BackgroundImageFix"/>
<feGaussianBlur in="BackgroundImageFix" stdDeviation="5"/>
<feComposite in2="SourceAlpha" operator="in" result="effect1_backgroundBlur_6455_59925"/>
<feBlend mode="normal" in="SourceGraphic" in2="effect1_backgroundBlur_6455_59925" result="shape"/>
</filter>
<filter id="filter2_d_6455_59925" x="226" y="4" width="174" height="60" filterUnits="userSpaceOnUse" color-interpolation-filters="sRGB">
<feFlood flood-opacity="0" result="BackgroundImageFix"/>
<feColorMatrix in="SourceAlpha" type="matrix" values="0 0 0 0 0 0 0 0 0 0 0 0 0 0 0 0 0 0 127 0" result="hardAlpha"/>
<feOffset dy="3"/>
<feGaussianBlur stdDeviation="6"/>
<feColorMatrix type="matrix" values="0 0 0 0 0 0 0 0 0 0 0 0 0 0 0 0 0 0 0.06 0"/>
<feBlend mode="normal" in2="BackgroundImageFix" result="effect1_dropShadow_6455_59925"/>
<feBlend mode="normal" in="SourceGraphic" in2="effect1_dropShadow_6455_59925" result="shape"/>
</filter>
<linearGradient id="paint0_linear_6455_59925" x1="165.5" y1="105" x2="165.5" y2="181" gradientUnits="userSpaceOnUse">
<stop stop-color="#C4C4C4" stop-opacity="0"/>
<stop offset="0.552083" stop-color="#DDDFE1"/>
<stop offset="1" stop-color="#C4C4C4" stop-opacity="0"/>
</linearGradient>
<linearGradient id="paint1_linear_6455_59925" x1="287" y1="17.5016" x2="287" y2="36.4156" gradientUnits="userSpaceOnUse">
<stop stop-color="#FABC72"/>
<stop offset="1" stop-color="#ED9934"/>
</linearGradient>
<clipPath id="clip0_6455_59925">
<rect x="244" y="4" width="303" height="54" rx="12" fill="white"/>
</clipPath>
<clipPath id="clip1_6455_59925">
<rect width="20" height="20" fill="white" transform="translate(404 21)"/>
</clipPath>
<clipPath id="clip2_6455_59925">
<rect width="20" height="20" fill="white" transform="translate(277 21)"/>
</clipPath>
</defs>
</svg>
