<svg width="941" height="249" viewBox="0 0 941 249" fill="none" xmlns="http://www.w3.org/2000/svg">
<g clip-path="url(#clip0_7124_62895)">
<rect width="1068" height="8" rx="4" transform="matrix(-1 0 0 1 991 207)" fill="url(#paint0_linear_7124_62895)"/>
</g>
<path opacity="0.6" d="M6.32 243.16C9.04 243.16 10.992 241.768 11.328 239.016H9.248C9.024 240.632 7.904 241.432 6.32 241.432C4.208 241.432 2.976 239.912 2.976 237.336V237.208C2.976 234.648 4.288 233.08 6.304 233.08C7.952 233.08 8.8 233.864 9.04 235.384H11.2C10.944 232.696 8.912 231.384 6.288 231.384C3.104 231.384 0.736 233.784 0.736 237.224V237.352C0.736 240.872 2.736 243.16 6.32 243.16ZM16.7554 241.656C15.2834 241.656 14.4354 240.584 14.4354 238.872V238.744C14.4354 237.016 15.3154 235.976 16.7554 235.976C18.1954 235.976 19.0594 237.032 19.0594 238.76V238.872C19.0594 240.584 18.1954 241.656 16.7554 241.656ZM16.7394 243.16C19.2034 243.16 21.0434 241.464 21.0434 238.856V238.728C21.0434 236.168 19.2034 234.456 16.7554 234.456C14.2914 234.456 12.4514 236.184 12.4514 238.776V238.904C12.4514 241.448 14.2754 243.16 16.7394 243.16ZM22.7926 243H24.7286V238.072C24.7286 236.744 25.6086 236.072 26.6966 236.072C27.8486 236.072 28.3606 236.648 28.3606 237.912V243H30.2966V237.736C30.2966 235.432 29.1126 234.456 27.4326 234.456C26.0566 234.456 25.1286 235.144 24.7286 235.96V234.632H22.7926V243ZM36.191 243.16C38.463 243.16 39.919 241.8 40.063 239.88H38.287C38.175 241.064 37.295 241.672 36.271 241.672C34.847 241.672 33.951 240.712 33.951 238.888V238.76C33.951 237.032 34.895 236.008 36.223 236.008C37.247 236.008 37.983 236.472 38.143 237.592H40.015C39.791 235.288 38.047 234.456 36.191 234.456C33.855 234.456 31.967 236.136 31.967 238.792V238.92C31.967 241.592 33.791 243.16 36.191 243.16ZM45.4101 243.16C47.5541 243.16 48.9781 242.2 49.2501 240.44H47.3781C47.2341 241.256 46.6261 241.72 45.4581 241.72C44.0181 241.72 43.2181 240.824 43.1541 239.24H49.2821V238.68C49.2821 235.688 47.4101 234.456 45.3301 234.456C42.9461 234.456 41.1701 236.184 41.1701 238.776V238.904C41.1701 241.544 42.9461 243.16 45.4101 243.16ZM43.1861 237.944C43.3781 236.648 44.1621 235.864 45.3301 235.864C46.5301 235.864 47.2661 236.504 47.3621 237.944H43.1861ZM51.0114 243H52.9474V238.072C52.9474 236.744 53.8274 236.072 54.9154 236.072C56.0674 236.072 56.5794 236.648 56.5794 237.912V243H58.5154V237.736C58.5154 235.432 57.3314 234.456 55.6514 234.456C54.2754 234.456 53.3474 235.144 52.9474 235.96V234.632H51.0114V243ZM63.5938 243.144C64.1858 243.144 64.6018 243.048 64.9058 242.936V241.4C64.6338 241.512 64.3458 241.56 63.9618 241.56C63.3538 241.56 63.0018 241.224 63.0018 240.488V236.088H64.8418V234.632H63.0018V232.792H61.0658V234.632H59.9458V236.088H61.0658V240.664C61.0658 242.248 61.9298 243.144 63.5938 243.144ZM66.652 243H68.588V238.648C68.588 236.872 69.612 236.328 71.308 236.312V234.504C69.9 234.52 69.116 235.144 68.588 236.2V234.632H66.652V243ZM75.0471 243.16C76.3271 243.16 77.0631 242.696 77.6071 241.976V243H79.5111V237.512C79.5111 235.224 78.0391 234.456 76.1671 234.456C74.2951 234.456 72.7431 235.272 72.5831 237.224H74.4551C74.5511 236.392 75.0471 235.912 76.0551 235.912C77.1911 235.912 77.5751 236.472 77.5751 237.592V238.024H76.5351C74.1351 238.024 72.2471 238.728 72.2471 240.68C72.2471 242.424 73.5111 243.16 75.0471 243.16ZM75.5111 241.768C74.5511 241.768 74.1671 241.304 74.1671 240.6C74.1671 239.576 75.1111 239.24 76.5831 239.24H77.5751V240.072C77.5751 241.144 76.6951 241.768 75.5111 241.768ZM84.5781 243.144C85.1701 243.144 85.5861 243.048 85.8901 242.936V241.4C85.6181 241.512 85.3301 241.56 84.9461 241.56C84.3381 241.56 83.9861 241.224 83.9861 240.488V236.088H85.8261V234.632H83.9861V232.792H82.0501V234.632H80.9301V236.088H82.0501V240.664C82.0501 242.248 82.9141 243.144 84.5781 243.144ZM91.3164 243.16C93.4604 243.16 94.8844 242.2 95.1564 240.44H93.2844C93.1404 241.256 92.5324 241.72 91.3644 241.72C89.9244 241.72 89.1244 240.824 89.0604 239.24H95.1884V238.68C95.1884 235.688 93.3164 234.456 91.2364 234.456C88.8524 234.456 87.0764 236.184 87.0764 238.776V238.904C87.0764 241.544 88.8524 243.16 91.3164 243.16ZM89.0924 237.944C89.2844 236.648 90.0684 235.864 91.2364 235.864C92.4364 235.864 93.1724 236.504 93.2684 237.944H89.0924ZM100.054 243.16C101.286 243.16 102.358 242.424 102.806 241.592V243H104.742V230.76H102.806V235.912C102.342 235.08 101.494 234.456 100.134 234.456C97.9576 234.456 96.3736 236.152 96.3736 238.824V238.952C96.3736 241.672 97.9576 243.16 100.054 243.16ZM100.534 241.624C99.2856 241.624 98.3576 240.744 98.3576 238.904V238.776C98.3576 236.968 99.1896 235.976 100.614 235.976C102.022 235.976 102.87 236.888 102.87 238.728V238.856C102.87 240.728 101.878 241.624 100.534 241.624Z" fill="white"/>
<path opacity="0.6" d="M862.862 241.32V233.24H864.094C866.782 233.24 867.902 234.728 867.902 237.192V237.32C867.902 239.848 866.67 241.32 864.11 241.32H862.862ZM860.734 243H864.174C868.19 243 870.126 240.632 870.126 237.304V237.16C870.126 233.832 868.19 231.56 864.206 231.56H860.734V243ZM872.044 243H873.98V234.632H872.044V243ZM872.988 233.256C873.628 233.256 874.14 232.776 874.14 232.152C874.14 231.512 873.628 231.032 872.988 231.032C872.348 231.032 871.836 231.512 871.836 232.152C871.836 232.776 872.348 233.256 872.988 233.256ZM878.532 243H880.788L883.812 234.632H881.908L879.748 241.016L877.556 234.632H875.476L878.532 243ZM888.613 243.16C890.757 243.16 892.181 242.2 892.453 240.44H890.581C890.437 241.256 889.829 241.72 888.661 241.72C887.221 241.72 886.421 240.824 886.357 239.24H892.485V238.68C892.485 235.688 890.613 234.456 888.533 234.456C886.149 234.456 884.373 236.184 884.373 238.776V238.904C884.373 241.544 886.149 243.16 888.613 243.16ZM886.389 237.944C886.581 236.648 887.365 235.864 888.533 235.864C889.733 235.864 890.469 236.504 890.565 237.944H886.389ZM894.215 243H896.151V238.648C896.151 236.872 897.174 236.328 898.871 236.312V234.504C897.463 234.52 896.679 235.144 896.151 236.2V234.632H894.215V243ZM903.438 243.16C905.582 243.16 906.782 242.184 906.782 240.488C906.782 238.712 905.614 238.232 903.646 237.928C902.318 237.704 901.918 237.464 901.918 236.856C901.918 236.264 902.414 235.864 903.246 235.864C904.142 235.864 904.574 236.216 904.734 236.984H906.526C906.318 235.096 904.958 234.456 903.246 234.456C901.678 234.456 900.11 235.288 900.11 236.968C900.11 238.536 900.926 239.16 903.134 239.512C904.366 239.72 904.926 239.976 904.926 240.664C904.926 241.368 904.462 241.736 903.422 241.736C902.286 241.736 901.854 241.24 901.758 240.392H899.934C900.014 242.168 901.278 243.16 903.438 243.16ZM908.528 243H910.464V234.632H908.528V243ZM909.472 233.256C910.112 233.256 910.624 232.776 910.624 232.152C910.624 231.512 910.112 231.032 909.472 231.032C908.832 231.032 908.32 231.512 908.32 232.152C908.32 232.776 908.832 233.256 909.472 233.256ZM913.16 243H915.096V236.088H917V234.632H915.096V233.432C915.096 232.712 915.416 232.2 916.184 232.2C916.536 232.2 916.776 232.232 917 232.328V230.824C916.696 230.728 916.424 230.68 915.944 230.68C914.168 230.68 913.16 231.672 913.16 233.512V234.632H912.024V236.088H913.16V243ZM918.45 243H920.386V234.632H918.45V243ZM919.394 233.256C920.034 233.256 920.546 232.776 920.546 232.152C920.546 231.512 920.034 231.032 919.394 231.032C918.754 231.032 918.242 231.512 918.242 232.152C918.242 232.776 918.754 233.256 919.394 233.256ZM926.426 243.16C928.57 243.16 929.994 242.2 930.266 240.44H928.394C928.25 241.256 927.642 241.72 926.474 241.72C925.034 241.72 924.234 240.824 924.17 239.24H930.298V238.68C930.298 235.688 928.426 234.456 926.346 234.456C923.962 234.456 922.186 236.184 922.186 238.776V238.904C922.186 241.544 923.962 243.16 926.426 243.16ZM924.202 237.944C924.394 236.648 925.178 235.864 926.346 235.864C927.546 235.864 928.282 236.504 928.378 237.944H924.202ZM935.163 243.16C936.395 243.16 937.467 242.424 937.915 241.592V243H939.851V230.76H937.915V235.912C937.451 235.08 936.603 234.456 935.243 234.456C933.067 234.456 931.483 236.152 931.483 238.824V238.952C931.483 241.672 933.067 243.16 935.163 243.16ZM935.643 241.624C934.395 241.624 933.467 240.744 933.467 238.904V238.776C933.467 236.968 934.299 235.976 935.723 235.976C937.131 235.976 937.979 236.888 937.979 238.728V238.856C937.979 240.728 936.987 241.624 935.643 241.624Z" fill="white"/>
<rect width="935" height="4" rx="2" transform="matrix(-1 0 0 1 941 209)" fill="url(#paint1_linear_7124_62895)" fill-opacity="0.5"/>
<rect x="454" y="202" width="4" height="18" rx="2" fill="#F2ED6A" stroke="white" stroke-width="2"/>
<rect x="722" y="202" width="4" height="18" rx="2" fill="#A6D686" stroke="white" stroke-width="2"/>
<rect x="234" y="202" width="4" height="18" rx="2" fill="#FBD2AF" stroke="white" stroke-width="2"/>
<g filter="url(#filter0_d_7124_62895)">
<circle cx="550" cy="211" r="8" fill="#624BFF"/>
</g>
<path d="M550.5 90L550.5 89.5L549.5 89.5L549.5 90L550.5 90ZM549.5 205C549.5 205.276 549.724 205.5 550 205.5C550.276 205.5 550.5 205.276 550.5 205L549.5 205ZM549.5 90.9914C549.5 91.2675 549.724 91.4914 550 91.4914C550.276 91.4914 550.5 91.2675 550.5 90.9914L549.5 90.9914ZM550.5 92.9741C550.5 92.698 550.276 92.4741 550 92.4741C549.724 92.4741 549.5 92.698 549.5 92.9741L550.5 92.9741ZM549.5 94.9569C549.5 95.233 549.724 95.4569 550 95.4569C550.276 95.4569 550.5 95.233 550.5 94.9569L549.5 94.9569ZM550.5 96.9397C550.5 96.6635 550.276 96.4397 550 96.4397C549.724 96.4397 549.5 96.6635 549.5 96.9397L550.5 96.9397ZM549.5 98.9224C549.5 99.1986 549.724 99.4224 550 99.4224C550.276 99.4224 550.5 99.1986 550.5 98.9224L549.5 98.9224ZM550.5 100.905C550.5 100.629 550.276 100.405 550 100.405C549.724 100.405 549.5 100.629 549.5 100.905L550.5 100.905ZM549.5 102.888C549.5 103.164 549.724 103.388 550 103.388C550.276 103.388 550.5 103.164 550.5 102.888L549.5 102.888ZM550.5 104.871C550.5 104.595 550.276 104.371 550 104.371C549.724 104.371 549.5 104.595 549.5 104.871L550.5 104.871ZM549.5 106.853C549.5 107.13 549.724 107.353 550 107.353C550.276 107.353 550.5 107.13 550.5 106.853L549.5 106.853ZM550.5 108.836C550.5 108.56 550.276 108.336 550 108.336C549.724 108.336 549.5 108.56 549.5 108.836L550.5 108.836ZM549.5 110.819C549.5 111.095 549.724 111.319 550 111.319C550.276 111.319 550.5 111.095 550.5 110.819L549.5 110.819ZM550.5 112.802C550.5 112.526 550.276 112.302 550 112.302C549.724 112.302 549.5 112.526 549.5 112.802L550.5 112.802ZM549.5 114.784C549.5 115.061 549.724 115.284 550 115.284C550.276 115.284 550.5 115.061 550.5 114.784L549.5 114.784ZM550.5 116.767C550.5 116.491 550.276 116.267 550 116.267C549.724 116.267 549.5 116.491 549.5 116.767L550.5 116.767ZM549.5 118.75C549.5 119.026 549.724 119.25 550 119.25C550.276 119.25 550.5 119.026 550.5 118.75L549.5 118.75ZM550.5 120.733C550.5 120.457 550.276 120.233 550 120.233C549.724 120.233 549.5 120.457 549.5 120.733L550.5 120.733ZM549.5 122.716C549.5 122.992 549.724 123.216 550 123.216C550.276 123.216 550.5 122.992 550.5 122.716L549.5 122.716ZM550.5 124.698C550.5 124.422 550.276 124.198 550 124.198C549.724 124.198 549.5 124.422 549.5 124.698L550.5 124.698ZM549.5 126.681C549.5 126.957 549.724 127.181 550 127.181C550.276 127.181 550.5 126.957 550.5 126.681L549.5 126.681ZM550.5 128.664C550.5 128.388 550.276 128.164 550 128.164C549.724 128.164 549.5 128.388 549.5 128.664L550.5 128.664ZM549.5 130.647C549.5 130.923 549.724 131.147 550 131.147C550.276 131.147 550.5 130.923 550.5 130.647L549.5 130.647ZM550.5 132.629C550.5 132.353 550.276 132.129 550 132.129C549.724 132.129 549.5 132.353 549.5 132.629L550.5 132.629ZM549.5 134.612C549.5 134.888 549.724 135.112 550 135.112C550.276 135.112 550.5 134.888 550.5 134.612L549.5 134.612ZM550.5 136.595C550.5 136.319 550.276 136.095 550 136.095C549.724 136.095 549.5 136.319 549.5 136.595L550.5 136.595ZM549.5 138.578C549.5 138.854 549.724 139.078 550 139.078C550.276 139.078 550.5 138.854 550.5 138.578L549.5 138.578ZM550.5 140.56C550.5 140.284 550.276 140.06 550 140.06C549.724 140.06 549.5 140.284 549.5 140.56L550.5 140.56ZM549.5 142.543C549.5 142.819 549.724 143.043 550 143.043C550.276 143.043 550.5 142.819 550.5 142.543L549.5 142.543ZM550.5 144.526C550.5 144.25 550.276 144.026 550 144.026C549.724 144.026 549.5 144.25 549.5 144.526L550.5 144.526ZM549.5 146.509C549.5 146.785 549.724 147.009 550 147.009C550.276 147.009 550.5 146.785 550.5 146.509L549.5 146.509ZM550.5 148.491C550.5 148.215 550.276 147.991 550 147.991C549.724 147.991 549.5 148.215 549.5 148.491L550.5 148.491ZM549.5 150.474C549.5 150.75 549.724 150.974 550 150.974C550.276 150.974 550.5 150.75 550.5 150.474L549.5 150.474ZM550.5 152.457C550.5 152.181 550.276 151.957 550 151.957C549.724 151.957 549.5 152.181 549.5 152.457L550.5 152.457ZM549.5 154.44C549.5 154.716 549.724 154.94 550 154.94C550.276 154.94 550.5 154.716 550.5 154.44L549.5 154.44ZM550.5 156.422C550.5 156.146 550.276 155.922 550 155.922C549.724 155.922 549.5 156.146 549.5 156.422L550.5 156.422ZM549.5 158.405C549.5 158.681 549.724 158.905 550 158.905C550.276 158.905 550.5 158.681 550.5 158.405L549.5 158.405ZM550.5 160.388C550.5 160.112 550.276 159.888 550 159.888C549.724 159.888 549.5 160.112 549.5 160.388L550.5 160.388ZM549.5 162.371C549.5 162.647 549.724 162.871 550 162.871C550.276 162.871 550.5 162.647 550.5 162.371L549.5 162.371ZM550.5 164.353C550.5 164.077 550.276 163.853 550 163.853C549.724 163.853 549.5 164.077 549.5 164.353L550.5 164.353ZM549.5 166.336C549.5 166.612 549.724 166.836 550 166.836C550.276 166.836 550.5 166.612 550.5 166.336L549.5 166.336ZM550.5 168.319C550.5 168.043 550.276 167.819 550 167.819C549.724 167.819 549.5 168.043 549.5 168.319L550.5 168.319ZM549.5 170.302C549.5 170.578 549.724 170.802 550 170.802C550.276 170.802 550.5 170.578 550.5 170.302L549.5 170.302ZM550.5 172.284C550.5 172.008 550.276 171.784 550 171.784C549.724 171.784 549.5 172.008 549.5 172.284L550.5 172.284ZM549.5 174.267C549.5 174.543 549.724 174.767 550 174.767C550.276 174.767 550.5 174.543 550.5 174.267L549.5 174.267ZM550.5 176.25C550.5 175.974 550.276 175.75 550 175.75C549.724 175.75 549.5 175.974 549.5 176.25L550.5 176.25ZM549.5 178.233C549.5 178.509 549.724 178.733 550 178.733C550.276 178.733 550.5 178.509 550.5 178.233L549.5 178.233ZM550.5 180.215C550.5 179.939 550.276 179.715 550 179.715C549.724 179.715 549.5 179.939 549.5 180.215L550.5 180.215ZM549.5 182.198C549.5 182.474 549.724 182.698 550 182.698C550.276 182.698 550.5 182.474 550.5 182.198L549.5 182.198ZM550.5 184.181C550.5 183.905 550.276 183.681 550 183.681C549.724 183.681 549.5 183.905 549.5 184.181L550.5 184.181ZM549.5 186.164C549.5 186.44 549.724 186.664 550 186.664C550.276 186.664 550.5 186.44 550.5 186.164L549.5 186.164ZM550.5 188.147C550.5 187.87 550.276 187.647 550 187.647C549.724 187.647 549.5 187.87 549.5 188.147L550.5 188.147ZM549.5 190.129C549.5 190.405 549.724 190.629 550 190.629C550.276 190.629 550.5 190.405 550.5 190.129L549.5 190.129ZM550.5 192.112C550.5 191.836 550.276 191.612 550 191.612C549.724 191.612 549.5 191.836 549.5 192.112L550.5 192.112ZM549.5 194.095C549.5 194.371 549.724 194.595 550 194.595C550.276 194.595 550.5 194.371 550.5 194.095L549.5 194.095ZM550.5 196.078C550.5 195.801 550.276 195.578 550 195.578C549.724 195.578 549.5 195.801 549.5 196.078L550.5 196.078ZM549.5 198.06C549.5 198.336 549.724 198.56 550 198.56C550.276 198.56 550.5 198.336 550.5 198.06L549.5 198.06ZM550.5 200.043C550.5 199.767 550.276 199.543 550 199.543C549.724 199.543 549.5 199.767 549.5 200.043L550.5 200.043ZM549.5 202.026C549.5 202.302 549.724 202.526 550 202.526C550.276 202.526 550.5 202.302 550.5 202.026L549.5 202.026ZM550.5 204.009C550.5 203.732 550.276 203.509 550 203.509C549.724 203.509 549.5 203.732 549.5 204.009L550.5 204.009ZM549.5 90L549.5 90.9914L550.5 90.9914L550.5 90L549.5 90ZM549.5 92.9741L549.5 94.9569L550.5 94.9569L550.5 92.9741L549.5 92.9741ZM549.5 96.9397L549.5 98.9224L550.5 98.9224L550.5 96.9397L549.5 96.9397ZM549.5 100.905L549.5 102.888L550.5 102.888L550.5 100.905L549.5 100.905ZM549.5 104.871L549.5 106.853L550.5 106.853L550.5 104.871L549.5 104.871ZM549.5 108.836L549.5 110.819L550.5 110.819L550.5 108.836L549.5 108.836ZM549.5 112.802L549.5 114.784L550.5 114.784L550.5 112.802L549.5 112.802ZM549.5 116.767L549.5 118.75L550.5 118.75L550.5 116.767L549.5 116.767ZM549.5 120.733L549.5 122.716L550.5 122.716L550.5 120.733L549.5 120.733ZM549.5 124.698L549.5 126.681L550.5 126.681L550.5 124.698L549.5 124.698ZM549.5 128.664L549.5 130.647L550.5 130.647L550.5 128.664L549.5 128.664ZM549.5 132.629L549.5 134.612L550.5 134.612L550.5 132.629L549.5 132.629ZM549.5 136.595L549.5 138.578L550.5 138.578L550.5 136.595L549.5 136.595ZM549.5 140.56L549.5 142.543L550.5 142.543L550.5 140.56L549.5 140.56ZM549.5 144.526L549.5 146.509L550.5 146.509L550.5 144.526L549.5 144.526ZM549.5 148.491L549.5 150.474L550.5 150.474L550.5 148.491L549.5 148.491ZM549.5 152.457L549.5 154.44L550.5 154.44L550.5 152.457L549.5 152.457ZM549.5 156.422L549.5 158.405L550.5 158.405L550.5 156.422L549.5 156.422ZM549.5 160.388L549.5 162.371L550.5 162.371L550.5 160.388L549.5 160.388ZM549.5 164.353L549.5 166.336L550.5 166.336L550.5 164.353L549.5 164.353ZM549.5 168.319L549.5 170.302L550.5 170.302L550.5 168.319L549.5 168.319ZM549.5 172.284L549.5 174.267L550.5 174.267L550.5 172.284L549.5 172.284ZM549.5 176.25L549.5 178.233L550.5 178.233L550.5 176.25L549.5 176.25ZM549.5 180.215L549.5 182.198L550.5 182.198L550.5 180.215L549.5 180.215ZM549.5 184.181L549.5 186.164L550.5 186.164L550.5 184.181L549.5 184.181ZM549.5 188.147L549.5 190.129L550.5 190.129L550.5 188.147L549.5 188.147ZM549.5 192.112L549.5 194.095L550.5 194.095L550.5 192.112L549.5 192.112ZM549.5 196.078L549.5 198.06L550.5 198.06L550.5 196.078L549.5 196.078ZM549.5 200.043L549.5 202.026L550.5 202.026L550.5 200.043L549.5 200.043ZM549.5 204.009L549.5 205L550.5 205L550.5 204.009L549.5 204.009Z" fill="#7763FF"/>
<rect x="488" y="62" width="133" height="36" rx="4" fill="#624BFF"/>
<path d="M507.556 84H509.432V79.674L512.568 73.99H510.748L508.55 78.134L506.296 73.99H504.238L507.556 79.66V84ZM515.968 82.824C514.68 82.824 513.938 81.886 513.938 80.388V80.276C513.938 78.764 514.708 77.854 515.968 77.854C517.228 77.854 517.984 78.778 517.984 80.29V80.388C517.984 81.886 517.228 82.824 515.968 82.824ZM515.954 84.14C518.11 84.14 519.72 82.656 519.72 80.374V80.262C519.72 78.022 518.11 76.524 515.968 76.524C513.812 76.524 512.202 78.036 512.202 80.304V80.416C512.202 82.642 513.798 84.14 515.954 84.14ZM523.7 84.14C524.89 84.14 525.66 83.566 526.024 82.852V84H527.718V76.678H526.024V81.032C526.024 82.194 525.226 82.782 524.316 82.782C523.336 82.782 522.874 82.278 522.874 81.172V76.678H521.18V81.368C521.18 83.314 522.258 84.14 523.7 84.14ZM529.727 84H531.421V80.192C531.421 78.638 532.317 78.162 533.801 78.148V76.566C532.569 76.58 531.883 77.126 531.421 78.05V76.678H529.727V84ZM542.169 84.14C544.381 84.14 545.851 82.782 545.851 81.046C545.851 79.044 544.633 78.372 542.281 78.05C540.545 77.798 540.209 77.392 540.209 76.58C540.209 75.81 540.797 75.264 541.931 75.264C543.079 75.264 543.681 75.712 543.863 76.762H545.571C545.375 74.844 544.087 73.864 541.931 73.864C539.845 73.864 538.445 75.096 538.445 76.734C538.445 78.61 539.579 79.338 541.973 79.66C543.597 79.926 544.059 80.276 544.059 81.2C544.059 82.124 543.275 82.74 542.169 82.74C540.475 82.74 540.069 81.9 539.943 80.892H538.151C538.291 82.782 539.439 84.14 542.169 84.14ZM550.72 84.14C552.708 84.14 553.982 82.95 554.108 81.27H552.554C552.456 82.306 551.686 82.838 550.79 82.838C549.544 82.838 548.76 81.998 548.76 80.402V80.29C548.76 78.778 549.586 77.882 550.748 77.882C551.644 77.882 552.288 78.288 552.428 79.268H554.066C553.87 77.252 552.344 76.524 550.72 76.524C548.676 76.524 547.024 77.994 547.024 80.318V80.43C547.024 82.768 548.62 84.14 550.72 84.14ZM558.843 82.824C557.555 82.824 556.813 81.886 556.813 80.388V80.276C556.813 78.764 557.583 77.854 558.843 77.854C560.103 77.854 560.859 78.778 560.859 80.29V80.388C560.859 81.886 560.103 82.824 558.843 82.824ZM558.829 84.14C560.985 84.14 562.595 82.656 562.595 80.374V80.262C562.595 78.022 560.985 76.524 558.843 76.524C556.687 76.524 555.077 78.036 555.077 80.304V80.416C555.077 82.642 556.673 84.14 558.829 84.14ZM564.125 84H565.819V80.192C565.819 78.638 566.715 78.162 568.199 78.148V76.566C566.967 76.58 566.281 77.126 565.819 78.05V76.678H564.125V84ZM572.773 84.14C574.649 84.14 575.895 83.3 576.133 81.76H574.495C574.369 82.474 573.837 82.88 572.815 82.88C571.555 82.88 570.855 82.096 570.799 80.71H576.161V80.22C576.161 77.602 574.523 76.524 572.703 76.524C570.617 76.524 569.063 78.036 569.063 80.304V80.416C569.063 82.726 570.617 84.14 572.773 84.14ZM570.827 79.576C570.995 78.442 571.681 77.756 572.703 77.756C573.753 77.756 574.397 78.316 574.481 79.576H570.827ZM582.074 84.098C582.704 84.098 583.194 83.622 583.194 83.006C583.194 82.39 582.704 81.9 582.074 81.9C581.458 81.9 580.968 82.39 580.968 83.006C580.968 83.622 581.458 84.098 582.074 84.098ZM582.074 80.01C582.704 80.01 583.194 79.52 583.194 78.904C583.194 78.288 582.704 77.812 582.074 77.812C581.458 77.812 580.968 78.288 580.968 78.904C580.968 79.52 581.458 80.01 582.074 80.01ZM591.568 84.14C593.724 84.14 595.25 82.81 595.25 80.696C595.25 78.596 593.976 77.336 592.17 77.336C591.106 77.336 590.406 77.728 590.014 78.176L590.028 75.46H594.676V73.99H588.6L588.516 79.562H589.468C589.916 79.044 590.532 78.694 591.554 78.694C592.66 78.694 593.36 79.464 593.36 80.668C593.36 81.9 592.702 82.698 591.554 82.698C590.266 82.698 589.888 82.054 589.734 81.13H587.998C588.11 82.852 589.216 84.14 591.568 84.14ZM600.271 84.14C602.287 84.14 603.995 83.09 603.995 81.116C603.995 79.898 603.309 79.03 602.133 78.61C603.029 78.218 603.617 77.532 603.617 76.51C603.617 74.858 602.063 73.85 600.271 73.85C598.535 73.85 596.911 74.844 596.911 76.538C596.911 77.532 597.471 78.26 598.395 78.624C597.275 79.016 596.519 79.898 596.519 81.172C596.519 83.132 598.283 84.14 600.271 84.14ZM600.271 82.74C599.263 82.74 598.395 82.138 598.395 81.018C598.395 79.898 599.263 79.296 600.285 79.296C601.321 79.296 602.133 79.898 602.133 81.004C602.133 82.124 601.335 82.74 600.271 82.74ZM600.299 78.078C599.431 78.078 598.689 77.546 598.689 76.636C598.689 75.74 599.389 75.194 600.271 75.194C601.167 75.194 601.853 75.768 601.853 76.622C601.853 77.532 601.209 78.078 600.299 78.078Z" fill="white"/>
<path d="M652.5 12L652.5 11.5L651.5 11.5L651.5 12H652.5ZM651.5 205C651.5 205.276 651.724 205.5 652 205.5C652.276 205.5 652.5 205.276 652.5 205L651.5 205ZM651.5 13.0052C651.5 13.2814 651.724 13.5052 652 13.5052C652.276 13.5052 652.5 13.2814 652.5 13.0052L651.5 13.0052ZM652.5 15.0156C652.5 14.7395 652.276 14.5156 652 14.5156C651.724 14.5156 651.5 14.7395 651.5 15.0156L652.5 15.0156ZM651.5 17.026C651.5 17.3022 651.724 17.526 652 17.526C652.276 17.526 652.5 17.3022 652.5 17.026L651.5 17.026ZM652.5 19.0365C652.5 18.7603 652.276 18.5365 652 18.5365C651.724 18.5365 651.5 18.7603 651.5 19.0365L652.5 19.0365ZM651.5 21.0469C651.5 21.323 651.724 21.5469 652 21.5469C652.276 21.5469 652.5 21.323 652.5 21.0469L651.5 21.0469ZM652.5 23.0573C652.5 22.7811 652.276 22.5573 652 22.5573C651.724 22.5573 651.5 22.7811 651.5 23.0573L652.5 23.0573ZM651.5 25.0677C651.5 25.3439 651.724 25.5677 652 25.5677C652.276 25.5677 652.5 25.3439 652.5 25.0677L651.5 25.0677ZM652.5 27.0781C652.5 26.802 652.276 26.5781 652 26.5781C651.724 26.5781 651.5 26.802 651.5 27.0781L652.5 27.0781ZM651.5 29.0885C651.5 29.3647 651.724 29.5885 652 29.5885C652.276 29.5885 652.5 29.3647 652.5 29.0885L651.5 29.0885ZM652.5 31.099C652.5 30.8228 652.276 30.599 652 30.599C651.724 30.599 651.5 30.8228 651.5 31.099L652.5 31.099ZM651.5 33.1094C651.5 33.3855 651.724 33.6094 652 33.6094C652.276 33.6094 652.5 33.3855 652.5 33.1094L651.5 33.1094ZM652.5 35.1198C652.5 34.8436 652.276 34.6198 652 34.6198C651.724 34.6198 651.5 34.8436 651.5 35.1198L652.5 35.1198ZM651.5 37.1302C651.5 37.4063 651.724 37.6302 652 37.6302C652.276 37.6302 652.5 37.4063 652.5 37.1302L651.5 37.1302ZM652.5 39.1406C652.5 38.8645 652.276 38.6406 652 38.6406C651.724 38.6406 651.5 38.8645 651.5 39.1406L652.5 39.1406ZM651.5 41.151C651.5 41.4272 651.724 41.651 652 41.651C652.276 41.651 652.5 41.4272 652.5 41.151L651.5 41.151ZM652.5 43.1615C652.5 42.8853 652.276 42.6615 652 42.6615C651.724 42.6615 651.5 42.8853 651.5 43.1615L652.5 43.1615ZM651.5 45.1719C651.5 45.448 651.724 45.6719 652 45.6719C652.276 45.6719 652.5 45.448 652.5 45.1719L651.5 45.1719ZM652.5 47.1823C652.5 46.9061 652.276 46.6823 652 46.6823C651.724 46.6823 651.5 46.9061 651.5 47.1823L652.5 47.1823ZM651.5 49.1927C651.5 49.4688 651.724 49.6927 652 49.6927C652.276 49.6927 652.5 49.4688 652.5 49.1927L651.5 49.1927ZM652.5 51.2031C652.5 50.927 652.276 50.7031 652 50.7031C651.724 50.7031 651.5 50.927 651.5 51.2031L652.5 51.2031ZM651.5 53.2135C651.5 53.4897 651.724 53.7135 652 53.7135C652.276 53.7135 652.5 53.4897 652.5 53.2135L651.5 53.2135ZM652.5 55.224C652.5 54.9478 652.276 54.724 652 54.724C651.724 54.724 651.5 54.9478 651.5 55.224L652.5 55.224ZM651.5 57.2344C651.5 57.5105 651.724 57.7344 652 57.7344C652.276 57.7344 652.5 57.5105 652.5 57.2344L651.5 57.2344ZM652.5 59.2448C652.5 58.9687 652.276 58.7448 652 58.7448C651.724 58.7448 651.5 58.9687 651.5 59.2448L652.5 59.2448ZM651.5 61.2552C651.5 61.5314 651.724 61.7552 652 61.7552C652.276 61.7552 652.5 61.5314 652.5 61.2552L651.5 61.2552ZM652.5 63.2656C652.5 62.9895 652.276 62.7656 652 62.7656C651.724 62.7656 651.5 62.9895 651.5 63.2656L652.5 63.2656ZM651.5 65.2761C651.5 65.5522 651.724 65.7761 652 65.7761C652.276 65.7761 652.5 65.5522 652.5 65.2761L651.5 65.2761ZM652.5 67.2865C652.5 67.0103 652.276 66.7865 652 66.7865C651.724 66.7865 651.5 67.0103 651.5 67.2865L652.5 67.2865ZM651.5 69.2969C651.5 69.573 651.724 69.7969 652 69.7969C652.276 69.7969 652.5 69.573 652.5 69.2969L651.5 69.2969ZM652.5 71.3073C652.5 71.0312 652.276 70.8073 652 70.8073C651.724 70.8073 651.5 71.0312 651.5 71.3073L652.5 71.3073ZM651.5 73.3177C651.5 73.5939 651.724 73.8177 652 73.8177C652.276 73.8177 652.5 73.5939 652.5 73.3177L651.5 73.3177ZM652.5 75.3281C652.5 75.052 652.276 74.8281 652 74.8281C651.724 74.8281 651.5 75.052 651.5 75.3281L652.5 75.3281ZM651.5 77.3386C651.5 77.6147 651.724 77.8386 652 77.8386C652.276 77.8386 652.5 77.6147 652.5 77.3386L651.5 77.3386ZM652.5 79.349C652.5 79.0728 652.276 78.849 652 78.849C651.724 78.849 651.5 79.0728 651.5 79.349L652.5 79.349ZM651.5 81.3594C651.5 81.6355 651.724 81.8594 652 81.8594C652.276 81.8594 652.5 81.6355 652.5 81.3594L651.5 81.3594ZM652.5 83.3698C652.5 83.0937 652.276 82.8698 652 82.8698C651.724 82.8698 651.5 83.0937 651.5 83.3698L652.5 83.3698ZM651.5 85.3802C651.5 85.6563 651.724 85.8802 652 85.8802C652.276 85.8802 652.5 85.6563 652.5 85.3802L651.5 85.3802ZM652.5 87.3906C652.5 87.1145 652.276 86.8906 652 86.8906C651.724 86.8906 651.5 87.1145 651.5 87.3906L652.5 87.3906ZM651.5 89.401C651.5 89.6772 651.724 89.901 652 89.901C652.276 89.901 652.5 89.6772 652.5 89.401L651.5 89.401ZM652.5 91.4115C652.5 91.1353 652.276 90.9115 652 90.9115C651.724 90.9115 651.5 91.1353 651.5 91.4115L652.5 91.4115ZM651.5 93.4219C651.5 93.698 651.724 93.9219 652 93.9219C652.276 93.9219 652.5 93.698 652.5 93.4219L651.5 93.4219ZM652.5 95.4323C652.5 95.1561 652.276 94.9323 652 94.9323C651.724 94.9323 651.5 95.1561 651.5 95.4323L652.5 95.4323ZM651.5 97.4427C651.5 97.7188 651.724 97.9427 652 97.9427C652.276 97.9427 652.5 97.7188 652.5 97.4427L651.5 97.4427ZM652.5 99.4531C652.5 99.177 652.276 98.9531 652 98.9531C651.724 98.9531 651.5 99.177 651.5 99.4531L652.5 99.4531ZM651.5 101.464C651.5 101.74 651.724 101.964 652 101.964C652.276 101.964 652.5 101.74 652.5 101.464L651.5 101.464ZM652.5 103.474C652.5 103.198 652.276 102.974 652 102.974C651.724 102.974 651.5 103.198 651.5 103.474L652.5 103.474ZM651.5 105.484C651.5 105.76 651.724 105.984 652 105.984C652.276 105.984 652.5 105.76 652.5 105.484L651.5 105.484ZM652.5 107.495C652.5 107.219 652.276 106.995 652 106.995C651.724 106.995 651.5 107.219 651.5 107.495L652.5 107.495ZM651.5 109.505C651.5 109.781 651.724 110.005 652 110.005C652.276 110.005 652.5 109.781 652.5 109.505L651.5 109.505ZM652.5 111.516C652.5 111.239 652.276 111.016 652 111.016C651.724 111.016 651.5 111.239 651.5 111.516L652.5 111.516ZM651.5 113.526C651.5 113.802 651.724 114.026 652 114.026C652.276 114.026 652.5 113.802 652.5 113.526L651.5 113.526ZM652.5 115.536C652.5 115.26 652.276 115.036 652 115.036C651.724 115.036 651.5 115.26 651.5 115.536L652.5 115.536ZM651.5 117.547C651.5 117.823 651.724 118.047 652 118.047C652.276 118.047 652.5 117.823 652.5 117.547L651.5 117.547ZM652.5 119.557C652.5 119.281 652.276 119.057 652 119.057C651.724 119.057 651.5 119.281 651.5 119.557L652.5 119.557ZM651.5 121.568C651.5 121.844 651.724 122.068 652 122.068C652.276 122.068 652.5 121.844 652.5 121.568L651.5 121.568ZM652.5 123.578C652.5 123.302 652.276 123.078 652 123.078C651.724 123.078 651.5 123.302 651.5 123.578L652.5 123.578ZM651.5 125.588C651.5 125.865 651.724 126.088 652 126.088C652.276 126.088 652.5 125.865 652.5 125.588L651.5 125.588ZM652.5 127.599C652.5 127.323 652.276 127.099 652 127.099C651.724 127.099 651.5 127.323 651.5 127.599L652.5 127.599ZM651.5 129.609C651.5 129.885 651.724 130.109 652 130.109C652.276 130.109 652.5 129.885 652.5 129.609L651.5 129.609ZM652.5 131.62C652.5 131.344 652.276 131.12 652 131.12C651.724 131.12 651.5 131.344 651.5 131.62L652.5 131.62ZM651.5 133.63C651.5 133.906 651.724 134.13 652 134.13C652.276 134.13 652.5 133.906 652.5 133.63L651.5 133.63ZM652.5 135.641C652.5 135.364 652.276 135.141 652 135.141C651.724 135.141 651.5 135.364 651.5 135.641L652.5 135.641ZM651.5 137.651C651.5 137.927 651.724 138.151 652 138.151C652.276 138.151 652.5 137.927 652.5 137.651L651.5 137.651ZM652.5 139.661C652.5 139.385 652.276 139.161 652 139.161C651.724 139.161 651.5 139.385 651.5 139.661L652.5 139.661ZM651.5 141.672C651.5 141.948 651.724 142.172 652 142.172C652.276 142.172 652.5 141.948 652.5 141.672L651.5 141.672ZM652.5 143.682C652.5 143.406 652.276 143.182 652 143.182C651.724 143.182 651.5 143.406 651.5 143.682L652.5 143.682ZM651.5 145.693C651.5 145.969 651.724 146.193 652 146.193C652.276 146.193 652.5 145.969 652.5 145.693L651.5 145.693ZM652.5 147.703C652.5 147.427 652.276 147.203 652 147.203C651.724 147.203 651.5 147.427 651.5 147.703L652.5 147.703ZM651.5 149.714C651.5 149.99 651.724 150.214 652 150.214C652.276 150.214 652.5 149.99 652.5 149.714L651.5 149.714ZM652.5 151.724C652.5 151.448 652.276 151.224 652 151.224C651.724 151.224 651.5 151.448 651.5 151.724L652.5 151.724ZM651.5 153.734C651.5 154.01 651.724 154.234 652 154.234C652.276 154.234 652.5 154.01 652.5 153.734L651.5 153.734ZM652.5 155.745C652.5 155.469 652.276 155.245 652 155.245C651.724 155.245 651.5 155.469 651.5 155.745L652.5 155.745ZM651.5 157.755C651.5 158.031 651.724 158.255 652 158.255C652.276 158.255 652.5 158.031 652.5 157.755L651.5 157.755ZM652.5 159.766C652.5 159.489 652.276 159.266 652 159.266C651.724 159.266 651.5 159.489 651.5 159.766L652.5 159.766ZM651.5 161.776C651.5 162.052 651.724 162.276 652 162.276C652.276 162.276 652.5 162.052 652.5 161.776L651.5 161.776ZM652.5 163.786C652.5 163.51 652.276 163.286 652 163.286C651.724 163.286 651.5 163.51 651.5 163.786L652.5 163.786ZM651.5 165.797C651.5 166.073 651.724 166.297 652 166.297C652.276 166.297 652.5 166.073 652.5 165.797L651.5 165.797ZM652.5 167.807C652.5 167.531 652.276 167.307 652 167.307C651.724 167.307 651.5 167.531 651.5 167.807L652.5 167.807ZM651.5 169.818C651.5 170.094 651.724 170.318 652 170.318C652.276 170.318 652.5 170.094 652.5 169.818L651.5 169.818ZM652.5 171.828C652.5 171.552 652.276 171.328 652 171.328C651.724 171.328 651.5 171.552 651.5 171.828L652.5 171.828ZM651.5 173.839C651.5 174.115 651.724 174.339 652 174.339C652.276 174.339 652.5 174.115 652.5 173.839L651.5 173.839ZM652.5 175.849C652.5 175.573 652.276 175.349 652 175.349C651.724 175.349 651.5 175.573 651.5 175.849L652.5 175.849ZM651.5 177.859C651.5 178.136 651.724 178.359 652 178.359C652.276 178.359 652.5 178.136 652.5 177.859L651.5 177.859ZM652.5 179.87C652.5 179.594 652.276 179.37 652 179.37C651.724 179.37 651.5 179.594 651.5 179.87L652.5 179.87ZM651.5 181.88C651.5 182.156 651.724 182.38 652 182.38C652.276 182.38 652.5 182.156 652.5 181.88L651.5 181.88ZM652.5 183.891C652.5 183.615 652.276 183.391 652 183.391C651.724 183.391 651.5 183.615 651.5 183.891L652.5 183.891ZM651.5 185.901C651.5 186.177 651.724 186.401 652 186.401C652.276 186.401 652.5 186.177 652.5 185.901L651.5 185.901ZM652.5 187.912C652.5 187.635 652.276 187.412 652 187.412C651.724 187.412 651.5 187.635 651.5 187.912L652.5 187.912ZM651.5 189.922C651.5 190.198 651.724 190.422 652 190.422C652.276 190.422 652.5 190.198 652.5 189.922L651.5 189.922ZM652.5 191.932C652.5 191.656 652.276 191.432 652 191.432C651.724 191.432 651.5 191.656 651.5 191.932L652.5 191.932ZM651.5 193.943C651.5 194.219 651.724 194.443 652 194.443C652.276 194.443 652.5 194.219 652.5 193.943L651.5 193.943ZM652.5 195.953C652.5 195.677 652.276 195.453 652 195.453C651.724 195.453 651.5 195.677 651.5 195.953L652.5 195.953ZM651.5 197.964C651.5 198.24 651.724 198.464 652 198.464C652.276 198.464 652.5 198.24 652.5 197.964L651.5 197.964ZM652.5 199.974C652.5 199.698 652.276 199.474 652 199.474C651.724 199.474 651.5 199.698 651.5 199.974L652.5 199.974ZM651.5 201.984C651.5 202.261 651.724 202.484 652 202.484C652.276 202.484 652.5 202.261 652.5 201.984L651.5 201.984ZM652.5 203.995C652.5 203.719 652.276 203.495 652 203.495C651.724 203.495 651.5 203.719 651.5 203.995L652.5 203.995ZM651.5 12L651.5 13.0052L652.5 13.0052L652.5 12H651.5ZM651.5 15.0156L651.5 17.026L652.5 17.026L652.5 15.0156L651.5 15.0156ZM651.5 19.0365L651.5 21.0469L652.5 21.0469L652.5 19.0365L651.5 19.0365ZM651.5 23.0573L651.5 25.0677L652.5 25.0677L652.5 23.0573L651.5 23.0573ZM651.5 27.0781L651.5 29.0885L652.5 29.0885L652.5 27.0781L651.5 27.0781ZM651.5 31.099L651.5 33.1094L652.5 33.1094L652.5 31.099L651.5 31.099ZM651.5 35.1198L651.5 37.1302L652.5 37.1302L652.5 35.1198L651.5 35.1198ZM651.5 39.1406L651.5 41.151L652.5 41.151L652.5 39.1406L651.5 39.1406ZM651.5 43.1615L651.5 45.1719L652.5 45.1719L652.5 43.1615L651.5 43.1615ZM651.5 47.1823L651.5 49.1927L652.5 49.1927L652.5 47.1823L651.5 47.1823ZM651.5 51.2031L651.5 53.2135L652.5 53.2135L652.5 51.2031L651.5 51.2031ZM651.5 55.224L651.5 57.2344L652.5 57.2344L652.5 55.224L651.5 55.224ZM651.5 59.2448L651.5 61.2552L652.5 61.2552L652.5 59.2448L651.5 59.2448ZM651.5 63.2656L651.5 65.2761L652.5 65.2761L652.5 63.2656L651.5 63.2656ZM651.5 67.2865L651.5 69.2969L652.5 69.2969L652.5 67.2865L651.5 67.2865ZM651.5 71.3073L651.5 73.3177L652.5 73.3177L652.5 71.3073L651.5 71.3073ZM651.5 75.3281L651.5 77.3386L652.5 77.3386L652.5 75.3281L651.5 75.3281ZM651.5 79.349L651.5 81.3594L652.5 81.3594L652.5 79.349L651.5 79.349ZM651.5 83.3698L651.5 85.3802L652.5 85.3802L652.5 83.3698L651.5 83.3698ZM651.5 87.3906L651.5 89.401L652.5 89.401L652.5 87.3906L651.5 87.3906ZM651.5 91.4115L651.5 93.4219L652.5 93.4219L652.5 91.4115L651.5 91.4115ZM651.5 95.4323L651.5 97.4427L652.5 97.4427L652.5 95.4323L651.5 95.4323ZM651.5 99.4531L651.5 101.464L652.5 101.464L652.5 99.4531L651.5 99.4531ZM651.5 103.474L651.5 105.484L652.5 105.484L652.5 103.474L651.5 103.474ZM651.5 107.495L651.5 109.505L652.5 109.505L652.5 107.495L651.5 107.495ZM651.5 111.516L651.5 113.526L652.5 113.526L652.5 111.516L651.5 111.516ZM651.5 115.536L651.5 117.547L652.5 117.547L652.5 115.536L651.5 115.536ZM651.5 119.557L651.5 121.568L652.5 121.568L652.5 119.557L651.5 119.557ZM651.5 123.578L651.5 125.588L652.5 125.588L652.5 123.578L651.5 123.578ZM651.5 127.599L651.5 129.609L652.5 129.609L652.5 127.599L651.5 127.599ZM651.5 131.62L651.5 133.63L652.5 133.63L652.5 131.62L651.5 131.62ZM651.5 135.641L651.5 137.651L652.5 137.651L652.5 135.641L651.5 135.641ZM651.5 139.661L651.5 141.672L652.5 141.672L652.5 139.661L651.5 139.661ZM651.5 143.682L651.5 145.693L652.5 145.693L652.5 143.682L651.5 143.682ZM651.5 147.703L651.5 149.714L652.5 149.714L652.5 147.703L651.5 147.703ZM651.5 151.724L651.5 153.734L652.5 153.734L652.5 151.724L651.5 151.724ZM651.5 155.745L651.5 157.755L652.5 157.755L652.5 155.745L651.5 155.745ZM651.5 159.766L651.5 161.776L652.5 161.776L652.5 159.766L651.5 159.766ZM651.5 163.786L651.5 165.797L652.5 165.797L652.5 163.786L651.5 163.786ZM651.5 167.807L651.5 169.818L652.5 169.818L652.5 167.807L651.5 167.807ZM651.5 171.828L651.5 173.839L652.5 173.839L652.5 171.828L651.5 171.828ZM651.5 175.849L651.5 177.859L652.5 177.859L652.5 175.849L651.5 175.849ZM651.5 179.87L651.5 181.88L652.5 181.88L652.5 179.87L651.5 179.87ZM651.5 183.891L651.5 185.901L652.5 185.901L652.5 183.891L651.5 183.891ZM651.5 187.912L651.5 189.922L652.5 189.922L652.5 187.912L651.5 187.912ZM651.5 191.932L651.5 193.943L652.5 193.943L652.5 191.932L651.5 191.932ZM651.5 195.953L651.5 197.964L652.5 197.964L652.5 195.953L651.5 195.953ZM651.5 199.974L651.5 201.984L652.5 201.984L652.5 199.974L651.5 199.974ZM651.5 203.995L651.5 205L652.5 205L652.5 203.995L651.5 203.995Z" fill="white"/>
<rect x="572" width="195" height="36" rx="4" fill="#151E28"/>
<path fill-rule="evenodd" clip-rule="evenodd" d="M601.925 20.1332L604.862 15.0671L607.799 20.1332H601.925ZM596.81 15.0671H602.684L599.747 20.1332L596.81 15.0671ZM609.274 13H590.726C590.327 13 590 13.3255 590 13.7235V16.4257H594.906V18.7746H590V21.4768C590 21.8746 590.327 22.2001 590.726 22.2001H609.274C609.673 22.2001 610 21.8746 610 21.4768V13.7235C610 13.3255 609.673 13 609.274 13Z" fill="white"/>
<path d="M621.53 22.14C623.91 22.14 625.618 20.922 625.912 18.514H624.092C623.896 19.928 622.916 20.628 621.53 20.628C619.682 20.628 618.604 19.298 618.604 17.044V16.932C618.604 14.692 619.752 13.32 621.516 13.32C622.958 13.32 623.7 14.006 623.91 15.336H625.8C625.576 12.984 623.798 11.836 621.502 11.836C618.716 11.836 616.644 13.936 616.644 16.946V17.058C616.644 20.138 618.394 22.14 621.53 22.14ZM630.661 20.824C629.373 20.824 628.631 19.886 628.631 18.388V18.276C628.631 16.764 629.401 15.854 630.661 15.854C631.921 15.854 632.677 16.778 632.677 18.29V18.388C632.677 19.886 631.921 20.824 630.661 20.824ZM630.647 22.14C632.803 22.14 634.413 20.656 634.413 18.374V18.262C634.413 16.022 632.803 14.524 630.661 14.524C628.505 14.524 626.895 16.036 626.895 18.304V18.416C626.895 20.642 628.491 22.14 630.647 22.14ZM635.944 22H637.638V17.618C637.638 16.498 638.408 15.938 639.248 15.938C640.074 15.938 640.55 16.4 640.55 17.478V22H642.244V17.618C642.244 16.498 643.014 15.938 643.854 15.938C644.694 15.938 645.156 16.4 645.156 17.478V22H646.85V17.366C646.85 15.35 645.758 14.524 644.414 14.524C643.504 14.524 642.496 14.93 641.936 15.84C641.572 14.93 640.816 14.524 639.864 14.524C638.786 14.524 637.988 15.112 637.638 15.798V14.678H635.944V22ZM648.795 22H650.489V17.618C650.489 16.498 651.259 15.938 652.099 15.938C652.925 15.938 653.401 16.4 653.401 17.478V22H655.095V17.618C655.095 16.498 655.865 15.938 656.705 15.938C657.545 15.938 658.007 16.4 658.007 17.478V22H659.701V17.366C659.701 15.35 658.609 14.524 657.265 14.524C656.355 14.524 655.347 14.93 654.787 15.84C654.423 14.93 653.667 14.524 652.715 14.524C651.637 14.524 650.839 15.112 650.489 15.798V14.678H648.795V22ZM664.097 22.14C665.287 22.14 666.057 21.566 666.421 20.852V22H668.115V14.678H666.421V19.032C666.421 20.194 665.623 20.782 664.713 20.782C663.733 20.782 663.271 20.278 663.271 19.172V14.678H661.577V19.368C661.577 21.314 662.655 22.14 664.097 22.14ZM670.123 22H671.817V17.688C671.817 16.526 672.587 15.938 673.539 15.938C674.547 15.938 674.995 16.442 674.995 17.548V22H676.689V17.394C676.689 15.378 675.653 14.524 674.183 14.524C672.979 14.524 672.167 15.126 671.817 15.84V14.678H670.123V22ZM678.683 22H680.377V14.678H678.683V22ZM679.509 13.474C680.069 13.474 680.517 13.054 680.517 12.508C680.517 11.948 680.069 11.528 679.509 11.528C678.949 11.528 678.501 11.948 678.501 12.508C678.501 13.054 678.949 13.474 679.509 13.474ZM684.934 22.126C685.452 22.126 685.816 22.042 686.082 21.944V20.6C685.844 20.698 685.592 20.74 685.256 20.74C684.724 20.74 684.416 20.446 684.416 19.802V15.952H686.026V14.678H684.416V13.068H682.722V14.678H681.742V15.952H682.722V19.956C682.722 21.342 683.478 22.126 684.934 22.126ZM688.422 24.506H690.088L694.078 14.678H692.426L690.634 19.396L688.688 14.678H686.854L689.752 21.258L688.422 24.506ZM698.054 22H699.804L700.588 19.522H704.41L705.208 22H707.14L703.836 11.99H701.4L698.054 22ZM702.506 13.516L703.976 18.164H701.022L702.506 13.516ZM709.817 22H711.791L714.437 14.678H712.771L710.881 20.264L708.963 14.678H707.143L709.817 22ZM718.609 24.688C720.877 24.688 722.319 23.61 722.333 21.454V14.678H720.639V15.798C720.219 15.07 719.491 14.524 718.287 14.524C716.397 14.524 714.997 16.064 714.997 18.122V18.22C714.997 20.334 716.411 21.706 718.245 21.706C719.323 21.706 720.233 21.048 720.639 20.348V21.426C720.639 22.742 719.911 23.4 718.595 23.4C717.489 23.4 716.929 22.98 716.789 22.252H715.081C715.277 23.652 716.313 24.688 718.609 24.688ZM718.665 20.404C717.573 20.404 716.733 19.564 716.733 18.206V18.094C716.733 16.764 717.461 15.854 718.721 15.854C719.939 15.854 720.695 16.68 720.695 18.066V18.164C720.695 19.564 719.841 20.404 718.665 20.404ZM728.746 22.098C729.376 22.098 729.866 21.622 729.866 21.006C729.866 20.39 729.376 19.9 728.746 19.9C728.13 19.9 727.64 20.39 727.64 21.006C727.64 21.622 728.13 22.098 728.746 22.098ZM728.746 18.01C729.376 18.01 729.866 17.52 729.866 16.904C729.866 16.288 729.376 15.812 728.746 15.812C728.13 15.812 727.64 16.288 727.64 16.904C727.64 17.52 728.13 18.01 728.746 18.01ZM738.8 22.14C741.068 22.14 742.496 20.768 742.496 18.738C742.496 16.792 741.124 15.476 739.206 15.476C738.016 15.476 737.19 15.994 736.728 16.764C736.784 14.482 737.666 13.292 739.01 13.292C739.976 13.292 740.368 13.74 740.55 14.496H742.286C742.048 12.746 740.844 11.85 739.024 11.85C736.63 11.85 734.88 13.74 734.88 17.212V17.45C734.88 20.096 735.888 22.14 738.8 22.14ZM738.772 20.768C737.638 20.768 736.84 19.998 736.84 18.668C736.84 17.562 737.638 16.764 738.772 16.764C739.92 16.764 740.648 17.576 740.648 18.78C740.648 19.97 739.892 20.768 738.772 20.768ZM744.778 22H746.696L750.336 12.214V11.99H743.336V13.502H747.998L744.778 22Z" fill="white"/>
<g filter="url(#filter1_d_7124_62895)">
<circle cx="652" cy="211" r="8" fill="#161F27"/>
<circle cx="652" cy="211" r="9" stroke="white" stroke-width="2"/>
</g>
<defs>
<filter id="filter0_d_7124_62895" x="540" y="202" width="20" height="20" filterUnits="userSpaceOnUse" color-interpolation-filters="sRGB">
<feFlood flood-opacity="0" result="BackgroundImageFix"/>
<feColorMatrix in="SourceAlpha" type="matrix" values="0 0 0 0 0 0 0 0 0 0 0 0 0 0 0 0 0 0 127 0" result="hardAlpha"/>
<feOffset dy="1"/>
<feGaussianBlur stdDeviation="1"/>
<feColorMatrix type="matrix" values="0 0 0 0 0 0 0 0 0 0 0 0 0 0 0 0 0 0 0.06 0"/>
<feBlend mode="normal" in2="BackgroundImageFix" result="effect1_dropShadow_7124_62895"/>
<feBlend mode="normal" in="SourceGraphic" in2="effect1_dropShadow_7124_62895" result="shape"/>
</filter>
<filter id="filter1_d_7124_62895" x="640" y="200" width="24" height="24" filterUnits="userSpaceOnUse" color-interpolation-filters="sRGB">
<feFlood flood-opacity="0" result="BackgroundImageFix"/>
<feColorMatrix in="SourceAlpha" type="matrix" values="0 0 0 0 0 0 0 0 0 0 0 0 0 0 0 0 0 0 127 0" result="hardAlpha"/>
<feOffset dy="1"/>
<feGaussianBlur stdDeviation="1"/>
<feColorMatrix type="matrix" values="0 0 0 0 0 0 0 0 0 0 0 0 0 0 0 0 0 0 0.06 0"/>
<feBlend mode="normal" in2="BackgroundImageFix" result="effect1_dropShadow_7124_62895"/>
<feBlend mode="normal" in="SourceGraphic" in2="effect1_dropShadow_7124_62895" result="shape"/>
</filter>
<linearGradient id="paint0_linear_7124_62895" x1="-6.9112" y1="-15.5009" x2="1063.67" y2="25.2688" gradientUnits="userSpaceOnUse">
<stop stop-color="#52BDA3"/>
<stop offset="0.515625" stop-color="#F2ED69"/>
<stop offset="1" stop-color="#FC5656"/>
</linearGradient>
<linearGradient id="paint1_linear_7124_62895" x1="-6.05053" y1="-7.75046" x2="928.412" y2="54.5586" gradientUnits="userSpaceOnUse">
<stop stop-color="#52BDA3"/>
<stop offset="0.515625" stop-color="#F2ED69"/>
<stop offset="1" stop-color="#FC5656"/>
</linearGradient>
<clipPath id="clip0_7124_62895">
<rect width="267" height="8" fill="white" transform="translate(457 207)"/>
</clipPath>
</defs>
</svg>
