<svg width="58" height="58" viewBox="0 0 58 58" fill="none" xmlns="http://www.w3.org/2000/svg">
<path d="M33.7959 51.7878L33.8364 51.8419H33.7959V51.7878Z" fill="#F9CD51"/>
<g style="mix-blend-mode:multiply">
<path d="M37.1035 56.8692C28.2877 59.2432 19.2851 56.9092 14.4571 50.1873C13.6435 49.0536 13.0033 47.8666 12.5232 46.6129C17.4979 52.1478 25.7003 53.975 33.7959 51.8544H33.8359L37.1169 56.8825L37.1035 56.8692Z" fill="#E774AD"/>
<path d="M37.1035 56.8692C28.2877 59.2432 19.2851 56.9092 14.4571 50.1873C13.6435 49.0536 13.0033 47.8666 12.5232 46.6129C17.4979 52.1478 25.7003 53.975 33.7959 51.8544H33.8359L37.1169 56.8825L37.1035 56.8692Z" stroke="#010101" stroke-width="0.11" stroke-linecap="round" stroke-linejoin="round"/>
</g>
<g style="mix-blend-mode:multiply">
<path d="M33.7959 51.7878L33.8364 51.8419H33.7959V51.7878Z" fill="#F9CD51"/>
<path d="M33.7959 51.7878L33.8364 51.8419H33.7959V51.7878Z" stroke="#010101" stroke-width="0.11" stroke-linecap="round" stroke-linejoin="round"/>
</g>
<path d="M46.4261 52.4012C43.4919 54.5218 40.3044 56.0022 37.1034 56.8558L33.8225 51.8277C37.0634 50.9741 40.3044 49.4671 43.3052 47.3198C53.028 40.3578 57.0424 28.8078 53.4548 19.912C53.8815 20.3921 54.255 20.8723 54.6418 21.3924C61.217 30.5817 57.5493 44.439 46.4394 52.3879L46.4261 52.4012Z" fill="#1EABE2" stroke="#010101" stroke-width="0.11" stroke-linecap="round" stroke-linejoin="round"/>
<path d="M33.7959 51.7877V51.8411C25.7136 53.9617 17.5113 52.1345 12.5232 46.5996C12.0831 46.1328 11.6963 45.6393 11.3229 45.1191C9.20229 42.1316 8.14865 38.6773 8.10864 35.0763L11.9231 34.3561L31.4086 30.7284L31.7954 34.0493L33.7959 51.7744V51.7877Z" fill="#E991BE" stroke="#010101" stroke-width="0.11" stroke-linecap="round" stroke-linejoin="round"/>
<path d="M43.3053 47.3465C40.3045 49.4937 37.0635 50.9875 33.8226 51.8544L33.7826 51.8011L31.782 34.076L31.3953 30.7551L33.4092 14.4171L34.0894 8.82885C41.0647 8.4154 47.6399 10.9628 51.4943 16.391C52.2945 17.5113 52.9347 18.7117 53.4282 19.952C57.0292 28.8479 53.0147 40.3978 43.2786 47.3598L43.3053 47.3465Z" fill="#86D4F1" stroke="#010101" stroke-width="0.11" stroke-linecap="round" stroke-linejoin="round"/>
<path d="M33.823 51.8419H33.7825V51.7878L33.823 51.8419Z" fill="#F9CD51" stroke="#010101" stroke-width="0.11" stroke-linecap="round" stroke-linejoin="round"/>
<path d="M8.1088 35.0763L8.08179 35.0898" stroke="#010101" stroke-width="0.11" stroke-linecap="round" stroke-linejoin="round"/>
<path d="M24.1531 7.17517C23.7396 9.86927 23.3395 12.5634 22.926 15.2441C22.5793 17.5915 22.2192 19.9388 21.8724 22.2861L13.8435 24.14L5.78784 25.9805C6.04125 23.9799 6.93484 18.9652 10.9493 14.3639C15.9507 8.64226 22.3525 7.44191 24.1531 7.17517Z" fill="#FACE52" stroke="#010101" stroke-width="0.11" stroke-linecap="round" stroke-linejoin="round"/>
<path d="M5.78784 25.9804L13.8435 24.1399L21.8724 22.286L27.434 28.1944L11.3628 31.8754L5.78784 25.9804Z" fill="#F9CD51"/>
<path d="M24.1532 7.17517L29.7281 13.0435C28.9546 18.0849 28.2077 23.1264 27.4341 28.1811L21.8726 22.2861C22.2193 19.9388 22.5794 17.5915 22.9262 15.2441C23.3396 12.55 23.7398 9.85593 24.1532 7.17517Z" fill="#F9CD51"/>
<path d="M5.78784 25.9804L13.8435 24.1399L21.8724 22.286L27.434 28.1944L11.3628 31.8754L5.78784 25.9804Z" fill="#F99B1C" stroke="#010101" stroke-width="0.11" stroke-linecap="round" stroke-linejoin="round"/>
<path d="M24.1532 7.17517L29.7281 13.0435C28.9546 18.0849 28.2077 23.1264 27.4341 28.1811L21.8726 22.2861C22.2193 19.9388 22.5794 17.5915 22.9262 15.2441C23.3396 12.55 23.7398 9.85593 24.1532 7.17517Z" fill="#F6BD4A" stroke="#010101" stroke-width="0.11" stroke-linecap="round" stroke-linejoin="round"/>
<path d="M24.8201 5.05448V1" stroke="#010101" stroke-width="0.11" stroke-linecap="round" stroke-linejoin="round"/>
<path d="M3.85399 27.7008L1.84009 27.8875" stroke="#010101" stroke-width="0.11" stroke-linecap="round" stroke-linejoin="round"/>
<path d="M4.48099 29.1146L1 31.6487" stroke="#010101" stroke-width="0.11" stroke-linecap="round" stroke-linejoin="round"/>
<path d="M26.4604 5.94803L29.5147 3.29395" stroke="#010101" stroke-width="0.11" stroke-linecap="round" stroke-linejoin="round"/>
</svg>
